%TF.GenerationSoftware,KiCad,Pcbnew,7.0.6*%
%TF.CreationDate,2025-04-22T02:23:43+09:00*%
%TF.ProjectId,Moving_V4_ESP,4d6f7669-6e67-45f5-9634-5f4553502e6b,rev?*%
%TF.SameCoordinates,Original*%
%TF.FileFunction,Legend,Top*%
%TF.FilePolarity,Positive*%
%FSLAX46Y46*%
G04 Gerber Fmt 4.6, Leading zero omitted, Abs format (unit mm)*
G04 Created by KiCad (PCBNEW 7.0.6) date 2025-04-22 02:23:43*
%MOMM*%
%LPD*%
G01*
G04 APERTURE LIST*
G04 Aperture macros list*
%AMRoundRect*
0 Rectangle with rounded corners*
0 $1 Rounding radius*
0 $2 $3 $4 $5 $6 $7 $8 $9 X,Y pos of 4 corners*
0 Add a 4 corners polygon primitive as box body*
4,1,4,$2,$3,$4,$5,$6,$7,$8,$9,$2,$3,0*
0 Add four circle primitives for the rounded corners*
1,1,$1+$1,$2,$3*
1,1,$1+$1,$4,$5*
1,1,$1+$1,$6,$7*
1,1,$1+$1,$8,$9*
0 Add four rect primitives between the rounded corners*
20,1,$1+$1,$2,$3,$4,$5,0*
20,1,$1+$1,$4,$5,$6,$7,0*
20,1,$1+$1,$6,$7,$8,$9,0*
20,1,$1+$1,$8,$9,$2,$3,0*%
%AMFreePoly0*
4,1,19,0.500000,-0.750000,0.000000,-0.750000,0.000000,-0.744911,-0.071157,-0.744911,-0.207708,-0.704816,-0.327430,-0.627875,-0.420627,-0.520320,-0.479746,-0.390866,-0.500000,-0.250000,-0.500000,0.250000,-0.479746,0.390866,-0.420627,0.520320,-0.327430,0.627875,-0.207708,0.704816,-0.071157,0.744911,0.000000,0.744911,0.000000,0.750000,0.500000,0.750000,0.500000,-0.750000,0.500000,-0.750000,
$1*%
%AMFreePoly1*
4,1,19,0.000000,0.744911,0.071157,0.744911,0.207708,0.704816,0.327430,0.627875,0.420627,0.520320,0.479746,0.390866,0.500000,0.250000,0.500000,-0.250000,0.479746,-0.390866,0.420627,-0.520320,0.327430,-0.627875,0.207708,-0.704816,0.071157,-0.744911,0.000000,-0.744911,0.000000,-0.750000,-0.500000,-0.750000,-0.500000,0.750000,0.000000,0.750000,0.000000,0.744911,0.000000,0.744911,
$1*%
G04 Aperture macros list end*
%ADD10C,0.150000*%
%ADD11C,0.120000*%
%ADD12RoundRect,0.250000X0.850000X0.350000X-0.850000X0.350000X-0.850000X-0.350000X0.850000X-0.350000X0*%
%ADD13RoundRect,0.249997X2.950003X2.650003X-2.950003X2.650003X-2.950003X-2.650003X2.950003X-2.650003X0*%
%ADD14RoundRect,0.135000X-0.185000X0.135000X-0.185000X-0.135000X0.185000X-0.135000X0.185000X0.135000X0*%
%ADD15RoundRect,0.197500X-0.197500X-0.632500X0.197500X-0.632500X0.197500X0.632500X-0.197500X0.632500X0*%
%ADD16RoundRect,0.150000X-0.150000X0.675000X-0.150000X-0.675000X0.150000X-0.675000X0.150000X0.675000X0*%
%ADD17RoundRect,0.135000X-0.135000X-0.185000X0.135000X-0.185000X0.135000X0.185000X-0.135000X0.185000X0*%
%ADD18RoundRect,0.250000X-0.650000X1.000000X-0.650000X-1.000000X0.650000X-1.000000X0.650000X1.000000X0*%
%ADD19RoundRect,0.140000X-0.140000X-0.170000X0.140000X-0.170000X0.140000X0.170000X-0.140000X0.170000X0*%
%ADD20RoundRect,0.250000X1.500000X0.550000X-1.500000X0.550000X-1.500000X-0.550000X1.500000X-0.550000X0*%
%ADD21RoundRect,0.135000X0.185000X-0.135000X0.185000X0.135000X-0.185000X0.135000X-0.185000X-0.135000X0*%
%ADD22R,0.300000X1.400000*%
%ADD23R,0.750000X1.000000*%
%ADD24FreePoly0,180.000000*%
%ADD25FreePoly1,180.000000*%
%ADD26RoundRect,0.140000X0.170000X-0.140000X0.170000X0.140000X-0.170000X0.140000X-0.170000X-0.140000X0*%
%ADD27C,3.200000*%
%ADD28R,0.400000X1.650000*%
%ADD29R,1.825000X0.700000*%
%ADD30R,2.000000X1.500000*%
%ADD31R,1.350000X2.000000*%
%ADD32O,1.350000X1.700000*%
%ADD33O,1.100000X1.500000*%
%ADD34R,1.430000X2.500000*%
%ADD35RoundRect,0.140000X-0.170000X0.140000X-0.170000X-0.140000X0.170000X-0.140000X0.170000X0.140000X0*%
%ADD36RoundRect,0.250000X-1.500000X-0.550000X1.500000X-0.550000X1.500000X0.550000X-1.500000X0.550000X0*%
%ADD37RoundRect,0.218750X0.256250X-0.218750X0.256250X0.218750X-0.256250X0.218750X-0.256250X-0.218750X0*%
%ADD38R,1.600000X1.600000*%
%ADD39C,1.600000*%
%ADD40R,1.800000X1.800000*%
%ADD41C,1.800000*%
%ADD42RoundRect,0.250000X0.350000X0.625000X-0.350000X0.625000X-0.350000X-0.625000X0.350000X-0.625000X0*%
%ADD43O,1.200000X1.750000*%
%ADD44R,3.000000X3.000000*%
%ADD45C,3.000000*%
G04 APERTURE END LIST*
D10*
X116000000Y-154250000D02*
X115900000Y-154600000D01*
X123500000Y-153750000D02*
X123500000Y-154250000D01*
X127000000Y-157250000D02*
X127000000Y-153750000D01*
D11*
X116060000Y-138050000D02*
X115500000Y-137500000D01*
X102300000Y-106700000D02*
X102500000Y-106500000D01*
D10*
X120250000Y-154000000D02*
X120000000Y-154250000D01*
X116000000Y-154250000D02*
X115700000Y-154100000D01*
D11*
X117300000Y-106700000D02*
X117500000Y-106500000D01*
D10*
X120000000Y-154250000D02*
X120250000Y-154500000D01*
X123500000Y-157250000D02*
X127000000Y-157250000D01*
X120000000Y-154250000D02*
X120250000Y-154000000D01*
X127000000Y-153750000D02*
X123500000Y-153750000D01*
D11*
X132300000Y-106700000D02*
X132500000Y-106500000D01*
D10*
X120000000Y-154250000D02*
X123500000Y-154250000D01*
D11*
X116750000Y-148500000D02*
X117000000Y-148500000D01*
D10*
X114500000Y-155000000D02*
X116000000Y-154250000D01*
X123500000Y-154250000D02*
X123500000Y-157250000D01*
D11*
X116750000Y-147500000D02*
X116750000Y-148500000D01*
X107560000Y-138050000D02*
X107000000Y-137500000D01*
D10*
X108796847Y-138241541D02*
X108130180Y-138479636D01*
X108130180Y-138479636D02*
X108796847Y-138717731D01*
X118258458Y-113296847D02*
X118020363Y-112630180D01*
X118020363Y-112630180D02*
X117782268Y-113296847D01*
X108336779Y-102126009D02*
X108670112Y-102126009D01*
X108812969Y-102649819D02*
X108336779Y-102649819D01*
X108336779Y-102649819D02*
X108336779Y-101649819D01*
X108336779Y-101649819D02*
X108812969Y-101649819D01*
X109193922Y-102602200D02*
X109336779Y-102649819D01*
X109336779Y-102649819D02*
X109574874Y-102649819D01*
X109574874Y-102649819D02*
X109670112Y-102602200D01*
X109670112Y-102602200D02*
X109717731Y-102554580D01*
X109717731Y-102554580D02*
X109765350Y-102459342D01*
X109765350Y-102459342D02*
X109765350Y-102364104D01*
X109765350Y-102364104D02*
X109717731Y-102268866D01*
X109717731Y-102268866D02*
X109670112Y-102221247D01*
X109670112Y-102221247D02*
X109574874Y-102173628D01*
X109574874Y-102173628D02*
X109384398Y-102126009D01*
X109384398Y-102126009D02*
X109289160Y-102078390D01*
X109289160Y-102078390D02*
X109241541Y-102030771D01*
X109241541Y-102030771D02*
X109193922Y-101935533D01*
X109193922Y-101935533D02*
X109193922Y-101840295D01*
X109193922Y-101840295D02*
X109241541Y-101745057D01*
X109241541Y-101745057D02*
X109289160Y-101697438D01*
X109289160Y-101697438D02*
X109384398Y-101649819D01*
X109384398Y-101649819D02*
X109622493Y-101649819D01*
X109622493Y-101649819D02*
X109765350Y-101697438D01*
X110193922Y-102649819D02*
X110193922Y-101649819D01*
X110193922Y-101649819D02*
X110574874Y-101649819D01*
X110574874Y-101649819D02*
X110670112Y-101697438D01*
X110670112Y-101697438D02*
X110717731Y-101745057D01*
X110717731Y-101745057D02*
X110765350Y-101840295D01*
X110765350Y-101840295D02*
X110765350Y-101983152D01*
X110765350Y-101983152D02*
X110717731Y-102078390D01*
X110717731Y-102078390D02*
X110670112Y-102126009D01*
X110670112Y-102126009D02*
X110574874Y-102173628D01*
X110574874Y-102173628D02*
X110193922Y-102173628D01*
X111955827Y-102649819D02*
X111955827Y-101649819D01*
X111955827Y-101649819D02*
X112289160Y-102364104D01*
X112289160Y-102364104D02*
X112622493Y-101649819D01*
X112622493Y-101649819D02*
X112622493Y-102649819D01*
X113098684Y-102649819D02*
X113098684Y-101983152D01*
X113098684Y-101649819D02*
X113051065Y-101697438D01*
X113051065Y-101697438D02*
X113098684Y-101745057D01*
X113098684Y-101745057D02*
X113146303Y-101697438D01*
X113146303Y-101697438D02*
X113098684Y-101649819D01*
X113098684Y-101649819D02*
X113098684Y-101745057D01*
X113574874Y-101983152D02*
X113574874Y-102649819D01*
X113574874Y-102078390D02*
X113622493Y-102030771D01*
X113622493Y-102030771D02*
X113717731Y-101983152D01*
X113717731Y-101983152D02*
X113860588Y-101983152D01*
X113860588Y-101983152D02*
X113955826Y-102030771D01*
X113955826Y-102030771D02*
X114003445Y-102126009D01*
X114003445Y-102126009D02*
X114003445Y-102649819D01*
X114479636Y-102649819D02*
X114479636Y-101983152D01*
X114479636Y-101649819D02*
X114432017Y-101697438D01*
X114432017Y-101697438D02*
X114479636Y-101745057D01*
X114479636Y-101745057D02*
X114527255Y-101697438D01*
X114527255Y-101697438D02*
X114479636Y-101649819D01*
X114479636Y-101649819D02*
X114479636Y-101745057D01*
X115717731Y-102649819D02*
X115717731Y-101649819D01*
X115717731Y-101649819D02*
X116098683Y-101649819D01*
X116098683Y-101649819D02*
X116193921Y-101697438D01*
X116193921Y-101697438D02*
X116241540Y-101745057D01*
X116241540Y-101745057D02*
X116289159Y-101840295D01*
X116289159Y-101840295D02*
X116289159Y-101983152D01*
X116289159Y-101983152D02*
X116241540Y-102078390D01*
X116241540Y-102078390D02*
X116193921Y-102126009D01*
X116193921Y-102126009D02*
X116098683Y-102173628D01*
X116098683Y-102173628D02*
X115717731Y-102173628D01*
X117051064Y-102126009D02*
X116717731Y-102126009D01*
X116717731Y-102649819D02*
X116717731Y-101649819D01*
X116717731Y-101649819D02*
X117193921Y-101649819D01*
X118670112Y-102126009D02*
X118812969Y-102173628D01*
X118812969Y-102173628D02*
X118860588Y-102221247D01*
X118860588Y-102221247D02*
X118908207Y-102316485D01*
X118908207Y-102316485D02*
X118908207Y-102459342D01*
X118908207Y-102459342D02*
X118860588Y-102554580D01*
X118860588Y-102554580D02*
X118812969Y-102602200D01*
X118812969Y-102602200D02*
X118717731Y-102649819D01*
X118717731Y-102649819D02*
X118336779Y-102649819D01*
X118336779Y-102649819D02*
X118336779Y-101649819D01*
X118336779Y-101649819D02*
X118670112Y-101649819D01*
X118670112Y-101649819D02*
X118765350Y-101697438D01*
X118765350Y-101697438D02*
X118812969Y-101745057D01*
X118812969Y-101745057D02*
X118860588Y-101840295D01*
X118860588Y-101840295D02*
X118860588Y-101935533D01*
X118860588Y-101935533D02*
X118812969Y-102030771D01*
X118812969Y-102030771D02*
X118765350Y-102078390D01*
X118765350Y-102078390D02*
X118670112Y-102126009D01*
X118670112Y-102126009D02*
X118336779Y-102126009D01*
X119765350Y-102649819D02*
X119765350Y-102126009D01*
X119765350Y-102126009D02*
X119717731Y-102030771D01*
X119717731Y-102030771D02*
X119622493Y-101983152D01*
X119622493Y-101983152D02*
X119432017Y-101983152D01*
X119432017Y-101983152D02*
X119336779Y-102030771D01*
X119765350Y-102602200D02*
X119670112Y-102649819D01*
X119670112Y-102649819D02*
X119432017Y-102649819D01*
X119432017Y-102649819D02*
X119336779Y-102602200D01*
X119336779Y-102602200D02*
X119289160Y-102506961D01*
X119289160Y-102506961D02*
X119289160Y-102411723D01*
X119289160Y-102411723D02*
X119336779Y-102316485D01*
X119336779Y-102316485D02*
X119432017Y-102268866D01*
X119432017Y-102268866D02*
X119670112Y-102268866D01*
X119670112Y-102268866D02*
X119765350Y-102221247D01*
X120193922Y-102602200D02*
X120289160Y-102649819D01*
X120289160Y-102649819D02*
X120479636Y-102649819D01*
X120479636Y-102649819D02*
X120574874Y-102602200D01*
X120574874Y-102602200D02*
X120622493Y-102506961D01*
X120622493Y-102506961D02*
X120622493Y-102459342D01*
X120622493Y-102459342D02*
X120574874Y-102364104D01*
X120574874Y-102364104D02*
X120479636Y-102316485D01*
X120479636Y-102316485D02*
X120336779Y-102316485D01*
X120336779Y-102316485D02*
X120241541Y-102268866D01*
X120241541Y-102268866D02*
X120193922Y-102173628D01*
X120193922Y-102173628D02*
X120193922Y-102126009D01*
X120193922Y-102126009D02*
X120241541Y-102030771D01*
X120241541Y-102030771D02*
X120336779Y-101983152D01*
X120336779Y-101983152D02*
X120479636Y-101983152D01*
X120479636Y-101983152D02*
X120574874Y-102030771D01*
X121432017Y-102602200D02*
X121336779Y-102649819D01*
X121336779Y-102649819D02*
X121146303Y-102649819D01*
X121146303Y-102649819D02*
X121051065Y-102602200D01*
X121051065Y-102602200D02*
X121003446Y-102506961D01*
X121003446Y-102506961D02*
X121003446Y-102126009D01*
X121003446Y-102126009D02*
X121051065Y-102030771D01*
X121051065Y-102030771D02*
X121146303Y-101983152D01*
X121146303Y-101983152D02*
X121336779Y-101983152D01*
X121336779Y-101983152D02*
X121432017Y-102030771D01*
X121432017Y-102030771D02*
X121479636Y-102126009D01*
X121479636Y-102126009D02*
X121479636Y-102221247D01*
X121479636Y-102221247D02*
X121003446Y-102316485D01*
X123241541Y-102554580D02*
X123193922Y-102602200D01*
X123193922Y-102602200D02*
X123051065Y-102649819D01*
X123051065Y-102649819D02*
X122955827Y-102649819D01*
X122955827Y-102649819D02*
X122812970Y-102602200D01*
X122812970Y-102602200D02*
X122717732Y-102506961D01*
X122717732Y-102506961D02*
X122670113Y-102411723D01*
X122670113Y-102411723D02*
X122622494Y-102221247D01*
X122622494Y-102221247D02*
X122622494Y-102078390D01*
X122622494Y-102078390D02*
X122670113Y-101887914D01*
X122670113Y-101887914D02*
X122717732Y-101792676D01*
X122717732Y-101792676D02*
X122812970Y-101697438D01*
X122812970Y-101697438D02*
X122955827Y-101649819D01*
X122955827Y-101649819D02*
X123051065Y-101649819D01*
X123051065Y-101649819D02*
X123193922Y-101697438D01*
X123193922Y-101697438D02*
X123241541Y-101745057D01*
X123670113Y-102649819D02*
X123670113Y-101983152D01*
X123670113Y-101649819D02*
X123622494Y-101697438D01*
X123622494Y-101697438D02*
X123670113Y-101745057D01*
X123670113Y-101745057D02*
X123717732Y-101697438D01*
X123717732Y-101697438D02*
X123670113Y-101649819D01*
X123670113Y-101649819D02*
X123670113Y-101745057D01*
X124146303Y-102649819D02*
X124146303Y-101983152D01*
X124146303Y-102173628D02*
X124193922Y-102078390D01*
X124193922Y-102078390D02*
X124241541Y-102030771D01*
X124241541Y-102030771D02*
X124336779Y-101983152D01*
X124336779Y-101983152D02*
X124432017Y-101983152D01*
X125193922Y-102602200D02*
X125098684Y-102649819D01*
X125098684Y-102649819D02*
X124908208Y-102649819D01*
X124908208Y-102649819D02*
X124812970Y-102602200D01*
X124812970Y-102602200D02*
X124765351Y-102554580D01*
X124765351Y-102554580D02*
X124717732Y-102459342D01*
X124717732Y-102459342D02*
X124717732Y-102173628D01*
X124717732Y-102173628D02*
X124765351Y-102078390D01*
X124765351Y-102078390D02*
X124812970Y-102030771D01*
X124812970Y-102030771D02*
X124908208Y-101983152D01*
X124908208Y-101983152D02*
X125098684Y-101983152D01*
X125098684Y-101983152D02*
X125193922Y-102030771D01*
X126051065Y-101983152D02*
X126051065Y-102649819D01*
X125622494Y-101983152D02*
X125622494Y-102506961D01*
X125622494Y-102506961D02*
X125670113Y-102602200D01*
X125670113Y-102602200D02*
X125765351Y-102649819D01*
X125765351Y-102649819D02*
X125908208Y-102649819D01*
X125908208Y-102649819D02*
X126003446Y-102602200D01*
X126003446Y-102602200D02*
X126051065Y-102554580D01*
X126527256Y-102649819D02*
X126527256Y-101983152D01*
X126527256Y-101649819D02*
X126479637Y-101697438D01*
X126479637Y-101697438D02*
X126527256Y-101745057D01*
X126527256Y-101745057D02*
X126574875Y-101697438D01*
X126574875Y-101697438D02*
X126527256Y-101649819D01*
X126527256Y-101649819D02*
X126527256Y-101745057D01*
X126860589Y-101983152D02*
X127241541Y-101983152D01*
X127003446Y-101649819D02*
X127003446Y-102506961D01*
X127003446Y-102506961D02*
X127051065Y-102602200D01*
X127051065Y-102602200D02*
X127146303Y-102649819D01*
X127146303Y-102649819D02*
X127241541Y-102649819D01*
X108241541Y-103259819D02*
X108860588Y-103259819D01*
X108860588Y-103259819D02*
X108527255Y-103640771D01*
X108527255Y-103640771D02*
X108670112Y-103640771D01*
X108670112Y-103640771D02*
X108765350Y-103688390D01*
X108765350Y-103688390D02*
X108812969Y-103736009D01*
X108812969Y-103736009D02*
X108860588Y-103831247D01*
X108860588Y-103831247D02*
X108860588Y-104069342D01*
X108860588Y-104069342D02*
X108812969Y-104164580D01*
X108812969Y-104164580D02*
X108765350Y-104212200D01*
X108765350Y-104212200D02*
X108670112Y-104259819D01*
X108670112Y-104259819D02*
X108384398Y-104259819D01*
X108384398Y-104259819D02*
X108289160Y-104212200D01*
X108289160Y-104212200D02*
X108241541Y-104164580D01*
X109432017Y-103688390D02*
X109336779Y-103640771D01*
X109336779Y-103640771D02*
X109289160Y-103593152D01*
X109289160Y-103593152D02*
X109241541Y-103497914D01*
X109241541Y-103497914D02*
X109241541Y-103450295D01*
X109241541Y-103450295D02*
X109289160Y-103355057D01*
X109289160Y-103355057D02*
X109336779Y-103307438D01*
X109336779Y-103307438D02*
X109432017Y-103259819D01*
X109432017Y-103259819D02*
X109622493Y-103259819D01*
X109622493Y-103259819D02*
X109717731Y-103307438D01*
X109717731Y-103307438D02*
X109765350Y-103355057D01*
X109765350Y-103355057D02*
X109812969Y-103450295D01*
X109812969Y-103450295D02*
X109812969Y-103497914D01*
X109812969Y-103497914D02*
X109765350Y-103593152D01*
X109765350Y-103593152D02*
X109717731Y-103640771D01*
X109717731Y-103640771D02*
X109622493Y-103688390D01*
X109622493Y-103688390D02*
X109432017Y-103688390D01*
X109432017Y-103688390D02*
X109336779Y-103736009D01*
X109336779Y-103736009D02*
X109289160Y-103783628D01*
X109289160Y-103783628D02*
X109241541Y-103878866D01*
X109241541Y-103878866D02*
X109241541Y-104069342D01*
X109241541Y-104069342D02*
X109289160Y-104164580D01*
X109289160Y-104164580D02*
X109336779Y-104212200D01*
X109336779Y-104212200D02*
X109432017Y-104259819D01*
X109432017Y-104259819D02*
X109622493Y-104259819D01*
X109622493Y-104259819D02*
X109717731Y-104212200D01*
X109717731Y-104212200D02*
X109765350Y-104164580D01*
X109765350Y-104164580D02*
X109812969Y-104069342D01*
X109812969Y-104069342D02*
X109812969Y-103878866D01*
X109812969Y-103878866D02*
X109765350Y-103783628D01*
X109765350Y-103783628D02*
X109717731Y-103736009D01*
X109717731Y-103736009D02*
X109622493Y-103688390D01*
X110908208Y-104259819D02*
X111432017Y-103593152D01*
X110908208Y-103593152D02*
X111432017Y-104259819D01*
X113003446Y-103259819D02*
X112812970Y-103259819D01*
X112812970Y-103259819D02*
X112717732Y-103307438D01*
X112717732Y-103307438D02*
X112670113Y-103355057D01*
X112670113Y-103355057D02*
X112574875Y-103497914D01*
X112574875Y-103497914D02*
X112527256Y-103688390D01*
X112527256Y-103688390D02*
X112527256Y-104069342D01*
X112527256Y-104069342D02*
X112574875Y-104164580D01*
X112574875Y-104164580D02*
X112622494Y-104212200D01*
X112622494Y-104212200D02*
X112717732Y-104259819D01*
X112717732Y-104259819D02*
X112908208Y-104259819D01*
X112908208Y-104259819D02*
X113003446Y-104212200D01*
X113003446Y-104212200D02*
X113051065Y-104164580D01*
X113051065Y-104164580D02*
X113098684Y-104069342D01*
X113098684Y-104069342D02*
X113098684Y-103831247D01*
X113098684Y-103831247D02*
X113051065Y-103736009D01*
X113051065Y-103736009D02*
X113003446Y-103688390D01*
X113003446Y-103688390D02*
X112908208Y-103640771D01*
X112908208Y-103640771D02*
X112717732Y-103640771D01*
X112717732Y-103640771D02*
X112622494Y-103688390D01*
X112622494Y-103688390D02*
X112574875Y-103736009D01*
X112574875Y-103736009D02*
X112527256Y-103831247D01*
X113432018Y-103259819D02*
X114051065Y-103259819D01*
X114051065Y-103259819D02*
X113717732Y-103640771D01*
X113717732Y-103640771D02*
X113860589Y-103640771D01*
X113860589Y-103640771D02*
X113955827Y-103688390D01*
X113955827Y-103688390D02*
X114003446Y-103736009D01*
X114003446Y-103736009D02*
X114051065Y-103831247D01*
X114051065Y-103831247D02*
X114051065Y-104069342D01*
X114051065Y-104069342D02*
X114003446Y-104164580D01*
X114003446Y-104164580D02*
X113955827Y-104212200D01*
X113955827Y-104212200D02*
X113860589Y-104259819D01*
X113860589Y-104259819D02*
X113574875Y-104259819D01*
X113574875Y-104259819D02*
X113479637Y-104212200D01*
X113479637Y-104212200D02*
X113432018Y-104164580D01*
X108908207Y-105869819D02*
X108574874Y-105393628D01*
X108336779Y-105869819D02*
X108336779Y-104869819D01*
X108336779Y-104869819D02*
X108717731Y-104869819D01*
X108717731Y-104869819D02*
X108812969Y-104917438D01*
X108812969Y-104917438D02*
X108860588Y-104965057D01*
X108860588Y-104965057D02*
X108908207Y-105060295D01*
X108908207Y-105060295D02*
X108908207Y-105203152D01*
X108908207Y-105203152D02*
X108860588Y-105298390D01*
X108860588Y-105298390D02*
X108812969Y-105346009D01*
X108812969Y-105346009D02*
X108717731Y-105393628D01*
X108717731Y-105393628D02*
X108336779Y-105393628D01*
X109717731Y-105822200D02*
X109622493Y-105869819D01*
X109622493Y-105869819D02*
X109432017Y-105869819D01*
X109432017Y-105869819D02*
X109336779Y-105822200D01*
X109336779Y-105822200D02*
X109289160Y-105726961D01*
X109289160Y-105726961D02*
X109289160Y-105346009D01*
X109289160Y-105346009D02*
X109336779Y-105250771D01*
X109336779Y-105250771D02*
X109432017Y-105203152D01*
X109432017Y-105203152D02*
X109622493Y-105203152D01*
X109622493Y-105203152D02*
X109717731Y-105250771D01*
X109717731Y-105250771D02*
X109765350Y-105346009D01*
X109765350Y-105346009D02*
X109765350Y-105441247D01*
X109765350Y-105441247D02*
X109289160Y-105536485D01*
X110098684Y-105203152D02*
X110336779Y-105869819D01*
X110336779Y-105869819D02*
X110574874Y-105203152D01*
X111908208Y-104869819D02*
X112003446Y-104869819D01*
X112003446Y-104869819D02*
X112098684Y-104917438D01*
X112098684Y-104917438D02*
X112146303Y-104965057D01*
X112146303Y-104965057D02*
X112193922Y-105060295D01*
X112193922Y-105060295D02*
X112241541Y-105250771D01*
X112241541Y-105250771D02*
X112241541Y-105488866D01*
X112241541Y-105488866D02*
X112193922Y-105679342D01*
X112193922Y-105679342D02*
X112146303Y-105774580D01*
X112146303Y-105774580D02*
X112098684Y-105822200D01*
X112098684Y-105822200D02*
X112003446Y-105869819D01*
X112003446Y-105869819D02*
X111908208Y-105869819D01*
X111908208Y-105869819D02*
X111812970Y-105822200D01*
X111812970Y-105822200D02*
X111765351Y-105774580D01*
X111765351Y-105774580D02*
X111717732Y-105679342D01*
X111717732Y-105679342D02*
X111670113Y-105488866D01*
X111670113Y-105488866D02*
X111670113Y-105250771D01*
X111670113Y-105250771D02*
X111717732Y-105060295D01*
X111717732Y-105060295D02*
X111765351Y-104965057D01*
X111765351Y-104965057D02*
X111812970Y-104917438D01*
X111812970Y-104917438D02*
X111908208Y-104869819D01*
X112670113Y-105774580D02*
X112717732Y-105822200D01*
X112717732Y-105822200D02*
X112670113Y-105869819D01*
X112670113Y-105869819D02*
X112622494Y-105822200D01*
X112622494Y-105822200D02*
X112670113Y-105774580D01*
X112670113Y-105774580D02*
X112670113Y-105869819D01*
X113670112Y-105869819D02*
X113098684Y-105869819D01*
X113384398Y-105869819D02*
X113384398Y-104869819D01*
X113384398Y-104869819D02*
X113289160Y-105012676D01*
X113289160Y-105012676D02*
X113193922Y-105107914D01*
X113193922Y-105107914D02*
X113098684Y-105155533D01*
X131369819Y-150413220D02*
X130369819Y-150413220D01*
X130369819Y-150413220D02*
X131084104Y-150079887D01*
X131084104Y-150079887D02*
X130369819Y-149746554D01*
X130369819Y-149746554D02*
X131369819Y-149746554D01*
X130369819Y-149079887D02*
X130369819Y-148889411D01*
X130369819Y-148889411D02*
X130417438Y-148794173D01*
X130417438Y-148794173D02*
X130512676Y-148698935D01*
X130512676Y-148698935D02*
X130703152Y-148651316D01*
X130703152Y-148651316D02*
X131036485Y-148651316D01*
X131036485Y-148651316D02*
X131226961Y-148698935D01*
X131226961Y-148698935D02*
X131322200Y-148794173D01*
X131322200Y-148794173D02*
X131369819Y-148889411D01*
X131369819Y-148889411D02*
X131369819Y-149079887D01*
X131369819Y-149079887D02*
X131322200Y-149175125D01*
X131322200Y-149175125D02*
X131226961Y-149270363D01*
X131226961Y-149270363D02*
X131036485Y-149317982D01*
X131036485Y-149317982D02*
X130703152Y-149317982D01*
X130703152Y-149317982D02*
X130512676Y-149270363D01*
X130512676Y-149270363D02*
X130417438Y-149175125D01*
X130417438Y-149175125D02*
X130369819Y-149079887D01*
X131369819Y-148222744D02*
X130369819Y-148222744D01*
X130369819Y-148222744D02*
X130369819Y-147984649D01*
X130369819Y-147984649D02*
X130417438Y-147841792D01*
X130417438Y-147841792D02*
X130512676Y-147746554D01*
X130512676Y-147746554D02*
X130607914Y-147698935D01*
X130607914Y-147698935D02*
X130798390Y-147651316D01*
X130798390Y-147651316D02*
X130941247Y-147651316D01*
X130941247Y-147651316D02*
X131131723Y-147698935D01*
X131131723Y-147698935D02*
X131226961Y-147746554D01*
X131226961Y-147746554D02*
X131322200Y-147841792D01*
X131322200Y-147841792D02*
X131369819Y-147984649D01*
X131369819Y-147984649D02*
X131369819Y-148222744D01*
X130846009Y-147222744D02*
X130846009Y-146889411D01*
X131369819Y-146746554D02*
X131369819Y-147222744D01*
X131369819Y-147222744D02*
X130369819Y-147222744D01*
X130369819Y-147222744D02*
X130369819Y-146746554D01*
X118336779Y-152274580D02*
X118384398Y-152322200D01*
X118384398Y-152322200D02*
X118336779Y-152369819D01*
X118336779Y-152369819D02*
X118289160Y-152322200D01*
X118289160Y-152322200D02*
X118336779Y-152274580D01*
X118336779Y-152274580D02*
X118336779Y-152369819D01*
X117296847Y-138241541D02*
X116630180Y-138479636D01*
X116630180Y-138479636D02*
X117296847Y-138717731D01*
X103258458Y-113296847D02*
X103020363Y-112630180D01*
X103020363Y-112630180D02*
X102782268Y-113296847D01*
X133258458Y-113296847D02*
X133020363Y-112630180D01*
X133020363Y-112630180D02*
X132782268Y-113296847D01*
X131954819Y-122181904D02*
X132764342Y-122181904D01*
X132764342Y-122181904D02*
X132859580Y-122134285D01*
X132859580Y-122134285D02*
X132907200Y-122086666D01*
X132907200Y-122086666D02*
X132954819Y-121991428D01*
X132954819Y-121991428D02*
X132954819Y-121800952D01*
X132954819Y-121800952D02*
X132907200Y-121705714D01*
X132907200Y-121705714D02*
X132859580Y-121658095D01*
X132859580Y-121658095D02*
X132764342Y-121610476D01*
X132764342Y-121610476D02*
X131954819Y-121610476D01*
X132050057Y-121181904D02*
X132002438Y-121134285D01*
X132002438Y-121134285D02*
X131954819Y-121039047D01*
X131954819Y-121039047D02*
X131954819Y-120800952D01*
X131954819Y-120800952D02*
X132002438Y-120705714D01*
X132002438Y-120705714D02*
X132050057Y-120658095D01*
X132050057Y-120658095D02*
X132145295Y-120610476D01*
X132145295Y-120610476D02*
X132240533Y-120610476D01*
X132240533Y-120610476D02*
X132383390Y-120658095D01*
X132383390Y-120658095D02*
X132954819Y-121229523D01*
X132954819Y-121229523D02*
X132954819Y-120610476D01*
X107624819Y-128156666D02*
X107148628Y-128489999D01*
X107624819Y-128728094D02*
X106624819Y-128728094D01*
X106624819Y-128728094D02*
X106624819Y-128347142D01*
X106624819Y-128347142D02*
X106672438Y-128251904D01*
X106672438Y-128251904D02*
X106720057Y-128204285D01*
X106720057Y-128204285D02*
X106815295Y-128156666D01*
X106815295Y-128156666D02*
X106958152Y-128156666D01*
X106958152Y-128156666D02*
X107053390Y-128204285D01*
X107053390Y-128204285D02*
X107101009Y-128251904D01*
X107101009Y-128251904D02*
X107148628Y-128347142D01*
X107148628Y-128347142D02*
X107148628Y-128728094D01*
X106624819Y-127823332D02*
X106624819Y-127204285D01*
X106624819Y-127204285D02*
X107005771Y-127537618D01*
X107005771Y-127537618D02*
X107005771Y-127394761D01*
X107005771Y-127394761D02*
X107053390Y-127299523D01*
X107053390Y-127299523D02*
X107101009Y-127251904D01*
X107101009Y-127251904D02*
X107196247Y-127204285D01*
X107196247Y-127204285D02*
X107434342Y-127204285D01*
X107434342Y-127204285D02*
X107529580Y-127251904D01*
X107529580Y-127251904D02*
X107577200Y-127299523D01*
X107577200Y-127299523D02*
X107624819Y-127394761D01*
X107624819Y-127394761D02*
X107624819Y-127680475D01*
X107624819Y-127680475D02*
X107577200Y-127775713D01*
X107577200Y-127775713D02*
X107529580Y-127823332D01*
X136204819Y-108261904D02*
X137014342Y-108261904D01*
X137014342Y-108261904D02*
X137109580Y-108214285D01*
X137109580Y-108214285D02*
X137157200Y-108166666D01*
X137157200Y-108166666D02*
X137204819Y-108071428D01*
X137204819Y-108071428D02*
X137204819Y-107880952D01*
X137204819Y-107880952D02*
X137157200Y-107785714D01*
X137157200Y-107785714D02*
X137109580Y-107738095D01*
X137109580Y-107738095D02*
X137014342Y-107690476D01*
X137014342Y-107690476D02*
X136204819Y-107690476D01*
X136204819Y-106785714D02*
X136204819Y-106976190D01*
X136204819Y-106976190D02*
X136252438Y-107071428D01*
X136252438Y-107071428D02*
X136300057Y-107119047D01*
X136300057Y-107119047D02*
X136442914Y-107214285D01*
X136442914Y-107214285D02*
X136633390Y-107261904D01*
X136633390Y-107261904D02*
X137014342Y-107261904D01*
X137014342Y-107261904D02*
X137109580Y-107214285D01*
X137109580Y-107214285D02*
X137157200Y-107166666D01*
X137157200Y-107166666D02*
X137204819Y-107071428D01*
X137204819Y-107071428D02*
X137204819Y-106880952D01*
X137204819Y-106880952D02*
X137157200Y-106785714D01*
X137157200Y-106785714D02*
X137109580Y-106738095D01*
X137109580Y-106738095D02*
X137014342Y-106690476D01*
X137014342Y-106690476D02*
X136776247Y-106690476D01*
X136776247Y-106690476D02*
X136681009Y-106738095D01*
X136681009Y-106738095D02*
X136633390Y-106785714D01*
X136633390Y-106785714D02*
X136585771Y-106880952D01*
X136585771Y-106880952D02*
X136585771Y-107071428D01*
X136585771Y-107071428D02*
X136633390Y-107166666D01*
X136633390Y-107166666D02*
X136681009Y-107214285D01*
X136681009Y-107214285D02*
X136776247Y-107261904D01*
X119204819Y-143892857D02*
X118728628Y-144226190D01*
X119204819Y-144464285D02*
X118204819Y-144464285D01*
X118204819Y-144464285D02*
X118204819Y-144083333D01*
X118204819Y-144083333D02*
X118252438Y-143988095D01*
X118252438Y-143988095D02*
X118300057Y-143940476D01*
X118300057Y-143940476D02*
X118395295Y-143892857D01*
X118395295Y-143892857D02*
X118538152Y-143892857D01*
X118538152Y-143892857D02*
X118633390Y-143940476D01*
X118633390Y-143940476D02*
X118681009Y-143988095D01*
X118681009Y-143988095D02*
X118728628Y-144083333D01*
X118728628Y-144083333D02*
X118728628Y-144464285D01*
X119204819Y-142940476D02*
X119204819Y-143511904D01*
X119204819Y-143226190D02*
X118204819Y-143226190D01*
X118204819Y-143226190D02*
X118347676Y-143321428D01*
X118347676Y-143321428D02*
X118442914Y-143416666D01*
X118442914Y-143416666D02*
X118490533Y-143511904D01*
X118204819Y-142035714D02*
X118204819Y-142511904D01*
X118204819Y-142511904D02*
X118681009Y-142559523D01*
X118681009Y-142559523D02*
X118633390Y-142511904D01*
X118633390Y-142511904D02*
X118585771Y-142416666D01*
X118585771Y-142416666D02*
X118585771Y-142178571D01*
X118585771Y-142178571D02*
X118633390Y-142083333D01*
X118633390Y-142083333D02*
X118681009Y-142035714D01*
X118681009Y-142035714D02*
X118776247Y-141988095D01*
X118776247Y-141988095D02*
X119014342Y-141988095D01*
X119014342Y-141988095D02*
X119109580Y-142035714D01*
X119109580Y-142035714D02*
X119157200Y-142083333D01*
X119157200Y-142083333D02*
X119204819Y-142178571D01*
X119204819Y-142178571D02*
X119204819Y-142416666D01*
X119204819Y-142416666D02*
X119157200Y-142511904D01*
X119157200Y-142511904D02*
X119109580Y-142559523D01*
X116354819Y-142261904D02*
X117164342Y-142261904D01*
X117164342Y-142261904D02*
X117259580Y-142214285D01*
X117259580Y-142214285D02*
X117307200Y-142166666D01*
X117307200Y-142166666D02*
X117354819Y-142071428D01*
X117354819Y-142071428D02*
X117354819Y-141880952D01*
X117354819Y-141880952D02*
X117307200Y-141785714D01*
X117307200Y-141785714D02*
X117259580Y-141738095D01*
X117259580Y-141738095D02*
X117164342Y-141690476D01*
X117164342Y-141690476D02*
X116354819Y-141690476D01*
X116354819Y-141309523D02*
X116354819Y-140642857D01*
X116354819Y-140642857D02*
X117354819Y-141071428D01*
X127083333Y-117204819D02*
X126750000Y-116728628D01*
X126511905Y-117204819D02*
X126511905Y-116204819D01*
X126511905Y-116204819D02*
X126892857Y-116204819D01*
X126892857Y-116204819D02*
X126988095Y-116252438D01*
X126988095Y-116252438D02*
X127035714Y-116300057D01*
X127035714Y-116300057D02*
X127083333Y-116395295D01*
X127083333Y-116395295D02*
X127083333Y-116538152D01*
X127083333Y-116538152D02*
X127035714Y-116633390D01*
X127035714Y-116633390D02*
X126988095Y-116681009D01*
X126988095Y-116681009D02*
X126892857Y-116728628D01*
X126892857Y-116728628D02*
X126511905Y-116728628D01*
X127559524Y-117204819D02*
X127750000Y-117204819D01*
X127750000Y-117204819D02*
X127845238Y-117157200D01*
X127845238Y-117157200D02*
X127892857Y-117109580D01*
X127892857Y-117109580D02*
X127988095Y-116966723D01*
X127988095Y-116966723D02*
X128035714Y-116776247D01*
X128035714Y-116776247D02*
X128035714Y-116395295D01*
X128035714Y-116395295D02*
X127988095Y-116300057D01*
X127988095Y-116300057D02*
X127940476Y-116252438D01*
X127940476Y-116252438D02*
X127845238Y-116204819D01*
X127845238Y-116204819D02*
X127654762Y-116204819D01*
X127654762Y-116204819D02*
X127559524Y-116252438D01*
X127559524Y-116252438D02*
X127511905Y-116300057D01*
X127511905Y-116300057D02*
X127464286Y-116395295D01*
X127464286Y-116395295D02*
X127464286Y-116633390D01*
X127464286Y-116633390D02*
X127511905Y-116728628D01*
X127511905Y-116728628D02*
X127559524Y-116776247D01*
X127559524Y-116776247D02*
X127654762Y-116823866D01*
X127654762Y-116823866D02*
X127845238Y-116823866D01*
X127845238Y-116823866D02*
X127940476Y-116776247D01*
X127940476Y-116776247D02*
X127988095Y-116728628D01*
X127988095Y-116728628D02*
X128035714Y-116633390D01*
X111954819Y-151238094D02*
X110954819Y-151238094D01*
X110954819Y-151238094D02*
X110954819Y-150999999D01*
X110954819Y-150999999D02*
X111002438Y-150857142D01*
X111002438Y-150857142D02*
X111097676Y-150761904D01*
X111097676Y-150761904D02*
X111192914Y-150714285D01*
X111192914Y-150714285D02*
X111383390Y-150666666D01*
X111383390Y-150666666D02*
X111526247Y-150666666D01*
X111526247Y-150666666D02*
X111716723Y-150714285D01*
X111716723Y-150714285D02*
X111811961Y-150761904D01*
X111811961Y-150761904D02*
X111907200Y-150857142D01*
X111907200Y-150857142D02*
X111954819Y-150999999D01*
X111954819Y-150999999D02*
X111954819Y-151238094D01*
X110954819Y-149761904D02*
X110954819Y-150238094D01*
X110954819Y-150238094D02*
X111431009Y-150285713D01*
X111431009Y-150285713D02*
X111383390Y-150238094D01*
X111383390Y-150238094D02*
X111335771Y-150142856D01*
X111335771Y-150142856D02*
X111335771Y-149904761D01*
X111335771Y-149904761D02*
X111383390Y-149809523D01*
X111383390Y-149809523D02*
X111431009Y-149761904D01*
X111431009Y-149761904D02*
X111526247Y-149714285D01*
X111526247Y-149714285D02*
X111764342Y-149714285D01*
X111764342Y-149714285D02*
X111859580Y-149761904D01*
X111859580Y-149761904D02*
X111907200Y-149809523D01*
X111907200Y-149809523D02*
X111954819Y-149904761D01*
X111954819Y-149904761D02*
X111954819Y-150142856D01*
X111954819Y-150142856D02*
X111907200Y-150238094D01*
X111907200Y-150238094D02*
X111859580Y-150285713D01*
X110083333Y-137359580D02*
X110035714Y-137407200D01*
X110035714Y-137407200D02*
X109892857Y-137454819D01*
X109892857Y-137454819D02*
X109797619Y-137454819D01*
X109797619Y-137454819D02*
X109654762Y-137407200D01*
X109654762Y-137407200D02*
X109559524Y-137311961D01*
X109559524Y-137311961D02*
X109511905Y-137216723D01*
X109511905Y-137216723D02*
X109464286Y-137026247D01*
X109464286Y-137026247D02*
X109464286Y-136883390D01*
X109464286Y-136883390D02*
X109511905Y-136692914D01*
X109511905Y-136692914D02*
X109559524Y-136597676D01*
X109559524Y-136597676D02*
X109654762Y-136502438D01*
X109654762Y-136502438D02*
X109797619Y-136454819D01*
X109797619Y-136454819D02*
X109892857Y-136454819D01*
X109892857Y-136454819D02*
X110035714Y-136502438D01*
X110035714Y-136502438D02*
X110083333Y-136550057D01*
X110416667Y-136454819D02*
X111083333Y-136454819D01*
X111083333Y-136454819D02*
X110654762Y-137454819D01*
X107854819Y-142261904D02*
X108664342Y-142261904D01*
X108664342Y-142261904D02*
X108759580Y-142214285D01*
X108759580Y-142214285D02*
X108807200Y-142166666D01*
X108807200Y-142166666D02*
X108854819Y-142071428D01*
X108854819Y-142071428D02*
X108854819Y-141880952D01*
X108854819Y-141880952D02*
X108807200Y-141785714D01*
X108807200Y-141785714D02*
X108759580Y-141738095D01*
X108759580Y-141738095D02*
X108664342Y-141690476D01*
X108664342Y-141690476D02*
X107854819Y-141690476D01*
X108283390Y-141071428D02*
X108235771Y-141166666D01*
X108235771Y-141166666D02*
X108188152Y-141214285D01*
X108188152Y-141214285D02*
X108092914Y-141261904D01*
X108092914Y-141261904D02*
X108045295Y-141261904D01*
X108045295Y-141261904D02*
X107950057Y-141214285D01*
X107950057Y-141214285D02*
X107902438Y-141166666D01*
X107902438Y-141166666D02*
X107854819Y-141071428D01*
X107854819Y-141071428D02*
X107854819Y-140880952D01*
X107854819Y-140880952D02*
X107902438Y-140785714D01*
X107902438Y-140785714D02*
X107950057Y-140738095D01*
X107950057Y-140738095D02*
X108045295Y-140690476D01*
X108045295Y-140690476D02*
X108092914Y-140690476D01*
X108092914Y-140690476D02*
X108188152Y-140738095D01*
X108188152Y-140738095D02*
X108235771Y-140785714D01*
X108235771Y-140785714D02*
X108283390Y-140880952D01*
X108283390Y-140880952D02*
X108283390Y-141071428D01*
X108283390Y-141071428D02*
X108331009Y-141166666D01*
X108331009Y-141166666D02*
X108378628Y-141214285D01*
X108378628Y-141214285D02*
X108473866Y-141261904D01*
X108473866Y-141261904D02*
X108664342Y-141261904D01*
X108664342Y-141261904D02*
X108759580Y-141214285D01*
X108759580Y-141214285D02*
X108807200Y-141166666D01*
X108807200Y-141166666D02*
X108854819Y-141071428D01*
X108854819Y-141071428D02*
X108854819Y-140880952D01*
X108854819Y-140880952D02*
X108807200Y-140785714D01*
X108807200Y-140785714D02*
X108759580Y-140738095D01*
X108759580Y-140738095D02*
X108664342Y-140690476D01*
X108664342Y-140690476D02*
X108473866Y-140690476D01*
X108473866Y-140690476D02*
X108378628Y-140738095D01*
X108378628Y-140738095D02*
X108331009Y-140785714D01*
X108331009Y-140785714D02*
X108283390Y-140880952D01*
X128859580Y-130916666D02*
X128907200Y-130964285D01*
X128907200Y-130964285D02*
X128954819Y-131107142D01*
X128954819Y-131107142D02*
X128954819Y-131202380D01*
X128954819Y-131202380D02*
X128907200Y-131345237D01*
X128907200Y-131345237D02*
X128811961Y-131440475D01*
X128811961Y-131440475D02*
X128716723Y-131488094D01*
X128716723Y-131488094D02*
X128526247Y-131535713D01*
X128526247Y-131535713D02*
X128383390Y-131535713D01*
X128383390Y-131535713D02*
X128192914Y-131488094D01*
X128192914Y-131488094D02*
X128097676Y-131440475D01*
X128097676Y-131440475D02*
X128002438Y-131345237D01*
X128002438Y-131345237D02*
X127954819Y-131202380D01*
X127954819Y-131202380D02*
X127954819Y-131107142D01*
X127954819Y-131107142D02*
X128002438Y-130964285D01*
X128002438Y-130964285D02*
X128050057Y-130916666D01*
X128050057Y-130535713D02*
X128002438Y-130488094D01*
X128002438Y-130488094D02*
X127954819Y-130392856D01*
X127954819Y-130392856D02*
X127954819Y-130154761D01*
X127954819Y-130154761D02*
X128002438Y-130059523D01*
X128002438Y-130059523D02*
X128050057Y-130011904D01*
X128050057Y-130011904D02*
X128145295Y-129964285D01*
X128145295Y-129964285D02*
X128240533Y-129964285D01*
X128240533Y-129964285D02*
X128383390Y-130011904D01*
X128383390Y-130011904D02*
X128954819Y-130583332D01*
X128954819Y-130583332D02*
X128954819Y-129964285D01*
X121454819Y-143892857D02*
X120978628Y-144226190D01*
X121454819Y-144464285D02*
X120454819Y-144464285D01*
X120454819Y-144464285D02*
X120454819Y-144083333D01*
X120454819Y-144083333D02*
X120502438Y-143988095D01*
X120502438Y-143988095D02*
X120550057Y-143940476D01*
X120550057Y-143940476D02*
X120645295Y-143892857D01*
X120645295Y-143892857D02*
X120788152Y-143892857D01*
X120788152Y-143892857D02*
X120883390Y-143940476D01*
X120883390Y-143940476D02*
X120931009Y-143988095D01*
X120931009Y-143988095D02*
X120978628Y-144083333D01*
X120978628Y-144083333D02*
X120978628Y-144464285D01*
X121454819Y-142940476D02*
X121454819Y-143511904D01*
X121454819Y-143226190D02*
X120454819Y-143226190D01*
X120454819Y-143226190D02*
X120597676Y-143321428D01*
X120597676Y-143321428D02*
X120692914Y-143416666D01*
X120692914Y-143416666D02*
X120740533Y-143511904D01*
X120788152Y-142083333D02*
X121454819Y-142083333D01*
X120407200Y-142321428D02*
X121121485Y-142559523D01*
X121121485Y-142559523D02*
X121121485Y-141940476D01*
X121704819Y-153261904D02*
X122514342Y-153261904D01*
X122514342Y-153261904D02*
X122609580Y-153214285D01*
X122609580Y-153214285D02*
X122657200Y-153166666D01*
X122657200Y-153166666D02*
X122704819Y-153071428D01*
X122704819Y-153071428D02*
X122704819Y-152880952D01*
X122704819Y-152880952D02*
X122657200Y-152785714D01*
X122657200Y-152785714D02*
X122609580Y-152738095D01*
X122609580Y-152738095D02*
X122514342Y-152690476D01*
X122514342Y-152690476D02*
X121704819Y-152690476D01*
X122704819Y-151690476D02*
X122704819Y-152261904D01*
X122704819Y-151976190D02*
X121704819Y-151976190D01*
X121704819Y-151976190D02*
X121847676Y-152071428D01*
X121847676Y-152071428D02*
X121942914Y-152166666D01*
X121942914Y-152166666D02*
X121990533Y-152261904D01*
X101333333Y-137109580D02*
X101285714Y-137157200D01*
X101285714Y-137157200D02*
X101142857Y-137204819D01*
X101142857Y-137204819D02*
X101047619Y-137204819D01*
X101047619Y-137204819D02*
X100904762Y-137157200D01*
X100904762Y-137157200D02*
X100809524Y-137061961D01*
X100809524Y-137061961D02*
X100761905Y-136966723D01*
X100761905Y-136966723D02*
X100714286Y-136776247D01*
X100714286Y-136776247D02*
X100714286Y-136633390D01*
X100714286Y-136633390D02*
X100761905Y-136442914D01*
X100761905Y-136442914D02*
X100809524Y-136347676D01*
X100809524Y-136347676D02*
X100904762Y-136252438D01*
X100904762Y-136252438D02*
X101047619Y-136204819D01*
X101047619Y-136204819D02*
X101142857Y-136204819D01*
X101142857Y-136204819D02*
X101285714Y-136252438D01*
X101285714Y-136252438D02*
X101333333Y-136300057D01*
X101904762Y-136633390D02*
X101809524Y-136585771D01*
X101809524Y-136585771D02*
X101761905Y-136538152D01*
X101761905Y-136538152D02*
X101714286Y-136442914D01*
X101714286Y-136442914D02*
X101714286Y-136395295D01*
X101714286Y-136395295D02*
X101761905Y-136300057D01*
X101761905Y-136300057D02*
X101809524Y-136252438D01*
X101809524Y-136252438D02*
X101904762Y-136204819D01*
X101904762Y-136204819D02*
X102095238Y-136204819D01*
X102095238Y-136204819D02*
X102190476Y-136252438D01*
X102190476Y-136252438D02*
X102238095Y-136300057D01*
X102238095Y-136300057D02*
X102285714Y-136395295D01*
X102285714Y-136395295D02*
X102285714Y-136442914D01*
X102285714Y-136442914D02*
X102238095Y-136538152D01*
X102238095Y-136538152D02*
X102190476Y-136585771D01*
X102190476Y-136585771D02*
X102095238Y-136633390D01*
X102095238Y-136633390D02*
X101904762Y-136633390D01*
X101904762Y-136633390D02*
X101809524Y-136681009D01*
X101809524Y-136681009D02*
X101761905Y-136728628D01*
X101761905Y-136728628D02*
X101714286Y-136823866D01*
X101714286Y-136823866D02*
X101714286Y-137014342D01*
X101714286Y-137014342D02*
X101761905Y-137109580D01*
X101761905Y-137109580D02*
X101809524Y-137157200D01*
X101809524Y-137157200D02*
X101904762Y-137204819D01*
X101904762Y-137204819D02*
X102095238Y-137204819D01*
X102095238Y-137204819D02*
X102190476Y-137157200D01*
X102190476Y-137157200D02*
X102238095Y-137109580D01*
X102238095Y-137109580D02*
X102285714Y-137014342D01*
X102285714Y-137014342D02*
X102285714Y-136823866D01*
X102285714Y-136823866D02*
X102238095Y-136728628D01*
X102238095Y-136728628D02*
X102190476Y-136681009D01*
X102190476Y-136681009D02*
X102095238Y-136633390D01*
X131954819Y-106166666D02*
X131478628Y-106499999D01*
X131954819Y-106738094D02*
X130954819Y-106738094D01*
X130954819Y-106738094D02*
X130954819Y-106357142D01*
X130954819Y-106357142D02*
X131002438Y-106261904D01*
X131002438Y-106261904D02*
X131050057Y-106214285D01*
X131050057Y-106214285D02*
X131145295Y-106166666D01*
X131145295Y-106166666D02*
X131288152Y-106166666D01*
X131288152Y-106166666D02*
X131383390Y-106214285D01*
X131383390Y-106214285D02*
X131431009Y-106261904D01*
X131431009Y-106261904D02*
X131478628Y-106357142D01*
X131478628Y-106357142D02*
X131478628Y-106738094D01*
X131383390Y-105595237D02*
X131335771Y-105690475D01*
X131335771Y-105690475D02*
X131288152Y-105738094D01*
X131288152Y-105738094D02*
X131192914Y-105785713D01*
X131192914Y-105785713D02*
X131145295Y-105785713D01*
X131145295Y-105785713D02*
X131050057Y-105738094D01*
X131050057Y-105738094D02*
X131002438Y-105690475D01*
X131002438Y-105690475D02*
X130954819Y-105595237D01*
X130954819Y-105595237D02*
X130954819Y-105404761D01*
X130954819Y-105404761D02*
X131002438Y-105309523D01*
X131002438Y-105309523D02*
X131050057Y-105261904D01*
X131050057Y-105261904D02*
X131145295Y-105214285D01*
X131145295Y-105214285D02*
X131192914Y-105214285D01*
X131192914Y-105214285D02*
X131288152Y-105261904D01*
X131288152Y-105261904D02*
X131335771Y-105309523D01*
X131335771Y-105309523D02*
X131383390Y-105404761D01*
X131383390Y-105404761D02*
X131383390Y-105595237D01*
X131383390Y-105595237D02*
X131431009Y-105690475D01*
X131431009Y-105690475D02*
X131478628Y-105738094D01*
X131478628Y-105738094D02*
X131573866Y-105785713D01*
X131573866Y-105785713D02*
X131764342Y-105785713D01*
X131764342Y-105785713D02*
X131859580Y-105738094D01*
X131859580Y-105738094D02*
X131907200Y-105690475D01*
X131907200Y-105690475D02*
X131954819Y-105595237D01*
X131954819Y-105595237D02*
X131954819Y-105404761D01*
X131954819Y-105404761D02*
X131907200Y-105309523D01*
X131907200Y-105309523D02*
X131859580Y-105261904D01*
X131859580Y-105261904D02*
X131764342Y-105214285D01*
X131764342Y-105214285D02*
X131573866Y-105214285D01*
X131573866Y-105214285D02*
X131478628Y-105261904D01*
X131478628Y-105261904D02*
X131431009Y-105309523D01*
X131431009Y-105309523D02*
X131383390Y-105404761D01*
X129907200Y-150433332D02*
X129954819Y-150290475D01*
X129954819Y-150290475D02*
X129954819Y-150052380D01*
X129954819Y-150052380D02*
X129907200Y-149957142D01*
X129907200Y-149957142D02*
X129859580Y-149909523D01*
X129859580Y-149909523D02*
X129764342Y-149861904D01*
X129764342Y-149861904D02*
X129669104Y-149861904D01*
X129669104Y-149861904D02*
X129573866Y-149909523D01*
X129573866Y-149909523D02*
X129526247Y-149957142D01*
X129526247Y-149957142D02*
X129478628Y-150052380D01*
X129478628Y-150052380D02*
X129431009Y-150242856D01*
X129431009Y-150242856D02*
X129383390Y-150338094D01*
X129383390Y-150338094D02*
X129335771Y-150385713D01*
X129335771Y-150385713D02*
X129240533Y-150433332D01*
X129240533Y-150433332D02*
X129145295Y-150433332D01*
X129145295Y-150433332D02*
X129050057Y-150385713D01*
X129050057Y-150385713D02*
X129002438Y-150338094D01*
X129002438Y-150338094D02*
X128954819Y-150242856D01*
X128954819Y-150242856D02*
X128954819Y-150004761D01*
X128954819Y-150004761D02*
X129002438Y-149861904D01*
X128954819Y-149528570D02*
X129954819Y-149290475D01*
X129954819Y-149290475D02*
X129240533Y-149099999D01*
X129240533Y-149099999D02*
X129954819Y-148909523D01*
X129954819Y-148909523D02*
X128954819Y-148671428D01*
X129954819Y-147766666D02*
X129954819Y-148338094D01*
X129954819Y-148052380D02*
X128954819Y-148052380D01*
X128954819Y-148052380D02*
X129097676Y-148147618D01*
X129097676Y-148147618D02*
X129192914Y-148242856D01*
X129192914Y-148242856D02*
X129240533Y-148338094D01*
X128166666Y-133454819D02*
X128166666Y-134169104D01*
X128166666Y-134169104D02*
X128119047Y-134311961D01*
X128119047Y-134311961D02*
X128023809Y-134407200D01*
X128023809Y-134407200D02*
X127880952Y-134454819D01*
X127880952Y-134454819D02*
X127785714Y-134454819D01*
X128642857Y-134454819D02*
X128642857Y-133454819D01*
X128642857Y-133454819D02*
X129023809Y-133454819D01*
X129023809Y-133454819D02*
X129119047Y-133502438D01*
X129119047Y-133502438D02*
X129166666Y-133550057D01*
X129166666Y-133550057D02*
X129214285Y-133645295D01*
X129214285Y-133645295D02*
X129214285Y-133788152D01*
X129214285Y-133788152D02*
X129166666Y-133883390D01*
X129166666Y-133883390D02*
X129119047Y-133931009D01*
X129119047Y-133931009D02*
X129023809Y-133978628D01*
X129023809Y-133978628D02*
X128642857Y-133978628D01*
X130166666Y-134454819D02*
X129595238Y-134454819D01*
X129880952Y-134454819D02*
X129880952Y-133454819D01*
X129880952Y-133454819D02*
X129785714Y-133597676D01*
X129785714Y-133597676D02*
X129690476Y-133692914D01*
X129690476Y-133692914D02*
X129595238Y-133740533D01*
X107624819Y-122156666D02*
X107148628Y-122489999D01*
X107624819Y-122728094D02*
X106624819Y-122728094D01*
X106624819Y-122728094D02*
X106624819Y-122347142D01*
X106624819Y-122347142D02*
X106672438Y-122251904D01*
X106672438Y-122251904D02*
X106720057Y-122204285D01*
X106720057Y-122204285D02*
X106815295Y-122156666D01*
X106815295Y-122156666D02*
X106958152Y-122156666D01*
X106958152Y-122156666D02*
X107053390Y-122204285D01*
X107053390Y-122204285D02*
X107101009Y-122251904D01*
X107101009Y-122251904D02*
X107148628Y-122347142D01*
X107148628Y-122347142D02*
X107148628Y-122728094D01*
X106958152Y-121299523D02*
X107624819Y-121299523D01*
X106577200Y-121537618D02*
X107291485Y-121775713D01*
X107291485Y-121775713D02*
X107291485Y-121156666D01*
X128699580Y-108666666D02*
X128747200Y-108714285D01*
X128747200Y-108714285D02*
X128794819Y-108857142D01*
X128794819Y-108857142D02*
X128794819Y-108952380D01*
X128794819Y-108952380D02*
X128747200Y-109095237D01*
X128747200Y-109095237D02*
X128651961Y-109190475D01*
X128651961Y-109190475D02*
X128556723Y-109238094D01*
X128556723Y-109238094D02*
X128366247Y-109285713D01*
X128366247Y-109285713D02*
X128223390Y-109285713D01*
X128223390Y-109285713D02*
X128032914Y-109238094D01*
X128032914Y-109238094D02*
X127937676Y-109190475D01*
X127937676Y-109190475D02*
X127842438Y-109095237D01*
X127842438Y-109095237D02*
X127794819Y-108952380D01*
X127794819Y-108952380D02*
X127794819Y-108857142D01*
X127794819Y-108857142D02*
X127842438Y-108714285D01*
X127842438Y-108714285D02*
X127890057Y-108666666D01*
X128128152Y-107809523D02*
X128794819Y-107809523D01*
X127747200Y-108047618D02*
X128461485Y-108285713D01*
X128461485Y-108285713D02*
X128461485Y-107666666D01*
X127107142Y-115954819D02*
X126773809Y-115478628D01*
X126535714Y-115954819D02*
X126535714Y-114954819D01*
X126535714Y-114954819D02*
X126916666Y-114954819D01*
X126916666Y-114954819D02*
X127011904Y-115002438D01*
X127011904Y-115002438D02*
X127059523Y-115050057D01*
X127059523Y-115050057D02*
X127107142Y-115145295D01*
X127107142Y-115145295D02*
X127107142Y-115288152D01*
X127107142Y-115288152D02*
X127059523Y-115383390D01*
X127059523Y-115383390D02*
X127011904Y-115431009D01*
X127011904Y-115431009D02*
X126916666Y-115478628D01*
X126916666Y-115478628D02*
X126535714Y-115478628D01*
X128059523Y-115954819D02*
X127488095Y-115954819D01*
X127773809Y-115954819D02*
X127773809Y-114954819D01*
X127773809Y-114954819D02*
X127678571Y-115097676D01*
X127678571Y-115097676D02*
X127583333Y-115192914D01*
X127583333Y-115192914D02*
X127488095Y-115240533D01*
X129011904Y-115954819D02*
X128440476Y-115954819D01*
X128726190Y-115954819D02*
X128726190Y-114954819D01*
X128726190Y-114954819D02*
X128630952Y-115097676D01*
X128630952Y-115097676D02*
X128535714Y-115192914D01*
X128535714Y-115192914D02*
X128440476Y-115240533D01*
X122954819Y-144666666D02*
X122478628Y-144999999D01*
X122954819Y-145238094D02*
X121954819Y-145238094D01*
X121954819Y-145238094D02*
X121954819Y-144857142D01*
X121954819Y-144857142D02*
X122002438Y-144761904D01*
X122002438Y-144761904D02*
X122050057Y-144714285D01*
X122050057Y-144714285D02*
X122145295Y-144666666D01*
X122145295Y-144666666D02*
X122288152Y-144666666D01*
X122288152Y-144666666D02*
X122383390Y-144714285D01*
X122383390Y-144714285D02*
X122431009Y-144761904D01*
X122431009Y-144761904D02*
X122478628Y-144857142D01*
X122478628Y-144857142D02*
X122478628Y-145238094D01*
X122954819Y-143714285D02*
X122954819Y-144285713D01*
X122954819Y-143999999D02*
X121954819Y-143999999D01*
X121954819Y-143999999D02*
X122097676Y-144095237D01*
X122097676Y-144095237D02*
X122192914Y-144190475D01*
X122192914Y-144190475D02*
X122240533Y-144285713D01*
X120166666Y-133454819D02*
X120166666Y-134169104D01*
X120166666Y-134169104D02*
X120119047Y-134311961D01*
X120119047Y-134311961D02*
X120023809Y-134407200D01*
X120023809Y-134407200D02*
X119880952Y-134454819D01*
X119880952Y-134454819D02*
X119785714Y-134454819D01*
X120642857Y-134454819D02*
X120642857Y-133454819D01*
X120642857Y-133454819D02*
X121023809Y-133454819D01*
X121023809Y-133454819D02*
X121119047Y-133502438D01*
X121119047Y-133502438D02*
X121166666Y-133550057D01*
X121166666Y-133550057D02*
X121214285Y-133645295D01*
X121214285Y-133645295D02*
X121214285Y-133788152D01*
X121214285Y-133788152D02*
X121166666Y-133883390D01*
X121166666Y-133883390D02*
X121119047Y-133931009D01*
X121119047Y-133931009D02*
X121023809Y-133978628D01*
X121023809Y-133978628D02*
X120642857Y-133978628D01*
X121595238Y-133550057D02*
X121642857Y-133502438D01*
X121642857Y-133502438D02*
X121738095Y-133454819D01*
X121738095Y-133454819D02*
X121976190Y-133454819D01*
X121976190Y-133454819D02*
X122071428Y-133502438D01*
X122071428Y-133502438D02*
X122119047Y-133550057D01*
X122119047Y-133550057D02*
X122166666Y-133645295D01*
X122166666Y-133645295D02*
X122166666Y-133740533D01*
X122166666Y-133740533D02*
X122119047Y-133883390D01*
X122119047Y-133883390D02*
X121547619Y-134454819D01*
X121547619Y-134454819D02*
X122166666Y-134454819D01*
X116704819Y-106166666D02*
X116228628Y-106499999D01*
X116704819Y-106738094D02*
X115704819Y-106738094D01*
X115704819Y-106738094D02*
X115704819Y-106357142D01*
X115704819Y-106357142D02*
X115752438Y-106261904D01*
X115752438Y-106261904D02*
X115800057Y-106214285D01*
X115800057Y-106214285D02*
X115895295Y-106166666D01*
X115895295Y-106166666D02*
X116038152Y-106166666D01*
X116038152Y-106166666D02*
X116133390Y-106214285D01*
X116133390Y-106214285D02*
X116181009Y-106261904D01*
X116181009Y-106261904D02*
X116228628Y-106357142D01*
X116228628Y-106357142D02*
X116228628Y-106738094D01*
X115704819Y-105833332D02*
X115704819Y-105166666D01*
X115704819Y-105166666D02*
X116704819Y-105595237D01*
X121204819Y-108261904D02*
X122014342Y-108261904D01*
X122014342Y-108261904D02*
X122109580Y-108214285D01*
X122109580Y-108214285D02*
X122157200Y-108166666D01*
X122157200Y-108166666D02*
X122204819Y-108071428D01*
X122204819Y-108071428D02*
X122204819Y-107880952D01*
X122204819Y-107880952D02*
X122157200Y-107785714D01*
X122157200Y-107785714D02*
X122109580Y-107738095D01*
X122109580Y-107738095D02*
X122014342Y-107690476D01*
X122014342Y-107690476D02*
X121204819Y-107690476D01*
X121204819Y-106738095D02*
X121204819Y-107214285D01*
X121204819Y-107214285D02*
X121681009Y-107261904D01*
X121681009Y-107261904D02*
X121633390Y-107214285D01*
X121633390Y-107214285D02*
X121585771Y-107119047D01*
X121585771Y-107119047D02*
X121585771Y-106880952D01*
X121585771Y-106880952D02*
X121633390Y-106785714D01*
X121633390Y-106785714D02*
X121681009Y-106738095D01*
X121681009Y-106738095D02*
X121776247Y-106690476D01*
X121776247Y-106690476D02*
X122014342Y-106690476D01*
X122014342Y-106690476D02*
X122109580Y-106738095D01*
X122109580Y-106738095D02*
X122157200Y-106785714D01*
X122157200Y-106785714D02*
X122204819Y-106880952D01*
X122204819Y-106880952D02*
X122204819Y-107119047D01*
X122204819Y-107119047D02*
X122157200Y-107214285D01*
X122157200Y-107214285D02*
X122109580Y-107261904D01*
X124166666Y-160454819D02*
X124166666Y-161169104D01*
X124166666Y-161169104D02*
X124119047Y-161311961D01*
X124119047Y-161311961D02*
X124023809Y-161407200D01*
X124023809Y-161407200D02*
X123880952Y-161454819D01*
X123880952Y-161454819D02*
X123785714Y-161454819D01*
X125071428Y-160788152D02*
X125071428Y-161454819D01*
X124833333Y-160407200D02*
X124595238Y-161121485D01*
X124595238Y-161121485D02*
X125214285Y-161121485D01*
X106204819Y-108261904D02*
X107014342Y-108261904D01*
X107014342Y-108261904D02*
X107109580Y-108214285D01*
X107109580Y-108214285D02*
X107157200Y-108166666D01*
X107157200Y-108166666D02*
X107204819Y-108071428D01*
X107204819Y-108071428D02*
X107204819Y-107880952D01*
X107204819Y-107880952D02*
X107157200Y-107785714D01*
X107157200Y-107785714D02*
X107109580Y-107738095D01*
X107109580Y-107738095D02*
X107014342Y-107690476D01*
X107014342Y-107690476D02*
X106204819Y-107690476D01*
X106538152Y-106785714D02*
X107204819Y-106785714D01*
X106157200Y-107023809D02*
X106871485Y-107261904D01*
X106871485Y-107261904D02*
X106871485Y-106642857D01*
X137204819Y-110666666D02*
X136728628Y-110999999D01*
X137204819Y-111238094D02*
X136204819Y-111238094D01*
X136204819Y-111238094D02*
X136204819Y-110857142D01*
X136204819Y-110857142D02*
X136252438Y-110761904D01*
X136252438Y-110761904D02*
X136300057Y-110714285D01*
X136300057Y-110714285D02*
X136395295Y-110666666D01*
X136395295Y-110666666D02*
X136538152Y-110666666D01*
X136538152Y-110666666D02*
X136633390Y-110714285D01*
X136633390Y-110714285D02*
X136681009Y-110761904D01*
X136681009Y-110761904D02*
X136728628Y-110857142D01*
X136728628Y-110857142D02*
X136728628Y-111238094D01*
X136300057Y-110285713D02*
X136252438Y-110238094D01*
X136252438Y-110238094D02*
X136204819Y-110142856D01*
X136204819Y-110142856D02*
X136204819Y-109904761D01*
X136204819Y-109904761D02*
X136252438Y-109809523D01*
X136252438Y-109809523D02*
X136300057Y-109761904D01*
X136300057Y-109761904D02*
X136395295Y-109714285D01*
X136395295Y-109714285D02*
X136490533Y-109714285D01*
X136490533Y-109714285D02*
X136633390Y-109761904D01*
X136633390Y-109761904D02*
X137204819Y-110333332D01*
X137204819Y-110333332D02*
X137204819Y-109714285D01*
X127107142Y-114704819D02*
X126773809Y-114228628D01*
X126535714Y-114704819D02*
X126535714Y-113704819D01*
X126535714Y-113704819D02*
X126916666Y-113704819D01*
X126916666Y-113704819D02*
X127011904Y-113752438D01*
X127011904Y-113752438D02*
X127059523Y-113800057D01*
X127059523Y-113800057D02*
X127107142Y-113895295D01*
X127107142Y-113895295D02*
X127107142Y-114038152D01*
X127107142Y-114038152D02*
X127059523Y-114133390D01*
X127059523Y-114133390D02*
X127011904Y-114181009D01*
X127011904Y-114181009D02*
X126916666Y-114228628D01*
X126916666Y-114228628D02*
X126535714Y-114228628D01*
X128059523Y-114704819D02*
X127488095Y-114704819D01*
X127773809Y-114704819D02*
X127773809Y-113704819D01*
X127773809Y-113704819D02*
X127678571Y-113847676D01*
X127678571Y-113847676D02*
X127583333Y-113942914D01*
X127583333Y-113942914D02*
X127488095Y-113990533D01*
X128678571Y-113704819D02*
X128773809Y-113704819D01*
X128773809Y-113704819D02*
X128869047Y-113752438D01*
X128869047Y-113752438D02*
X128916666Y-113800057D01*
X128916666Y-113800057D02*
X128964285Y-113895295D01*
X128964285Y-113895295D02*
X129011904Y-114085771D01*
X129011904Y-114085771D02*
X129011904Y-114323866D01*
X129011904Y-114323866D02*
X128964285Y-114514342D01*
X128964285Y-114514342D02*
X128916666Y-114609580D01*
X128916666Y-114609580D02*
X128869047Y-114657200D01*
X128869047Y-114657200D02*
X128773809Y-114704819D01*
X128773809Y-114704819D02*
X128678571Y-114704819D01*
X128678571Y-114704819D02*
X128583333Y-114657200D01*
X128583333Y-114657200D02*
X128535714Y-114609580D01*
X128535714Y-114609580D02*
X128488095Y-114514342D01*
X128488095Y-114514342D02*
X128440476Y-114323866D01*
X128440476Y-114323866D02*
X128440476Y-114085771D01*
X128440476Y-114085771D02*
X128488095Y-113895295D01*
X128488095Y-113895295D02*
X128535714Y-113800057D01*
X128535714Y-113800057D02*
X128583333Y-113752438D01*
X128583333Y-113752438D02*
X128678571Y-113704819D01*
X107624819Y-116156666D02*
X107148628Y-116489999D01*
X107624819Y-116728094D02*
X106624819Y-116728094D01*
X106624819Y-116728094D02*
X106624819Y-116347142D01*
X106624819Y-116347142D02*
X106672438Y-116251904D01*
X106672438Y-116251904D02*
X106720057Y-116204285D01*
X106720057Y-116204285D02*
X106815295Y-116156666D01*
X106815295Y-116156666D02*
X106958152Y-116156666D01*
X106958152Y-116156666D02*
X107053390Y-116204285D01*
X107053390Y-116204285D02*
X107101009Y-116251904D01*
X107101009Y-116251904D02*
X107148628Y-116347142D01*
X107148628Y-116347142D02*
X107148628Y-116728094D01*
X106624819Y-115251904D02*
X106624819Y-115728094D01*
X106624819Y-115728094D02*
X107101009Y-115775713D01*
X107101009Y-115775713D02*
X107053390Y-115728094D01*
X107053390Y-115728094D02*
X107005771Y-115632856D01*
X107005771Y-115632856D02*
X107005771Y-115394761D01*
X107005771Y-115394761D02*
X107053390Y-115299523D01*
X107053390Y-115299523D02*
X107101009Y-115251904D01*
X107101009Y-115251904D02*
X107196247Y-115204285D01*
X107196247Y-115204285D02*
X107434342Y-115204285D01*
X107434342Y-115204285D02*
X107529580Y-115251904D01*
X107529580Y-115251904D02*
X107577200Y-115299523D01*
X107577200Y-115299523D02*
X107624819Y-115394761D01*
X107624819Y-115394761D02*
X107624819Y-115632856D01*
X107624819Y-115632856D02*
X107577200Y-115728094D01*
X107577200Y-115728094D02*
X107529580Y-115775713D01*
X101704819Y-106166666D02*
X101228628Y-106499999D01*
X101704819Y-106738094D02*
X100704819Y-106738094D01*
X100704819Y-106738094D02*
X100704819Y-106357142D01*
X100704819Y-106357142D02*
X100752438Y-106261904D01*
X100752438Y-106261904D02*
X100800057Y-106214285D01*
X100800057Y-106214285D02*
X100895295Y-106166666D01*
X100895295Y-106166666D02*
X101038152Y-106166666D01*
X101038152Y-106166666D02*
X101133390Y-106214285D01*
X101133390Y-106214285D02*
X101181009Y-106261904D01*
X101181009Y-106261904D02*
X101228628Y-106357142D01*
X101228628Y-106357142D02*
X101228628Y-106738094D01*
X100704819Y-105309523D02*
X100704819Y-105499999D01*
X100704819Y-105499999D02*
X100752438Y-105595237D01*
X100752438Y-105595237D02*
X100800057Y-105642856D01*
X100800057Y-105642856D02*
X100942914Y-105738094D01*
X100942914Y-105738094D02*
X101133390Y-105785713D01*
X101133390Y-105785713D02*
X101514342Y-105785713D01*
X101514342Y-105785713D02*
X101609580Y-105738094D01*
X101609580Y-105738094D02*
X101657200Y-105690475D01*
X101657200Y-105690475D02*
X101704819Y-105595237D01*
X101704819Y-105595237D02*
X101704819Y-105404761D01*
X101704819Y-105404761D02*
X101657200Y-105309523D01*
X101657200Y-105309523D02*
X101609580Y-105261904D01*
X101609580Y-105261904D02*
X101514342Y-105214285D01*
X101514342Y-105214285D02*
X101276247Y-105214285D01*
X101276247Y-105214285D02*
X101181009Y-105261904D01*
X101181009Y-105261904D02*
X101133390Y-105309523D01*
X101133390Y-105309523D02*
X101085771Y-105404761D01*
X101085771Y-105404761D02*
X101085771Y-105595237D01*
X101085771Y-105595237D02*
X101133390Y-105690475D01*
X101133390Y-105690475D02*
X101181009Y-105738094D01*
X101181009Y-105738094D02*
X101276247Y-105785713D01*
X117109580Y-146666666D02*
X117157200Y-146714285D01*
X117157200Y-146714285D02*
X117204819Y-146857142D01*
X117204819Y-146857142D02*
X117204819Y-146952380D01*
X117204819Y-146952380D02*
X117157200Y-147095237D01*
X117157200Y-147095237D02*
X117061961Y-147190475D01*
X117061961Y-147190475D02*
X116966723Y-147238094D01*
X116966723Y-147238094D02*
X116776247Y-147285713D01*
X116776247Y-147285713D02*
X116633390Y-147285713D01*
X116633390Y-147285713D02*
X116442914Y-147238094D01*
X116442914Y-147238094D02*
X116347676Y-147190475D01*
X116347676Y-147190475D02*
X116252438Y-147095237D01*
X116252438Y-147095237D02*
X116204819Y-146952380D01*
X116204819Y-146952380D02*
X116204819Y-146857142D01*
X116204819Y-146857142D02*
X116252438Y-146714285D01*
X116252438Y-146714285D02*
X116300057Y-146666666D01*
X117204819Y-145714285D02*
X117204819Y-146285713D01*
X117204819Y-145999999D02*
X116204819Y-145999999D01*
X116204819Y-145999999D02*
X116347676Y-146095237D01*
X116347676Y-146095237D02*
X116442914Y-146190475D01*
X116442914Y-146190475D02*
X116490533Y-146285713D01*
X126859580Y-130916666D02*
X126907200Y-130964285D01*
X126907200Y-130964285D02*
X126954819Y-131107142D01*
X126954819Y-131107142D02*
X126954819Y-131202380D01*
X126954819Y-131202380D02*
X126907200Y-131345237D01*
X126907200Y-131345237D02*
X126811961Y-131440475D01*
X126811961Y-131440475D02*
X126716723Y-131488094D01*
X126716723Y-131488094D02*
X126526247Y-131535713D01*
X126526247Y-131535713D02*
X126383390Y-131535713D01*
X126383390Y-131535713D02*
X126192914Y-131488094D01*
X126192914Y-131488094D02*
X126097676Y-131440475D01*
X126097676Y-131440475D02*
X126002438Y-131345237D01*
X126002438Y-131345237D02*
X125954819Y-131202380D01*
X125954819Y-131202380D02*
X125954819Y-131107142D01*
X125954819Y-131107142D02*
X126002438Y-130964285D01*
X126002438Y-130964285D02*
X126050057Y-130916666D01*
X125954819Y-130583332D02*
X125954819Y-129964285D01*
X125954819Y-129964285D02*
X126335771Y-130297618D01*
X126335771Y-130297618D02*
X126335771Y-130154761D01*
X126335771Y-130154761D02*
X126383390Y-130059523D01*
X126383390Y-130059523D02*
X126431009Y-130011904D01*
X126431009Y-130011904D02*
X126526247Y-129964285D01*
X126526247Y-129964285D02*
X126764342Y-129964285D01*
X126764342Y-129964285D02*
X126859580Y-130011904D01*
X126859580Y-130011904D02*
X126907200Y-130059523D01*
X126907200Y-130059523D02*
X126954819Y-130154761D01*
X126954819Y-130154761D02*
X126954819Y-130440475D01*
X126954819Y-130440475D02*
X126907200Y-130535713D01*
X126907200Y-130535713D02*
X126859580Y-130583332D01*
X113166666Y-154931009D02*
X112833333Y-154931009D01*
X112833333Y-155454819D02*
X112833333Y-154454819D01*
X112833333Y-154454819D02*
X113309523Y-154454819D01*
X114214285Y-155454819D02*
X113642857Y-155454819D01*
X113928571Y-155454819D02*
X113928571Y-154454819D01*
X113928571Y-154454819D02*
X113833333Y-154597676D01*
X113833333Y-154597676D02*
X113738095Y-154692914D01*
X113738095Y-154692914D02*
X113642857Y-154740533D01*
X126454819Y-156142857D02*
X125978628Y-156476190D01*
X126454819Y-156714285D02*
X125454819Y-156714285D01*
X125454819Y-156714285D02*
X125454819Y-156333333D01*
X125454819Y-156333333D02*
X125502438Y-156238095D01*
X125502438Y-156238095D02*
X125550057Y-156190476D01*
X125550057Y-156190476D02*
X125645295Y-156142857D01*
X125645295Y-156142857D02*
X125788152Y-156142857D01*
X125788152Y-156142857D02*
X125883390Y-156190476D01*
X125883390Y-156190476D02*
X125931009Y-156238095D01*
X125931009Y-156238095D02*
X125978628Y-156333333D01*
X125978628Y-156333333D02*
X125978628Y-156714285D01*
X126454819Y-155190476D02*
X126454819Y-155761904D01*
X126454819Y-155476190D02*
X125454819Y-155476190D01*
X125454819Y-155476190D02*
X125597676Y-155571428D01*
X125597676Y-155571428D02*
X125692914Y-155666666D01*
X125692914Y-155666666D02*
X125740533Y-155761904D01*
X125550057Y-154809523D02*
X125502438Y-154761904D01*
X125502438Y-154761904D02*
X125454819Y-154666666D01*
X125454819Y-154666666D02*
X125454819Y-154428571D01*
X125454819Y-154428571D02*
X125502438Y-154333333D01*
X125502438Y-154333333D02*
X125550057Y-154285714D01*
X125550057Y-154285714D02*
X125645295Y-154238095D01*
X125645295Y-154238095D02*
X125740533Y-154238095D01*
X125740533Y-154238095D02*
X125883390Y-154285714D01*
X125883390Y-154285714D02*
X126454819Y-154857142D01*
X126454819Y-154857142D02*
X126454819Y-154238095D01*
X124954819Y-156142857D02*
X124478628Y-156476190D01*
X124954819Y-156714285D02*
X123954819Y-156714285D01*
X123954819Y-156714285D02*
X123954819Y-156333333D01*
X123954819Y-156333333D02*
X124002438Y-156238095D01*
X124002438Y-156238095D02*
X124050057Y-156190476D01*
X124050057Y-156190476D02*
X124145295Y-156142857D01*
X124145295Y-156142857D02*
X124288152Y-156142857D01*
X124288152Y-156142857D02*
X124383390Y-156190476D01*
X124383390Y-156190476D02*
X124431009Y-156238095D01*
X124431009Y-156238095D02*
X124478628Y-156333333D01*
X124478628Y-156333333D02*
X124478628Y-156714285D01*
X124954819Y-155190476D02*
X124954819Y-155761904D01*
X124954819Y-155476190D02*
X123954819Y-155476190D01*
X123954819Y-155476190D02*
X124097676Y-155571428D01*
X124097676Y-155571428D02*
X124192914Y-155666666D01*
X124192914Y-155666666D02*
X124240533Y-155761904D01*
X123954819Y-154857142D02*
X123954819Y-154238095D01*
X123954819Y-154238095D02*
X124335771Y-154571428D01*
X124335771Y-154571428D02*
X124335771Y-154428571D01*
X124335771Y-154428571D02*
X124383390Y-154333333D01*
X124383390Y-154333333D02*
X124431009Y-154285714D01*
X124431009Y-154285714D02*
X124526247Y-154238095D01*
X124526247Y-154238095D02*
X124764342Y-154238095D01*
X124764342Y-154238095D02*
X124859580Y-154285714D01*
X124859580Y-154285714D02*
X124907200Y-154333333D01*
X124907200Y-154333333D02*
X124954819Y-154428571D01*
X124954819Y-154428571D02*
X124954819Y-154714285D01*
X124954819Y-154714285D02*
X124907200Y-154809523D01*
X124907200Y-154809523D02*
X124859580Y-154857142D01*
D11*
%TO.C,U2*%
X128470000Y-124870000D02*
X128470000Y-124600000D01*
X128470000Y-124600000D02*
X131300000Y-124600000D01*
X128470000Y-118240000D02*
X129570000Y-118240000D01*
X128470000Y-117970000D02*
X128470000Y-118240000D01*
X122050000Y-124870000D02*
X128470000Y-124870000D01*
X122050000Y-117970000D02*
X128470000Y-117970000D01*
%TO.C,R3*%
X106380000Y-127836359D02*
X106380000Y-128143641D01*
X105620000Y-127836359D02*
X105620000Y-128143641D01*
%TO.C,U6*%
X132300000Y-110900000D02*
X132300000Y-106700000D01*
X135700000Y-110900000D02*
X135700000Y-108100000D01*
%TO.C,R15*%
X118380000Y-145646359D02*
X118380000Y-145953641D01*
X117620000Y-145646359D02*
X117620000Y-145953641D01*
%TO.C,U7*%
X116060000Y-141500000D02*
X116060000Y-138050000D01*
X116060000Y-141500000D02*
X116060000Y-143450000D01*
X110940000Y-141500000D02*
X110940000Y-139550000D01*
X110940000Y-141500000D02*
X110940000Y-143450000D01*
%TO.C,R9*%
X131546359Y-116370000D02*
X131853641Y-116370000D01*
X131546359Y-117130000D02*
X131853641Y-117130000D01*
%TO.C,D5*%
X115650000Y-146990000D02*
X112350000Y-146990000D01*
X115650000Y-146990000D02*
X115650000Y-152500000D01*
X112350000Y-146990000D02*
X112350000Y-152500000D01*
%TO.C,C7*%
X112142164Y-136640000D02*
X112357836Y-136640000D01*
X112142164Y-137360000D02*
X112357836Y-137360000D01*
%TO.C,U8*%
X107560000Y-141500000D02*
X107560000Y-138050000D01*
X107560000Y-141500000D02*
X107560000Y-143450000D01*
X102440000Y-141500000D02*
X102440000Y-139550000D01*
X102440000Y-141500000D02*
X102440000Y-143450000D01*
%TO.C,C2*%
X137437500Y-130347500D02*
X136650000Y-130347500D01*
X137043750Y-130741250D02*
X137043750Y-129953750D01*
X136410000Y-130845563D02*
X136410000Y-129560000D01*
X136410000Y-130845563D02*
X135345563Y-131910000D01*
X136410000Y-126154437D02*
X136410000Y-127440000D01*
X136410000Y-126154437D02*
X135345563Y-125090000D01*
X135345563Y-131910000D02*
X129590000Y-131910000D01*
X135345563Y-125090000D02*
X129590000Y-125090000D01*
X129590000Y-131910000D02*
X129590000Y-129560000D01*
X129590000Y-125090000D02*
X129590000Y-127440000D01*
%TO.C,R14*%
X120370000Y-145903641D02*
X120370000Y-145596359D01*
X121130000Y-145903641D02*
X121130000Y-145596359D01*
D10*
%TO.C,U1*%
X118325000Y-151575000D02*
X118550000Y-151575000D01*
X118325000Y-151575000D02*
X118325000Y-148225000D01*
X118550000Y-151575000D02*
X118550000Y-152800000D01*
X121675000Y-151575000D02*
X121375000Y-151575000D01*
X121675000Y-151575000D02*
X121675000Y-148225000D01*
X118325000Y-148225000D02*
X118625000Y-148225000D01*
X121675000Y-148225000D02*
X121375000Y-148225000D01*
D11*
%TO.C,C8*%
X103642164Y-136640000D02*
X103857836Y-136640000D01*
X103642164Y-137360000D02*
X103857836Y-137360000D01*
%TO.C,R8*%
X131880000Y-107856359D02*
X131880000Y-108163641D01*
X131120000Y-107856359D02*
X131120000Y-108163641D01*
%TO.C,SW1*%
X125000000Y-151850000D02*
X127000000Y-151850000D01*
X123700000Y-150850000D02*
X123250000Y-150400000D01*
X128300000Y-150850000D02*
X128750000Y-150400000D01*
X123250000Y-150400000D02*
X123250000Y-147800000D01*
X128750000Y-150400000D02*
X128750000Y-147800000D01*
X123700000Y-147350000D02*
X123250000Y-147800000D01*
X128300000Y-147350000D02*
X128750000Y-147800000D01*
X125000000Y-146350000D02*
X127000000Y-146350000D01*
%TO.C,JP1*%
X133550000Y-133700000D02*
X133550000Y-134300000D01*
X132850000Y-135000000D02*
X131450000Y-135000000D01*
X131450000Y-133000000D02*
X132850000Y-133000000D01*
X130750000Y-134300000D02*
X130750000Y-133700000D01*
X132850000Y-135000000D02*
G75*
G03*
X133550000Y-134300000I1J699999D01*
G01*
X133550000Y-133700000D02*
G75*
G03*
X132850000Y-133000000I-699999J1D01*
G01*
X130750000Y-134300000D02*
G75*
G03*
X131450000Y-135000000I700000J0D01*
G01*
X131450000Y-133000000D02*
G75*
G03*
X130750000Y-133700000I0J-700000D01*
G01*
%TO.C,R4*%
X106380000Y-121836359D02*
X106380000Y-122143641D01*
X105620000Y-121836359D02*
X105620000Y-122143641D01*
%TO.C,C4*%
X129140000Y-108607836D02*
X129140000Y-108392164D01*
X129860000Y-108607836D02*
X129860000Y-108392164D01*
%TO.C,R11*%
X131596359Y-115120000D02*
X131903641Y-115120000D01*
X131596359Y-115880000D02*
X131903641Y-115880000D01*
%TO.C,R1*%
X122880000Y-146596359D02*
X122880000Y-146903641D01*
X122120000Y-146596359D02*
X122120000Y-146903641D01*
%TO.C,JP2*%
X125550000Y-133700000D02*
X125550000Y-134300000D01*
X124850000Y-135000000D02*
X123450000Y-135000000D01*
X123450000Y-133000000D02*
X124850000Y-133000000D01*
X122750000Y-134300000D02*
X122750000Y-133700000D01*
X124850000Y-135000000D02*
G75*
G03*
X125550000Y-134300000I1J699999D01*
G01*
X125550000Y-133700000D02*
G75*
G03*
X124850000Y-133000000I-699999J1D01*
G01*
X122750000Y-134300000D02*
G75*
G03*
X123450000Y-135000000I700000J0D01*
G01*
X123450000Y-133000000D02*
G75*
G03*
X122750000Y-133700000I0J-700000D01*
G01*
%TO.C,R7*%
X116630000Y-107856359D02*
X116630000Y-108163641D01*
X115870000Y-107856359D02*
X115870000Y-108163641D01*
%TO.C,U5*%
X117300000Y-110900000D02*
X117300000Y-106700000D01*
X120700000Y-110900000D02*
X120700000Y-108100000D01*
%TO.C,J4*%
X114825000Y-157935000D02*
X114825000Y-156385000D01*
X114825000Y-157935000D02*
X115125000Y-157935000D01*
X115125000Y-160735000D02*
X115125000Y-157935000D01*
X117000000Y-154750000D02*
X117500000Y-154750000D01*
X117250000Y-155135000D02*
X117000000Y-154750000D01*
X117500000Y-154750000D02*
X117250000Y-155135000D01*
X122825000Y-157935000D02*
X123125000Y-157935000D01*
X122825000Y-160735000D02*
X122825000Y-157935000D01*
X123125000Y-157935000D02*
X123125000Y-156385000D01*
%TO.C,U4*%
X102300000Y-110900000D02*
X102300000Y-106700000D01*
X105700000Y-110900000D02*
X105700000Y-108100000D01*
%TO.C,R2*%
X136880000Y-112346359D02*
X136880000Y-112653641D01*
X136120000Y-112346359D02*
X136120000Y-112653641D01*
%TO.C,R10*%
X131596359Y-113870000D02*
X131903641Y-113870000D01*
X131596359Y-114630000D02*
X131903641Y-114630000D01*
%TO.C,R5*%
X106380000Y-115836359D02*
X106380000Y-116143641D01*
X105620000Y-115836359D02*
X105620000Y-116143641D01*
%TO.C,R6*%
X101630000Y-107856359D02*
X101630000Y-108163641D01*
X100870000Y-107856359D02*
X100870000Y-108163641D01*
%TO.C,C1*%
X117860000Y-148392164D02*
X117860000Y-148607836D01*
X117140000Y-148392164D02*
X117140000Y-148607836D01*
%TO.C,C3*%
X117562500Y-126652500D02*
X118350000Y-126652500D01*
X117956250Y-126258750D02*
X117956250Y-127046250D01*
X118590000Y-126154437D02*
X118590000Y-127440000D01*
X118590000Y-126154437D02*
X119654437Y-125090000D01*
X118590000Y-130845563D02*
X118590000Y-129560000D01*
X118590000Y-130845563D02*
X119654437Y-131910000D01*
X119654437Y-125090000D02*
X125410000Y-125090000D01*
X119654437Y-131910000D02*
X125410000Y-131910000D01*
X125410000Y-125090000D02*
X125410000Y-127440000D01*
X125410000Y-131910000D02*
X125410000Y-129560000D01*
%TO.C,F1*%
X116490000Y-153162779D02*
X116490000Y-152837221D01*
X117510000Y-153162779D02*
X117510000Y-152837221D01*
%TO.C,R12*%
X118920000Y-154253641D02*
X118920000Y-153946359D01*
X119680000Y-154253641D02*
X119680000Y-153946359D01*
%TO.C,R13*%
X117920000Y-154253641D02*
X117920000Y-153946359D01*
X118680000Y-154253641D02*
X118680000Y-153946359D01*
%TD*%
%LPC*%
D12*
%TO.C,U2*%
X130200000Y-123700000D03*
D13*
X123900000Y-121420000D03*
D12*
X130200000Y-119140000D03*
%TD*%
D14*
%TO.C,R3*%
X106000000Y-127480000D03*
X106000000Y-128500000D03*
%TD*%
D15*
%TO.C,U6*%
X133100000Y-111500000D03*
X133100000Y-107500000D03*
X134900000Y-111500000D03*
X134900000Y-107500000D03*
%TD*%
D14*
%TO.C,R15*%
X118000000Y-145290000D03*
X118000000Y-146310000D03*
%TD*%
D16*
%TO.C,U7*%
X115405000Y-138875000D03*
X114135000Y-138875000D03*
X112865000Y-138875000D03*
X111595000Y-138875000D03*
X111595000Y-144125000D03*
X112865000Y-144125000D03*
X114135000Y-144125000D03*
X115405000Y-144125000D03*
%TD*%
D17*
%TO.C,R9*%
X131190000Y-116750000D03*
X132210000Y-116750000D03*
%TD*%
D18*
%TO.C,D5*%
X114000000Y-148500000D03*
X114000000Y-152500000D03*
%TD*%
D19*
%TO.C,C7*%
X111770000Y-137000000D03*
X112730000Y-137000000D03*
%TD*%
D16*
%TO.C,U8*%
X106905000Y-138875000D03*
X105635000Y-138875000D03*
X104365000Y-138875000D03*
X103095000Y-138875000D03*
X103095000Y-144125000D03*
X104365000Y-144125000D03*
X105635000Y-144125000D03*
X106905000Y-144125000D03*
%TD*%
D20*
%TO.C,C2*%
X135800000Y-128500000D03*
X130200000Y-128500000D03*
%TD*%
D21*
%TO.C,R14*%
X120750000Y-146260000D03*
X120750000Y-145240000D03*
%TD*%
D22*
%TO.C,U1*%
X119000000Y-152100000D03*
X119500000Y-152100000D03*
X120000000Y-152100000D03*
X120500000Y-152100000D03*
X121000000Y-152100000D03*
X121000000Y-147700000D03*
X120500000Y-147700000D03*
X120000000Y-147700000D03*
X119500000Y-147700000D03*
X119000000Y-147700000D03*
%TD*%
D19*
%TO.C,C8*%
X103270000Y-137000000D03*
X104230000Y-137000000D03*
%TD*%
D14*
%TO.C,R8*%
X131500000Y-107500000D03*
X131500000Y-108520000D03*
%TD*%
D23*
%TO.C,SW1*%
X124125000Y-152100000D03*
X124125000Y-146100000D03*
X127875000Y-152100000D03*
X127875000Y-146100000D03*
%TD*%
D24*
%TO.C,JP1*%
X132800000Y-134000000D03*
D25*
X131500000Y-134000000D03*
%TD*%
D14*
%TO.C,R4*%
X106000000Y-121480000D03*
X106000000Y-122500000D03*
%TD*%
D26*
%TO.C,C4*%
X129500000Y-108980000D03*
X129500000Y-108020000D03*
%TD*%
D27*
%TO.C,REF\u002A\u002A*%
X103000000Y-103000000D03*
%TD*%
D17*
%TO.C,R11*%
X131240000Y-115500000D03*
X132260000Y-115500000D03*
%TD*%
D14*
%TO.C,R1*%
X122500000Y-146240000D03*
X122500000Y-147260000D03*
%TD*%
D24*
%TO.C,JP2*%
X124800000Y-134000000D03*
D25*
X123500000Y-134000000D03*
%TD*%
D14*
%TO.C,R7*%
X116250000Y-107500000D03*
X116250000Y-108520000D03*
%TD*%
D15*
%TO.C,U5*%
X118100000Y-111500000D03*
X118100000Y-107500000D03*
X119900000Y-111500000D03*
X119900000Y-107500000D03*
%TD*%
D28*
%TO.C,J4*%
X117675000Y-156235000D03*
X118325000Y-156235000D03*
X118975000Y-156235000D03*
X119625000Y-156235000D03*
X120275000Y-156235000D03*
D29*
X116025000Y-157435000D03*
D30*
X116125000Y-156135000D03*
D31*
X116245000Y-158185000D03*
D32*
X116245000Y-159115000D03*
D33*
X116555000Y-156115000D03*
D34*
X118015000Y-159385000D03*
X119935000Y-159385000D03*
D33*
X121395000Y-156115000D03*
D32*
X121705000Y-159115000D03*
D31*
X121725000Y-158185000D03*
D30*
X121875000Y-156115000D03*
D29*
X121975000Y-157435000D03*
%TD*%
D15*
%TO.C,U4*%
X103100000Y-111500000D03*
X103100000Y-107500000D03*
X104900000Y-111500000D03*
X104900000Y-107500000D03*
%TD*%
D14*
%TO.C,R2*%
X136500000Y-111990000D03*
X136500000Y-113010000D03*
%TD*%
D17*
%TO.C,R10*%
X131240000Y-114250000D03*
X132260000Y-114250000D03*
%TD*%
D14*
%TO.C,R5*%
X106000000Y-115480000D03*
X106000000Y-116500000D03*
%TD*%
%TO.C,R6*%
X101250000Y-107500000D03*
X101250000Y-108520000D03*
%TD*%
D35*
%TO.C,C1*%
X117500000Y-148020000D03*
X117500000Y-148980000D03*
%TD*%
D36*
%TO.C,C3*%
X119200000Y-128500000D03*
X124800000Y-128500000D03*
%TD*%
D37*
%TO.C,F1*%
X117000000Y-153787500D03*
X117000000Y-152212500D03*
%TD*%
D21*
%TO.C,R12*%
X119300000Y-154610000D03*
X119300000Y-153590000D03*
%TD*%
%TO.C,R13*%
X118300000Y-154610000D03*
X118300000Y-153590000D03*
%TD*%
D27*
%TO.C,REF\u002A\u002A*%
X135000000Y-103000000D03*
%TD*%
D38*
%TO.C,C5*%
X111750000Y-135000000D03*
D39*
X115250000Y-135000000D03*
%TD*%
D40*
%TO.C,D2*%
X101475000Y-128500000D03*
D41*
X104015000Y-128500000D03*
%TD*%
D38*
%TO.C,C6*%
X102750000Y-135000000D03*
D39*
X106250000Y-135000000D03*
%TD*%
D42*
%TO.C,J1*%
X133500000Y-145000000D03*
D43*
X131500000Y-145000000D03*
%TD*%
D42*
%TO.C,J2*%
X133500000Y-138000000D03*
D43*
X131500000Y-138000000D03*
%TD*%
D40*
%TO.C,D4*%
X101475000Y-116500000D03*
D41*
X104015000Y-116500000D03*
%TD*%
D40*
%TO.C,D1*%
X135500000Y-117500000D03*
D41*
X135500000Y-114960000D03*
%TD*%
D44*
%TO.C,J6*%
X129000000Y-158000000D03*
D45*
X134080000Y-158000000D03*
%TD*%
D40*
%TO.C,D3*%
X101475000Y-122500000D03*
D41*
X104015000Y-122500000D03*
%TD*%
D42*
%TO.C,J3*%
X125500000Y-138000000D03*
D43*
X123500000Y-138000000D03*
%TD*%
D44*
%TO.C,J5*%
X104000000Y-158000000D03*
D45*
X109080000Y-158000000D03*
%TD*%
%LPD*%
M02*
