%TF.GenerationSoftware,KiCad,Pcbnew,7.0.6*%
%TF.CreationDate,2025-04-22T02:23:43+09:00*%
%TF.ProjectId,Moving_V4_ESP,4d6f7669-6e67-45f5-9634-5f4553502e6b,rev?*%
%TF.SameCoordinates,Original*%
%TF.FileFunction,Copper,L1,Top*%
%TF.FilePolarity,Positive*%
%FSLAX46Y46*%
G04 Gerber Fmt 4.6, Leading zero omitted, Abs format (unit mm)*
G04 Created by KiCad (PCBNEW 7.0.6) date 2025-04-22 02:23:43*
%MOMM*%
%LPD*%
G01*
G04 APERTURE LIST*
G04 Aperture macros list*
%AMRoundRect*
0 Rectangle with rounded corners*
0 $1 Rounding radius*
0 $2 $3 $4 $5 $6 $7 $8 $9 X,Y pos of 4 corners*
0 Add a 4 corners polygon primitive as box body*
4,1,4,$2,$3,$4,$5,$6,$7,$8,$9,$2,$3,0*
0 Add four circle primitives for the rounded corners*
1,1,$1+$1,$2,$3*
1,1,$1+$1,$4,$5*
1,1,$1+$1,$6,$7*
1,1,$1+$1,$8,$9*
0 Add four rect primitives between the rounded corners*
20,1,$1+$1,$2,$3,$4,$5,0*
20,1,$1+$1,$4,$5,$6,$7,0*
20,1,$1+$1,$6,$7,$8,$9,0*
20,1,$1+$1,$8,$9,$2,$3,0*%
%AMFreePoly0*
4,1,19,0.500000,-0.750000,0.000000,-0.750000,0.000000,-0.744911,-0.071157,-0.744911,-0.207708,-0.704816,-0.327430,-0.627875,-0.420627,-0.520320,-0.479746,-0.390866,-0.500000,-0.250000,-0.500000,0.250000,-0.479746,0.390866,-0.420627,0.520320,-0.327430,0.627875,-0.207708,0.704816,-0.071157,0.744911,0.000000,0.744911,0.000000,0.750000,0.500000,0.750000,0.500000,-0.750000,0.500000,-0.750000,
$1*%
%AMFreePoly1*
4,1,19,0.000000,0.744911,0.071157,0.744911,0.207708,0.704816,0.327430,0.627875,0.420627,0.520320,0.479746,0.390866,0.500000,0.250000,0.500000,-0.250000,0.479746,-0.390866,0.420627,-0.520320,0.327430,-0.627875,0.207708,-0.704816,0.071157,-0.744911,0.000000,-0.744911,0.000000,-0.750000,-0.500000,-0.750000,-0.500000,0.750000,0.000000,0.750000,0.000000,0.744911,0.000000,0.744911,
$1*%
G04 Aperture macros list end*
%TA.AperFunction,SMDPad,CuDef*%
%ADD10RoundRect,0.250000X0.850000X0.350000X-0.850000X0.350000X-0.850000X-0.350000X0.850000X-0.350000X0*%
%TD*%
%TA.AperFunction,SMDPad,CuDef*%
%ADD11RoundRect,0.250000X1.275000X1.125000X-1.275000X1.125000X-1.275000X-1.125000X1.275000X-1.125000X0*%
%TD*%
%TA.AperFunction,SMDPad,CuDef*%
%ADD12RoundRect,0.249997X2.950003X2.650003X-2.950003X2.650003X-2.950003X-2.650003X2.950003X-2.650003X0*%
%TD*%
%TA.AperFunction,SMDPad,CuDef*%
%ADD13RoundRect,0.135000X-0.185000X0.135000X-0.185000X-0.135000X0.185000X-0.135000X0.185000X0.135000X0*%
%TD*%
%TA.AperFunction,SMDPad,CuDef*%
%ADD14RoundRect,0.197500X-0.197500X-0.632500X0.197500X-0.632500X0.197500X0.632500X-0.197500X0.632500X0*%
%TD*%
%TA.AperFunction,SMDPad,CuDef*%
%ADD15RoundRect,0.150000X-0.150000X0.675000X-0.150000X-0.675000X0.150000X-0.675000X0.150000X0.675000X0*%
%TD*%
%TA.AperFunction,SMDPad,CuDef*%
%ADD16RoundRect,0.135000X-0.135000X-0.185000X0.135000X-0.185000X0.135000X0.185000X-0.135000X0.185000X0*%
%TD*%
%TA.AperFunction,SMDPad,CuDef*%
%ADD17RoundRect,0.250000X-0.650000X1.000000X-0.650000X-1.000000X0.650000X-1.000000X0.650000X1.000000X0*%
%TD*%
%TA.AperFunction,SMDPad,CuDef*%
%ADD18RoundRect,0.140000X-0.140000X-0.170000X0.140000X-0.170000X0.140000X0.170000X-0.140000X0.170000X0*%
%TD*%
%TA.AperFunction,SMDPad,CuDef*%
%ADD19RoundRect,0.250000X1.500000X0.550000X-1.500000X0.550000X-1.500000X-0.550000X1.500000X-0.550000X0*%
%TD*%
%TA.AperFunction,SMDPad,CuDef*%
%ADD20RoundRect,0.135000X0.185000X-0.135000X0.185000X0.135000X-0.185000X0.135000X-0.185000X-0.135000X0*%
%TD*%
%TA.AperFunction,SMDPad,CuDef*%
%ADD21R,0.300000X1.400000*%
%TD*%
%TA.AperFunction,SMDPad,CuDef*%
%ADD22R,0.750000X1.000000*%
%TD*%
%TA.AperFunction,SMDPad,CuDef*%
%ADD23FreePoly0,180.000000*%
%TD*%
%TA.AperFunction,SMDPad,CuDef*%
%ADD24FreePoly1,180.000000*%
%TD*%
%TA.AperFunction,SMDPad,CuDef*%
%ADD25RoundRect,0.140000X0.170000X-0.140000X0.170000X0.140000X-0.170000X0.140000X-0.170000X-0.140000X0*%
%TD*%
%TA.AperFunction,SMDPad,CuDef*%
%ADD26R,0.400000X1.650000*%
%TD*%
%TA.AperFunction,SMDPad,CuDef*%
%ADD27R,1.825000X0.700000*%
%TD*%
%TA.AperFunction,SMDPad,CuDef*%
%ADD28R,2.000000X1.500000*%
%TD*%
%TA.AperFunction,SMDPad,CuDef*%
%ADD29R,1.350000X2.000000*%
%TD*%
%TA.AperFunction,ComponentPad*%
%ADD30O,1.350000X1.700000*%
%TD*%
%TA.AperFunction,ComponentPad*%
%ADD31O,1.100000X1.500000*%
%TD*%
%TA.AperFunction,SMDPad,CuDef*%
%ADD32R,1.430000X2.500000*%
%TD*%
%TA.AperFunction,SMDPad,CuDef*%
%ADD33RoundRect,0.140000X-0.170000X0.140000X-0.170000X-0.140000X0.170000X-0.140000X0.170000X0.140000X0*%
%TD*%
%TA.AperFunction,SMDPad,CuDef*%
%ADD34RoundRect,0.250000X-1.500000X-0.550000X1.500000X-0.550000X1.500000X0.550000X-1.500000X0.550000X0*%
%TD*%
%TA.AperFunction,SMDPad,CuDef*%
%ADD35RoundRect,0.218750X0.256250X-0.218750X0.256250X0.218750X-0.256250X0.218750X-0.256250X-0.218750X0*%
%TD*%
%TA.AperFunction,ComponentPad*%
%ADD36R,1.600000X1.600000*%
%TD*%
%TA.AperFunction,ComponentPad*%
%ADD37C,1.600000*%
%TD*%
%TA.AperFunction,ComponentPad*%
%ADD38R,1.800000X1.800000*%
%TD*%
%TA.AperFunction,ComponentPad*%
%ADD39C,1.800000*%
%TD*%
%TA.AperFunction,ComponentPad*%
%ADD40RoundRect,0.250000X0.350000X0.625000X-0.350000X0.625000X-0.350000X-0.625000X0.350000X-0.625000X0*%
%TD*%
%TA.AperFunction,ComponentPad*%
%ADD41O,1.200000X1.750000*%
%TD*%
%TA.AperFunction,HeatsinkPad*%
%ADD42C,0.600000*%
%TD*%
%TA.AperFunction,ComponentPad*%
%ADD43R,3.000000X3.000000*%
%TD*%
%TA.AperFunction,ComponentPad*%
%ADD44C,3.000000*%
%TD*%
%TA.AperFunction,ViaPad*%
%ADD45C,0.800000*%
%TD*%
%TA.AperFunction,Conductor*%
%ADD46C,0.300000*%
%TD*%
%TA.AperFunction,Conductor*%
%ADD47C,1.000000*%
%TD*%
%TA.AperFunction,Conductor*%
%ADD48C,1.500000*%
%TD*%
G04 APERTURE END LIST*
D10*
%TO.P,U2,1,GND*%
%TO.N,GND*%
X130200000Y-123700000D03*
D11*
%TO.P,U2,2,VO*%
%TO.N,+3.3V*%
X125575000Y-122945000D03*
X125575000Y-119895000D03*
D12*
X123900000Y-121420000D03*
D11*
X122225000Y-122945000D03*
X122225000Y-119895000D03*
D10*
%TO.P,U2,3,VI*%
%TO.N,/Vin*%
X130200000Y-119140000D03*
%TD*%
D13*
%TO.P,R3,1*%
%TO.N,/LED_R*%
X106000000Y-127480000D03*
%TO.P,R3,2*%
%TO.N,Net-(D2-A)*%
X106000000Y-128500000D03*
%TD*%
D14*
%TO.P,U6,1,K*%
%TO.N,GND*%
X133100000Y-111500000D03*
%TO.P,U6,2,A*%
%TO.N,Net-(U6-A)*%
X133100000Y-107500000D03*
%TO.P,U6,3*%
%TO.N,+3.3V*%
X134900000Y-111500000D03*
%TO.P,U6,4*%
%TO.N,/SENSOR_3*%
X134900000Y-107500000D03*
%TD*%
D13*
%TO.P,R15,1*%
%TO.N,Net-(U3-RXD0{slash}IO3)*%
X118000000Y-145290000D03*
%TO.P,R15,2*%
%TO.N,GND*%
X118000000Y-146310000D03*
%TD*%
D15*
%TO.P,U7,1,BI*%
%TO.N,/L_in1*%
X115405000Y-138875000D03*
%TO.P,U7,2,FI*%
%TO.N,/L_in2*%
X114135000Y-138875000D03*
%TO.P,U7,3,GND*%
%TO.N,GND*%
X112865000Y-138875000D03*
%TO.P,U7,4,VCC*%
%TO.N,/Vin*%
X111595000Y-138875000D03*
%TO.P,U7,5,FO*%
%TO.N,/P_MOT_L2*%
X111595000Y-144125000D03*
%TO.P,U7,6,FO*%
X112865000Y-144125000D03*
%TO.P,U7,7,BO*%
%TO.N,/P_MOT_L1*%
X114135000Y-144125000D03*
%TO.P,U7,8,BO*%
X115405000Y-144125000D03*
%TD*%
D16*
%TO.P,R9,1*%
%TO.N,/SENSOR_1*%
X131190000Y-116750000D03*
%TO.P,R9,2*%
%TO.N,GND*%
X132210000Y-116750000D03*
%TD*%
D17*
%TO.P,D5,1,K*%
%TO.N,/Vin*%
X114000000Y-148500000D03*
%TO.P,D5,2,A*%
%TO.N,/USB 5V_F*%
X114000000Y-152500000D03*
%TD*%
D18*
%TO.P,C7,1*%
%TO.N,/Vin*%
X111770000Y-137000000D03*
%TO.P,C7,2*%
%TO.N,GND*%
X112730000Y-137000000D03*
%TD*%
D15*
%TO.P,U8,1,BI*%
%TO.N,/R_in1*%
X106905000Y-138875000D03*
%TO.P,U8,2,FI*%
%TO.N,/R_in2*%
X105635000Y-138875000D03*
%TO.P,U8,3,GND*%
%TO.N,GND*%
X104365000Y-138875000D03*
%TO.P,U8,4,VCC*%
%TO.N,/Vin*%
X103095000Y-138875000D03*
%TO.P,U8,5,FO*%
%TO.N,/P_MOT_R2*%
X103095000Y-144125000D03*
%TO.P,U8,6,FO*%
X104365000Y-144125000D03*
%TO.P,U8,7,BO*%
%TO.N,/P_MOT_R1*%
X105635000Y-144125000D03*
%TO.P,U8,8,BO*%
X106905000Y-144125000D03*
%TD*%
D19*
%TO.P,C2,1*%
%TO.N,/Vin*%
X135800000Y-128500000D03*
%TO.P,C2,2*%
%TO.N,GND*%
X130200000Y-128500000D03*
%TD*%
D20*
%TO.P,R14,1*%
%TO.N,/Tx(USB->ESP)*%
X120750000Y-146260000D03*
%TO.P,R14,2*%
%TO.N,Net-(U3-RXD0{slash}IO3)*%
X120750000Y-145240000D03*
%TD*%
D21*
%TO.P,U1,1,UD+*%
%TO.N,Net-(U1-UD+)*%
X119000000Y-152100000D03*
%TO.P,U1,2,UD-*%
%TO.N,Net-(U1-UD-)*%
X119500000Y-152100000D03*
%TO.P,U1,3,GND*%
%TO.N,GND*%
X120000000Y-152100000D03*
%TO.P,U1,4,~{RTS}*%
%TO.N,/EN*%
X120500000Y-152100000D03*
%TO.P,U1,5,~{CTS}*%
%TO.N,Net-(U1-~{CTS})*%
X121000000Y-152100000D03*
%TO.P,U1,6,TNOW/~{DTR}*%
%TO.N,Net-(U1-TNOW{slash}~{DTR})*%
X121000000Y-147700000D03*
%TO.P,U1,7,VCC*%
%TO.N,/USB 5V_F*%
X120500000Y-147700000D03*
%TO.P,U1,8,TXD*%
%TO.N,/Tx(USB->ESP)*%
X120000000Y-147700000D03*
%TO.P,U1,9,RXD*%
%TO.N,/Rx(USB<-ESP)*%
X119500000Y-147700000D03*
%TO.P,U1,10,V3*%
%TO.N,Net-(U1-V3)*%
X119000000Y-147700000D03*
%TD*%
D18*
%TO.P,C8,1*%
%TO.N,/Vin*%
X103270000Y-137000000D03*
%TO.P,C8,2*%
%TO.N,GND*%
X104230000Y-137000000D03*
%TD*%
D13*
%TO.P,R8,1*%
%TO.N,Net-(U6-A)*%
X131500000Y-107500000D03*
%TO.P,R8,2*%
%TO.N,+3.3V*%
X131500000Y-108520000D03*
%TD*%
D22*
%TO.P,SW1,1,1*%
%TO.N,Net-(U1-~{CTS})*%
X124125000Y-152100000D03*
X124125000Y-146100000D03*
%TO.P,SW1,2,2*%
%TO.N,/IO_0*%
X127875000Y-152100000D03*
X127875000Y-146100000D03*
%TD*%
D23*
%TO.P,JP1,1,A*%
%TO.N,/P_in1-*%
X132800000Y-134000000D03*
D24*
%TO.P,JP1,2,B*%
%TO.N,/P_in2-*%
X131500000Y-134000000D03*
%TD*%
D13*
%TO.P,R4,1*%
%TO.N,/LED_Y*%
X106000000Y-121480000D03*
%TO.P,R4,2*%
%TO.N,Net-(D3-A)*%
X106000000Y-122500000D03*
%TD*%
D25*
%TO.P,C4,1*%
%TO.N,+3.3V*%
X129500000Y-108980000D03*
%TO.P,C4,2*%
%TO.N,GND*%
X129500000Y-108020000D03*
%TD*%
D16*
%TO.P,R11,1*%
%TO.N,/SENSOR_3*%
X131240000Y-115500000D03*
%TO.P,R11,2*%
%TO.N,GND*%
X132260000Y-115500000D03*
%TD*%
D13*
%TO.P,R1,1*%
%TO.N,Net-(U1-~{CTS})*%
X122500000Y-146240000D03*
%TO.P,R1,2*%
%TO.N,Net-(U1-TNOW{slash}~{DTR})*%
X122500000Y-147260000D03*
%TD*%
D23*
%TO.P,JP2,1,A*%
%TO.N,/P_in2-*%
X124800000Y-134000000D03*
D24*
%TO.P,JP2,2,B*%
%TO.N,GND*%
X123500000Y-134000000D03*
%TD*%
D13*
%TO.P,R7,1*%
%TO.N,Net-(U5-A)*%
X116250000Y-107500000D03*
%TO.P,R7,2*%
%TO.N,+3.3V*%
X116250000Y-108520000D03*
%TD*%
D14*
%TO.P,U5,1,K*%
%TO.N,GND*%
X118100000Y-111500000D03*
%TO.P,U5,2,A*%
%TO.N,Net-(U5-A)*%
X118100000Y-107500000D03*
%TO.P,U5,3*%
%TO.N,+3.3V*%
X119900000Y-111500000D03*
%TO.P,U5,4*%
%TO.N,/SENSOR_2*%
X119900000Y-107500000D03*
%TD*%
D26*
%TO.P,J4,1,VBUS*%
%TO.N,/USB 5V*%
X117675000Y-156235000D03*
%TO.P,J4,2,D-*%
%TO.N,/D-*%
X118325000Y-156235000D03*
%TO.P,J4,3,D+*%
%TO.N,/D+*%
X118975000Y-156235000D03*
%TO.P,J4,4,ID*%
%TO.N,unconnected-(J4-ID-Pad4)*%
X119625000Y-156235000D03*
%TO.P,J4,5,GND*%
%TO.N,GND*%
X120275000Y-156235000D03*
D27*
%TO.P,J4,6,Shield*%
X116025000Y-157435000D03*
D28*
X116125000Y-156135000D03*
D29*
X116245000Y-158185000D03*
D30*
X116245000Y-159115000D03*
D31*
X116555000Y-156115000D03*
D32*
X118015000Y-159385000D03*
X119935000Y-159385000D03*
D31*
X121395000Y-156115000D03*
D30*
X121705000Y-159115000D03*
D29*
X121725000Y-158185000D03*
D28*
X121875000Y-156115000D03*
D27*
X121975000Y-157435000D03*
%TD*%
D14*
%TO.P,U4,1,K*%
%TO.N,GND*%
X103100000Y-111500000D03*
%TO.P,U4,2,A*%
%TO.N,Net-(U4-A)*%
X103100000Y-107500000D03*
%TO.P,U4,3*%
%TO.N,+3.3V*%
X104900000Y-111500000D03*
%TO.P,U4,4*%
%TO.N,/SENSOR_1*%
X104900000Y-107500000D03*
%TD*%
D13*
%TO.P,R2,1*%
%TO.N,+3.3V*%
X136500000Y-111990000D03*
%TO.P,R2,2*%
%TO.N,Net-(D1-A)*%
X136500000Y-113010000D03*
%TD*%
D16*
%TO.P,R10,1*%
%TO.N,/SENSOR_2*%
X131240000Y-114250000D03*
%TO.P,R10,2*%
%TO.N,GND*%
X132260000Y-114250000D03*
%TD*%
D13*
%TO.P,R5,1*%
%TO.N,/LED_G*%
X106000000Y-115480000D03*
%TO.P,R5,2*%
%TO.N,Net-(D4-A)*%
X106000000Y-116500000D03*
%TD*%
%TO.P,R6,1*%
%TO.N,Net-(U4-A)*%
X101250000Y-107500000D03*
%TO.P,R6,2*%
%TO.N,+3.3V*%
X101250000Y-108520000D03*
%TD*%
D33*
%TO.P,C1,1*%
%TO.N,Net-(U1-V3)*%
X117500000Y-148020000D03*
%TO.P,C1,2*%
%TO.N,GND*%
X117500000Y-148980000D03*
%TD*%
D34*
%TO.P,C3,1*%
%TO.N,+3.3V*%
X119200000Y-128500000D03*
%TO.P,C3,2*%
%TO.N,GND*%
X124800000Y-128500000D03*
%TD*%
D35*
%TO.P,F1,1*%
%TO.N,/USB 5V*%
X117000000Y-153787500D03*
%TO.P,F1,2*%
%TO.N,/USB 5V_F*%
X117000000Y-152212500D03*
%TD*%
D20*
%TO.P,R12,1*%
%TO.N,/D+*%
X119300000Y-154610000D03*
%TO.P,R12,2*%
%TO.N,Net-(U1-UD+)*%
X119300000Y-153590000D03*
%TD*%
%TO.P,R13,1*%
%TO.N,/D-*%
X118300000Y-154610000D03*
%TO.P,R13,2*%
%TO.N,Net-(U1-UD-)*%
X118300000Y-153590000D03*
%TD*%
D36*
%TO.P,C5,1*%
%TO.N,/Vin*%
X111750000Y-135000000D03*
D37*
%TO.P,C5,2*%
%TO.N,GND*%
X115250000Y-135000000D03*
%TD*%
D38*
%TO.P,D2,1,K*%
%TO.N,GND*%
X101475000Y-128500000D03*
D39*
%TO.P,D2,2,A*%
%TO.N,Net-(D2-A)*%
X104015000Y-128500000D03*
%TD*%
D36*
%TO.P,C6,1*%
%TO.N,/Vin*%
X102750000Y-135000000D03*
D37*
%TO.P,C6,2*%
%TO.N,GND*%
X106250000Y-135000000D03*
%TD*%
D40*
%TO.P,J1,1,Pin_1*%
%TO.N,/Vin*%
X133500000Y-145000000D03*
D41*
%TO.P,J1,2,Pin_2*%
%TO.N,/P_in1-*%
X131500000Y-145000000D03*
%TD*%
D42*
%TO.P,U3,39,GND*%
%TO.N,GND*%
X121205000Y-115967500D03*
X121205000Y-114442500D03*
X120442500Y-116730000D03*
X120442500Y-115205000D03*
X120442500Y-113680000D03*
X119680000Y-115967500D03*
X119680000Y-114442500D03*
X118917500Y-116730000D03*
X118917500Y-115205000D03*
X118917500Y-113680000D03*
X118155000Y-115967500D03*
X118155000Y-114442500D03*
%TD*%
D40*
%TO.P,J2,1,Pin_1*%
%TO.N,/P_in1-*%
X133500000Y-138000000D03*
D41*
%TO.P,J2,2,Pin_2*%
%TO.N,/P_in2-*%
X131500000Y-138000000D03*
%TD*%
D38*
%TO.P,D4,1,K*%
%TO.N,GND*%
X101475000Y-116500000D03*
D39*
%TO.P,D4,2,A*%
%TO.N,Net-(D4-A)*%
X104015000Y-116500000D03*
%TD*%
D38*
%TO.P,D1,1,K*%
%TO.N,GND*%
X135500000Y-117500000D03*
D39*
%TO.P,D1,2,A*%
%TO.N,Net-(D1-A)*%
X135500000Y-114960000D03*
%TD*%
D43*
%TO.P,J6,1,Pin_1*%
%TO.N,/P_MOT_L2*%
X129000000Y-158000000D03*
D44*
%TO.P,J6,2,Pin_2*%
%TO.N,/P_MOT_L1*%
X134080000Y-158000000D03*
%TD*%
D38*
%TO.P,D3,1,K*%
%TO.N,GND*%
X101475000Y-122500000D03*
D39*
%TO.P,D3,2,A*%
%TO.N,Net-(D3-A)*%
X104015000Y-122500000D03*
%TD*%
D40*
%TO.P,J3,1,Pin_1*%
%TO.N,/P_in2-*%
X125500000Y-138000000D03*
D41*
%TO.P,J3,2,Pin_2*%
%TO.N,GND*%
X123500000Y-138000000D03*
%TD*%
D43*
%TO.P,J5,1,Pin_1*%
%TO.N,/P_MOT_R2*%
X104000000Y-158000000D03*
D44*
%TO.P,J5,2,Pin_2*%
%TO.N,/P_MOT_R1*%
X109080000Y-158000000D03*
%TD*%
D45*
%TO.N,GND*%
X114000000Y-157000000D03*
X101000000Y-148500000D03*
X101000000Y-132000000D03*
X101000000Y-160500000D03*
X109500000Y-161500000D03*
X137000000Y-157500000D03*
X116000000Y-128000000D03*
X116000000Y-116000000D03*
X137000000Y-138000000D03*
X137000000Y-135000000D03*
X134000000Y-154500000D03*
X137000000Y-136500000D03*
X105500000Y-125000000D03*
X101000000Y-153000000D03*
X114000000Y-160000000D03*
X130500000Y-132500000D03*
X121000000Y-135000000D03*
X123000000Y-112000000D03*
X137000000Y-148500000D03*
X128500000Y-135500000D03*
X129000000Y-132500000D03*
X112500000Y-158500000D03*
X102000000Y-161500000D03*
X108000000Y-148500000D03*
X108000000Y-150000000D03*
X135500000Y-150000000D03*
X125500000Y-160000000D03*
X114000000Y-114000000D03*
X134000000Y-151500000D03*
X101000000Y-145500000D03*
X134000000Y-122500000D03*
X109500000Y-151500000D03*
X133000000Y-123000000D03*
X124000000Y-160000000D03*
X137000000Y-144000000D03*
X125000000Y-116000000D03*
X137000000Y-154500000D03*
X112500000Y-160000000D03*
X137000000Y-142500000D03*
X125500000Y-161500000D03*
X103500000Y-161500000D03*
X123000000Y-114000000D03*
X101000000Y-147000000D03*
X101000000Y-139500000D03*
X137000000Y-160500000D03*
X106500000Y-161500000D03*
X137000000Y-120000000D03*
X116000000Y-130000000D03*
X111500000Y-130500000D03*
X101000000Y-150000000D03*
X132500000Y-151500000D03*
X135500000Y-151500000D03*
X124000000Y-158500000D03*
X129000000Y-107250000D03*
X105000000Y-161500000D03*
X101500000Y-111250000D03*
X116000000Y-114000000D03*
X101000000Y-138000000D03*
X101500000Y-112500000D03*
X108000000Y-161500000D03*
X101000000Y-142500000D03*
X118000000Y-132000000D03*
X101000000Y-141000000D03*
X137000000Y-150000000D03*
X114000000Y-128000000D03*
X125500000Y-158500000D03*
X137000000Y-159000000D03*
X134500000Y-161500000D03*
X111000000Y-161500000D03*
X128500000Y-161500000D03*
X132000000Y-111500000D03*
X137000000Y-141000000D03*
X109500000Y-150000000D03*
X101000000Y-144000000D03*
X137000000Y-147000000D03*
X101000000Y-151500000D03*
X131500000Y-161500000D03*
X137000000Y-156000000D03*
X112500000Y-157000000D03*
X128500000Y-139500000D03*
X130000000Y-121500000D03*
X127500000Y-132500000D03*
X130000000Y-161500000D03*
X129500000Y-142000000D03*
X116250000Y-150000000D03*
X137000000Y-145500000D03*
X137000000Y-153000000D03*
X128500000Y-141000000D03*
X114000000Y-116000000D03*
X136000000Y-161500000D03*
X137000000Y-151500000D03*
X109500000Y-148500000D03*
X101500000Y-110000000D03*
X112500000Y-161500000D03*
X131000000Y-151500000D03*
X123000000Y-116000000D03*
X137000000Y-133500000D03*
X125000000Y-112000000D03*
X116000000Y-112000000D03*
X108000000Y-151500000D03*
X137000000Y-139500000D03*
X125000000Y-114000000D03*
X116250000Y-148500000D03*
X133000000Y-161500000D03*
X114000000Y-158500000D03*
X127000000Y-161500000D03*
X108000000Y-147000000D03*
X114000000Y-112000000D03*
X135500000Y-154500000D03*
%TO.N,+3.3V*%
X129500000Y-109750000D03*
%TO.N,/LED_R*%
X106000000Y-126400000D03*
%TO.N,/LED_Y*%
X106000000Y-120250000D03*
%TO.N,/LED_G*%
X106000000Y-114475000D03*
%TO.N,/SENSOR_1*%
X129600000Y-116700000D03*
X107100000Y-111975000D03*
X106500000Y-109000000D03*
%TO.N,/SENSOR_2*%
X130600000Y-107100000D03*
X129600000Y-114250000D03*
%TO.N,/SENSOR_3*%
X136300000Y-108800000D03*
X129600000Y-115500000D03*
%TO.N,/IO_0*%
X110300000Y-141775000D03*
%TO.N,/EN*%
X123000000Y-153500000D03*
%TO.N,/Rx(USB<-ESP)*%
X119500000Y-146000000D03*
%TO.N,/L_in1*%
X116750000Y-139500000D03*
%TO.N,/L_in2*%
X117750000Y-139500000D03*
%TO.N,/R_in1*%
X107750000Y-137250000D03*
%TO.N,/R_in2*%
X106500000Y-137000000D03*
%TO.N,/USB 5V_F*%
X117500000Y-151000000D03*
X122100000Y-150200000D03*
%TO.N,Net-(U3-RXD0{slash}IO3)*%
X119000000Y-145100000D03*
%TD*%
D46*
%TO.N,Net-(U1-V3)*%
X117500000Y-148020000D02*
X117520000Y-148000000D01*
X117520000Y-148000000D02*
X118100000Y-148000000D01*
X118100000Y-148000000D02*
X118400000Y-147700000D01*
X118400000Y-147700000D02*
X119000000Y-147700000D01*
D47*
%TO.N,GND*%
X137000000Y-135000000D02*
X137000000Y-133500000D01*
X118155000Y-115967500D02*
X118917500Y-115205000D01*
X118100000Y-112500000D02*
X118100000Y-111500000D01*
X118100000Y-115912500D02*
X118100000Y-111500000D01*
D46*
X116750000Y-148750000D02*
X116250000Y-148500000D01*
D47*
X133000000Y-161500000D02*
X132500000Y-161500000D01*
X118000000Y-132000000D02*
X118500000Y-132500000D01*
X121205000Y-115967500D02*
X121205000Y-113185000D01*
X121205000Y-113185000D02*
X121250000Y-113140000D01*
X127000000Y-161500000D02*
X126500000Y-161500000D01*
X120442500Y-113680000D02*
X118917500Y-113680000D01*
X121250000Y-113140000D02*
X122140000Y-113140000D01*
X137000000Y-138000000D02*
X137000000Y-139500000D01*
X112865000Y-137385000D02*
X112865000Y-138875000D01*
X125860000Y-113140000D02*
X131900000Y-113140000D01*
D46*
X119935000Y-159385000D02*
X121135000Y-158185000D01*
D47*
X132510000Y-113750000D02*
X131900000Y-113140000D01*
X123860000Y-113140000D02*
X124140000Y-113140000D01*
X117500000Y-132500000D02*
X118000000Y-132000000D01*
D46*
X117480000Y-149000000D02*
X117000000Y-149000000D01*
X117000000Y-149000000D02*
X116750000Y-148750000D01*
D47*
X121250000Y-113140000D02*
X120500000Y-113140000D01*
X125000000Y-114000000D02*
X125860000Y-113140000D01*
X130200000Y-128500000D02*
X130200000Y-123700000D01*
D46*
X120275000Y-156235000D02*
X121275000Y-156235000D01*
D47*
X101475000Y-128500000D02*
X101475000Y-113125000D01*
X130200000Y-123700000D02*
X128000000Y-121500000D01*
X137000000Y-157500000D02*
X137000000Y-159000000D01*
X127500000Y-132500000D02*
X123000000Y-132500000D01*
X118917500Y-116730000D02*
X118100000Y-115912500D01*
X120442500Y-116730000D02*
X118917500Y-116730000D01*
X137000000Y-151500000D02*
X137000000Y-153000000D01*
X123500000Y-132500000D02*
X123500000Y-138000000D01*
X115250000Y-132500000D02*
X115250000Y-135000000D01*
X104365000Y-136885000D02*
X106250000Y-135000000D01*
X137000000Y-148500000D02*
X137000000Y-150000000D01*
X137000000Y-144000000D02*
X137000000Y-145500000D01*
X137000000Y-136500000D02*
X137000000Y-135000000D01*
X120442500Y-116730000D02*
X120442500Y-113197500D01*
X122140000Y-113140000D02*
X123000000Y-114000000D01*
X124800000Y-132500000D02*
X124800000Y-128500000D01*
D46*
X121875000Y-156115000D02*
X121875000Y-157335000D01*
X116815000Y-158185000D02*
X118015000Y-159385000D01*
D47*
X115250000Y-135000000D02*
X112865000Y-137385000D01*
X137000000Y-160500000D02*
X136000000Y-161500000D01*
X137000000Y-156000000D02*
X137000000Y-157500000D01*
X136000000Y-161500000D02*
X134500000Y-161500000D01*
D46*
X120000000Y-153525000D02*
X120275000Y-153800000D01*
X121875000Y-157335000D02*
X121975000Y-157435000D01*
X121135000Y-158185000D02*
X121725000Y-158185000D01*
D47*
X101475000Y-111500000D02*
X103100000Y-111500000D01*
X137000000Y-154500000D02*
X137000000Y-156000000D01*
X118740000Y-113140000D02*
X118100000Y-112500000D01*
D46*
X129000000Y-107250000D02*
X129500000Y-107750000D01*
X117290000Y-146310000D02*
X118000000Y-146310000D01*
D47*
X120500000Y-113140000D02*
X118740000Y-113140000D01*
D46*
X117520000Y-149000000D02*
X117500000Y-148980000D01*
X120000000Y-152100000D02*
X120000000Y-150750000D01*
D47*
X132510000Y-117050000D02*
X132210000Y-116750000D01*
D46*
X116750000Y-146850000D02*
X117290000Y-146310000D01*
D47*
X130200000Y-128500000D02*
X124800000Y-128500000D01*
X106250000Y-135000000D02*
X108750000Y-132500000D01*
X118917500Y-115205000D02*
X120442500Y-115205000D01*
D46*
X129500000Y-107750000D02*
X129500000Y-108250000D01*
D47*
X128900000Y-117800000D02*
X131950000Y-117800000D01*
X101500000Y-111250000D02*
X101500000Y-110000000D01*
X137000000Y-159000000D02*
X137000000Y-160500000D01*
X137000000Y-150000000D02*
X137000000Y-151500000D01*
X128000000Y-118700000D02*
X128900000Y-117800000D01*
X128000000Y-121500000D02*
X128000000Y-118700000D01*
X121205000Y-115967500D02*
X120442500Y-116730000D01*
X120442500Y-113197500D02*
X120500000Y-113140000D01*
X124140000Y-113140000D02*
X125000000Y-114000000D01*
X123500000Y-134000000D02*
X123500000Y-138000000D01*
X137000000Y-147000000D02*
X137000000Y-148500000D01*
X119935000Y-161435000D02*
X119935000Y-159385000D01*
D46*
X116125000Y-157335000D02*
X116025000Y-157435000D01*
X120275000Y-153800000D02*
X120275000Y-156135000D01*
X132770000Y-117500000D02*
X132510000Y-117240000D01*
D47*
X134500000Y-161500000D02*
X133000000Y-161500000D01*
X101475000Y-113125000D02*
X101475000Y-111500000D01*
X101500000Y-112500000D02*
X101500000Y-111250000D01*
X137000000Y-153000000D02*
X137000000Y-154500000D01*
X133100000Y-111940000D02*
X133100000Y-111500000D01*
X132510000Y-116450000D02*
X132510000Y-113750000D01*
X130500000Y-161500000D02*
X130000000Y-161500000D01*
X118375000Y-161500000D02*
X118015000Y-161140000D01*
D46*
X120000000Y-150750000D02*
X118250000Y-149000000D01*
D47*
X120000000Y-161500000D02*
X119935000Y-161435000D01*
X131500000Y-161500000D02*
X130500000Y-161500000D01*
X137000000Y-139500000D02*
X137000000Y-141000000D01*
X137000000Y-136500000D02*
X137000000Y-138000000D01*
X130000000Y-161500000D02*
X128500000Y-161500000D01*
X131900000Y-113140000D02*
X133100000Y-111940000D01*
X123000000Y-114000000D02*
X123860000Y-113140000D01*
X118155000Y-114442500D02*
X121205000Y-114442500D01*
D46*
X117500000Y-148980000D02*
X117480000Y-149000000D01*
X120000000Y-152225000D02*
X120000000Y-153525000D01*
D47*
X118015000Y-161140000D02*
X118015000Y-159385000D01*
X101500000Y-112500000D02*
X101500000Y-113100000D01*
X118500000Y-132500000D02*
X122800000Y-132500000D01*
X126500000Y-161500000D02*
X125500000Y-161500000D01*
X131950000Y-117800000D02*
X132510000Y-117240000D01*
X121205000Y-115967500D02*
X118155000Y-115967500D01*
X137000000Y-145500000D02*
X137000000Y-147000000D01*
X120750000Y-161500000D02*
X118375000Y-161500000D01*
X108750000Y-132500000D02*
X117500000Y-132500000D01*
X120750000Y-161500000D02*
X120000000Y-161500000D01*
D46*
X116125000Y-156135000D02*
X116125000Y-157335000D01*
D47*
X132510000Y-117240000D02*
X132510000Y-117050000D01*
X132500000Y-161500000D02*
X131500000Y-161500000D01*
D46*
X116250000Y-148500000D02*
X116750000Y-146850000D01*
D47*
X132210000Y-116750000D02*
X132510000Y-116450000D01*
X104365000Y-138875000D02*
X104365000Y-136885000D01*
D46*
X116245000Y-158185000D02*
X116815000Y-158185000D01*
D47*
X127500000Y-132500000D02*
X130500000Y-132500000D01*
X128500000Y-161500000D02*
X127000000Y-161500000D01*
D46*
X121275000Y-156235000D02*
X121395000Y-156115000D01*
X118250000Y-149000000D02*
X117520000Y-149000000D01*
X118015000Y-159385000D02*
X119935000Y-159385000D01*
X135500000Y-117500000D02*
X132770000Y-117500000D01*
D47*
X125500000Y-161500000D02*
X120750000Y-161500000D01*
X101500000Y-113100000D02*
X101475000Y-113125000D01*
X137000000Y-141000000D02*
X137000000Y-142500000D01*
X137000000Y-142500000D02*
X137000000Y-144000000D01*
%TO.N,/Vin*%
X133440000Y-119140000D02*
X135800000Y-121500000D01*
X135800000Y-128500000D02*
X135800000Y-142700000D01*
X130200000Y-119140000D02*
X133440000Y-119140000D01*
X103095000Y-135345000D02*
X102750000Y-135000000D01*
X133500000Y-145750000D02*
X132500000Y-146750000D01*
X111750000Y-135000000D02*
X111595000Y-135155000D01*
X131050000Y-146750000D02*
X124950000Y-140650000D01*
X111595000Y-135155000D02*
X111595000Y-138875000D01*
X111595000Y-140650000D02*
X111595000Y-135155000D01*
X103095000Y-139645000D02*
X103095000Y-135345000D01*
X108750000Y-145750000D02*
X108750000Y-140650000D01*
X109975000Y-140650000D02*
X111595000Y-140650000D01*
X133500000Y-145000000D02*
X133500000Y-145750000D01*
X114000000Y-148500000D02*
X111500000Y-148500000D01*
X132500000Y-146750000D02*
X131050000Y-146750000D01*
X104100000Y-140650000D02*
X103095000Y-139645000D01*
X135800000Y-142700000D02*
X133500000Y-145000000D01*
X124950000Y-140650000D02*
X104100000Y-140650000D01*
X135800000Y-121500000D02*
X135800000Y-128500000D01*
X111500000Y-148500000D02*
X108750000Y-145750000D01*
X108750000Y-140650000D02*
X108150000Y-140650000D01*
D46*
%TO.N,+3.3V*%
X116250000Y-108520000D02*
X116250000Y-109750000D01*
D47*
X119900000Y-109750000D02*
X119900000Y-111500000D01*
D46*
X131500000Y-108520000D02*
X131500000Y-109750000D01*
X136500000Y-111990000D02*
X136490000Y-111990000D01*
X102270000Y-108520000D02*
X101250000Y-108520000D01*
X129500000Y-109750000D02*
X129500000Y-108750000D01*
D47*
X106000000Y-111500000D02*
X106000000Y-112725000D01*
X119200000Y-128500000D02*
X120800000Y-128500000D01*
X119200000Y-125925000D02*
X119200000Y-128500000D01*
X104900000Y-111500000D02*
X106000000Y-111500000D01*
D46*
X136490000Y-111990000D02*
X136000000Y-111500000D01*
X136000000Y-111500000D02*
X134900000Y-111500000D01*
D47*
X116250000Y-109750000D02*
X119900000Y-109750000D01*
X122225000Y-127075000D02*
X122225000Y-122945000D01*
X134900000Y-109750000D02*
X134900000Y-111500000D01*
X120800000Y-128500000D02*
X122225000Y-127075000D01*
X106000000Y-112725000D02*
X119200000Y-125925000D01*
X106000000Y-111500000D02*
X107750000Y-109750000D01*
X107750000Y-109750000D02*
X116250000Y-109750000D01*
D46*
X104900000Y-111150000D02*
X102270000Y-108520000D01*
D47*
X119900000Y-109750000D02*
X131500000Y-109750000D01*
D46*
X104900000Y-111500000D02*
X104900000Y-111150000D01*
D47*
X131500000Y-109750000D02*
X134900000Y-109750000D01*
D46*
%TO.N,Net-(D1-A)*%
X136500000Y-113960000D02*
X135500000Y-114960000D01*
X136500000Y-113010000D02*
X136500000Y-113960000D01*
%TO.N,Net-(D2-A)*%
X105990000Y-128500000D02*
X104015000Y-128500000D01*
%TO.N,Net-(D3-A)*%
X105990000Y-122500000D02*
X104015000Y-122500000D01*
%TO.N,Net-(D4-A)*%
X105990000Y-116500000D02*
X104015000Y-116500000D01*
%TO.N,/USB 5V*%
X117500000Y-154287500D02*
X117000000Y-153787500D01*
X117500000Y-155075000D02*
X117500000Y-154287500D01*
X117675000Y-155250000D02*
X117675000Y-156235000D01*
X117675000Y-155250000D02*
X117500000Y-155075000D01*
D47*
%TO.N,/P_in1-*%
X131500000Y-141500000D02*
X133500000Y-139500000D01*
X131500000Y-145000000D02*
X131500000Y-141500000D01*
X133500000Y-139500000D02*
X133500000Y-138000000D01*
X132800000Y-137300000D02*
X132800000Y-134000000D01*
X133500000Y-138000000D02*
X132800000Y-137300000D01*
%TO.N,/P_in2-*%
X131500000Y-134000000D02*
X131500000Y-138000000D01*
X124800000Y-137300000D02*
X125500000Y-138000000D01*
X124800000Y-134000000D02*
X124800000Y-137300000D01*
X125500000Y-138000000D02*
X131500000Y-138000000D01*
D46*
%TO.N,/D-*%
X118300000Y-154610000D02*
X118300000Y-156210000D01*
%TO.N,/D+*%
X118975000Y-156235000D02*
X118975000Y-155325000D01*
X119300000Y-155000000D02*
X119300000Y-154610000D01*
X118975000Y-155325000D02*
X119300000Y-155000000D01*
D47*
%TO.N,/P_MOT_R2*%
X103500000Y-144375000D02*
X103500000Y-144500000D01*
X103500000Y-144500000D02*
X104000000Y-145000000D01*
X103750000Y-144125000D02*
X103500000Y-144375000D01*
X103095000Y-144125000D02*
X104365000Y-144125000D01*
X104000000Y-145000000D02*
X104000000Y-158000000D01*
%TO.N,/P_MOT_R1*%
X106905000Y-144125000D02*
X105635000Y-144125000D01*
X106500000Y-144125000D02*
X106250000Y-144375000D01*
X106250000Y-144375000D02*
X106250000Y-155170000D01*
X106250000Y-155170000D02*
X109080000Y-158000000D01*
%TO.N,/P_MOT_L1*%
X126500000Y-144800000D02*
X126500000Y-153500000D01*
X117000000Y-142750000D02*
X124450000Y-142750000D01*
X126500000Y-153500000D02*
X128500000Y-155500000D01*
X114135000Y-144125000D02*
X115405000Y-144125000D01*
X115625000Y-144125000D02*
X117000000Y-142750000D01*
X131580000Y-155500000D02*
X134080000Y-158000000D01*
X124450000Y-142750000D02*
X126500000Y-144800000D01*
X128500000Y-155500000D02*
X131580000Y-155500000D01*
X115405000Y-144125000D02*
X115625000Y-144125000D01*
%TO.N,/P_MOT_L2*%
X125250000Y-154000000D02*
X129000000Y-157750000D01*
X113250000Y-145750000D02*
X116000000Y-145750000D01*
X124000000Y-144000000D02*
X125250000Y-145250000D01*
X116000000Y-145750000D02*
X117750000Y-144000000D01*
X112865000Y-144135000D02*
X112250000Y-144750000D01*
X117750000Y-144000000D02*
X124000000Y-144000000D01*
X111595000Y-144125000D02*
X112865000Y-144125000D01*
X112250000Y-144750000D02*
X113250000Y-145750000D01*
X125250000Y-145250000D02*
X125250000Y-154000000D01*
X129000000Y-157750000D02*
X129000000Y-158000000D01*
X112865000Y-144125000D02*
X112865000Y-144135000D01*
D46*
%TO.N,Net-(U1-~{CTS})*%
X124125000Y-146100000D02*
X124125000Y-152100000D01*
X121000000Y-152100000D02*
X124125000Y-152100000D01*
X123985000Y-146240000D02*
X122500000Y-146240000D01*
X124125000Y-146100000D02*
X123985000Y-146240000D01*
%TO.N,Net-(U1-TNOW{slash}~{DTR})*%
X121900000Y-147700000D02*
X121000000Y-147700000D01*
X122500000Y-147260000D02*
X122340000Y-147260000D01*
X122340000Y-147260000D02*
X121900000Y-147700000D01*
%TO.N,/LED_R*%
X106000000Y-126400000D02*
X106000000Y-127480000D01*
%TO.N,/LED_Y*%
X106000000Y-120250000D02*
X106000000Y-121480000D01*
%TO.N,/LED_G*%
X106000000Y-114475000D02*
X106000000Y-115480000D01*
%TO.N,Net-(U4-A)*%
X101250000Y-107500000D02*
X103100000Y-107500000D01*
%TO.N,Net-(U5-A)*%
X116250000Y-107500000D02*
X118100000Y-107500000D01*
%TO.N,Net-(U6-A)*%
X131500000Y-107500000D02*
X133100000Y-107500000D01*
%TO.N,/SENSOR_1*%
X127600000Y-117700000D02*
X128600000Y-116700000D01*
X106400000Y-109000000D02*
X104900000Y-107500000D01*
X107100000Y-111975000D02*
X112825000Y-117700000D01*
X128600000Y-116700000D02*
X129600000Y-116700000D01*
X106500000Y-109000000D02*
X106400000Y-109000000D01*
X112825000Y-117700000D02*
X127600000Y-117700000D01*
X131190000Y-116750000D02*
X131140000Y-116700000D01*
X131140000Y-116700000D02*
X129600000Y-116700000D01*
%TO.N,/SENSOR_2*%
X128600000Y-106500000D02*
X130000000Y-106500000D01*
X129600000Y-114250000D02*
X131240000Y-114250000D01*
X119900000Y-107500000D02*
X127600000Y-107500000D01*
X127600000Y-107500000D02*
X128600000Y-106500000D01*
X130000000Y-106500000D02*
X130600000Y-107100000D01*
%TO.N,/SENSOR_3*%
X135750000Y-107500000D02*
X134900000Y-107500000D01*
X136300000Y-108050000D02*
X135750000Y-107500000D01*
X129600000Y-115500000D02*
X131240000Y-115500000D01*
X136300000Y-108800000D02*
X136300000Y-108050000D01*
%TO.N,/IO_0*%
X124775000Y-141775000D02*
X127875000Y-144875000D01*
X110300000Y-141775000D02*
X124775000Y-141775000D01*
X127875000Y-144875000D02*
X127875000Y-146100000D01*
X127875000Y-146100000D02*
X127875000Y-152100000D01*
%TO.N,/EN*%
X123000000Y-153500000D02*
X121000000Y-153500000D01*
X120500000Y-153000000D02*
X120500000Y-152100000D01*
X121000000Y-153500000D02*
X120500000Y-153000000D01*
%TO.N,/Tx(USB->ESP)*%
X120000000Y-146750000D02*
X120000000Y-147700000D01*
X120750000Y-146260000D02*
X120490000Y-146260000D01*
X120490000Y-146260000D02*
X120000000Y-146750000D01*
%TO.N,/Rx(USB<-ESP)*%
X119500000Y-146000000D02*
X119500000Y-147700000D01*
%TO.N,/L_in1*%
X116750000Y-139500000D02*
X116125000Y-138875000D01*
X116125000Y-138875000D02*
X115405000Y-138875000D01*
%TO.N,/L_in2*%
X114135000Y-137865000D02*
X114135000Y-138875000D01*
X117750000Y-138250000D02*
X116750000Y-137250000D01*
X117750000Y-139500000D02*
X117750000Y-138250000D01*
X116750000Y-137250000D02*
X114750000Y-137250000D01*
X114750000Y-137250000D02*
X114135000Y-137865000D01*
%TO.N,/R_in1*%
X106905000Y-138875000D02*
X106905000Y-138095000D01*
X106905000Y-138095000D02*
X107750000Y-137250000D01*
%TO.N,/R_in2*%
X106500000Y-137000000D02*
X105635000Y-137865000D01*
X105635000Y-137865000D02*
X105635000Y-138875000D01*
%TO.N,Net-(U1-UD+)*%
X119000000Y-153290000D02*
X119300000Y-153590000D01*
X119000000Y-152100000D02*
X119000000Y-153290000D01*
%TO.N,Net-(U1-UD-)*%
X118700000Y-151000000D02*
X119300000Y-151000000D01*
X119500000Y-151200000D02*
X119500000Y-152100000D01*
X119300000Y-151000000D02*
X119500000Y-151200000D01*
X118300000Y-151400000D02*
X118700000Y-151000000D01*
X118300000Y-153590000D02*
X118300000Y-151400000D01*
%TO.N,/USB 5V_F*%
X122100000Y-150200000D02*
X120500000Y-148600000D01*
D48*
X117000000Y-152212500D02*
X114287500Y-152212500D01*
X114287500Y-152212500D02*
X114000000Y-152500000D01*
D46*
X117500000Y-151000000D02*
X117000000Y-151500000D01*
X117000000Y-151500000D02*
X117000000Y-152212500D01*
X120500000Y-148600000D02*
X120500000Y-147700000D01*
%TO.N,Net-(U3-RXD0{slash}IO3)*%
X119000000Y-145100000D02*
X118810000Y-145290000D01*
X119140000Y-145240000D02*
X120750000Y-145240000D01*
X119000000Y-145100000D02*
X119140000Y-145240000D01*
X118810000Y-145290000D02*
X118000000Y-145290000D01*
%TD*%
%TA.AperFunction,Conductor*%
%TO.N,GND*%
G36*
X117148039Y-110770185D02*
G01*
X117193794Y-110822989D01*
X117205000Y-110874500D01*
X117205000Y-111250000D01*
X118226000Y-111250000D01*
X118293039Y-111269685D01*
X118338794Y-111322489D01*
X118350000Y-111374000D01*
X118350000Y-112830000D01*
X118353873Y-112830000D01*
X118420172Y-112823975D01*
X118488717Y-112837511D01*
X118539064Y-112885958D01*
X118555225Y-112953932D01*
X118554614Y-112961352D01*
X118554390Y-112963338D01*
X118917500Y-113326446D01*
X118917501Y-113326446D01*
X119280608Y-112963338D01*
X119277146Y-112932622D01*
X119210222Y-112934461D01*
X119200922Y-112931611D01*
X119096642Y-112895122D01*
X119096638Y-112895121D01*
X118917503Y-112874938D01*
X118917496Y-112874938D01*
X118845871Y-112883008D01*
X118777049Y-112870953D01*
X118725670Y-112823604D01*
X118708046Y-112755994D01*
X118729773Y-112689588D01*
X118744307Y-112672106D01*
X118850594Y-112565819D01*
X118893589Y-112494695D01*
X118945116Y-112447506D01*
X119013975Y-112435667D01*
X119078304Y-112462934D01*
X119105824Y-112494693D01*
X119149010Y-112566132D01*
X119268868Y-112685990D01*
X119306027Y-112708453D01*
X119353213Y-112759979D01*
X119357721Y-112786202D01*
X119401893Y-112774688D01*
X119434992Y-112780245D01*
X119575758Y-112824110D01*
X119646079Y-112830500D01*
X119955603Y-112830499D01*
X120022641Y-112850183D01*
X120068396Y-112902987D01*
X120077756Y-112961704D01*
X120442500Y-113326447D01*
X120442501Y-113326447D01*
X120805608Y-112963338D01*
X120805608Y-112963337D01*
X120791808Y-112954667D01*
X120791798Y-112954662D01*
X120621641Y-112895122D01*
X120608206Y-112893608D01*
X120543793Y-112866538D01*
X120504241Y-112808942D01*
X120502106Y-112739105D01*
X120534411Y-112682710D01*
X120650990Y-112566132D01*
X120738681Y-112421072D01*
X120789110Y-112259242D01*
X120795500Y-112188921D01*
X120795499Y-111975769D01*
X120805549Y-111926868D01*
X120810582Y-111915141D01*
X120859540Y-111801058D01*
X120870033Y-111750000D01*
X132205000Y-111750000D01*
X132205000Y-112188873D01*
X132211386Y-112259152D01*
X132261776Y-112420862D01*
X132261778Y-112420866D01*
X132349404Y-112565818D01*
X132349407Y-112565822D01*
X132469177Y-112685592D01*
X132469181Y-112685595D01*
X132614133Y-112773221D01*
X132614137Y-112773223D01*
X132775848Y-112823613D01*
X132775846Y-112823613D01*
X132846127Y-112830000D01*
X132850000Y-112830000D01*
X132850000Y-111750000D01*
X132205000Y-111750000D01*
X120870033Y-111750000D01*
X120900500Y-111601741D01*
X120900500Y-110874500D01*
X120920185Y-110807461D01*
X120972989Y-110761706D01*
X121024500Y-110750500D01*
X131398259Y-110750500D01*
X132081000Y-110750500D01*
X132148039Y-110770185D01*
X132193794Y-110822989D01*
X132205000Y-110874500D01*
X132205000Y-111250000D01*
X133226000Y-111250000D01*
X133293039Y-111269685D01*
X133338794Y-111322489D01*
X133350000Y-111374000D01*
X133350000Y-112830000D01*
X133353873Y-112830000D01*
X133424152Y-112823613D01*
X133585862Y-112773223D01*
X133585866Y-112773221D01*
X133730818Y-112685595D01*
X133730822Y-112685592D01*
X133850593Y-112565821D01*
X133893589Y-112494695D01*
X133945116Y-112447506D01*
X134013975Y-112435667D01*
X134078304Y-112462934D01*
X134105824Y-112494693D01*
X134149010Y-112566132D01*
X134268867Y-112685989D01*
X134268871Y-112685992D01*
X134356731Y-112739105D01*
X134413928Y-112773681D01*
X134413930Y-112773681D01*
X134413931Y-112773682D01*
X134417506Y-112774796D01*
X134575758Y-112824110D01*
X134646079Y-112830500D01*
X135153920Y-112830499D01*
X135153927Y-112830499D01*
X135224235Y-112824111D01*
X135224236Y-112824110D01*
X135224242Y-112824110D01*
X135386072Y-112773681D01*
X135491352Y-112710037D01*
X135558905Y-112692202D01*
X135625379Y-112713720D01*
X135669666Y-112767760D01*
X135679500Y-112816155D01*
X135679501Y-113209181D01*
X135682335Y-113245205D01*
X135727570Y-113400905D01*
X135727371Y-113470775D01*
X135689429Y-113529445D01*
X135625790Y-113558288D01*
X135608494Y-113559500D01*
X135383951Y-113559500D01*
X135361892Y-113563181D01*
X135155015Y-113597702D01*
X134935504Y-113673061D01*
X134935495Y-113673064D01*
X134731371Y-113783531D01*
X134731365Y-113783535D01*
X134548222Y-113926081D01*
X134548219Y-113926084D01*
X134548216Y-113926086D01*
X134548216Y-113926087D01*
X134498038Y-113980595D01*
X134391016Y-114096852D01*
X134264075Y-114291151D01*
X134170842Y-114503699D01*
X134113866Y-114728691D01*
X134113864Y-114728702D01*
X134094700Y-114959993D01*
X134094700Y-114960006D01*
X134113864Y-115191297D01*
X134113866Y-115191308D01*
X134170842Y-115416300D01*
X134264075Y-115628848D01*
X134391018Y-115823150D01*
X134486167Y-115926510D01*
X134517089Y-115989164D01*
X134509228Y-116058590D01*
X134465081Y-116112746D01*
X134438271Y-116126674D01*
X134357911Y-116156646D01*
X134357906Y-116156649D01*
X134242812Y-116242809D01*
X134242809Y-116242812D01*
X134156649Y-116357906D01*
X134156645Y-116357913D01*
X134106403Y-116492620D01*
X134106401Y-116492627D01*
X134100000Y-116552155D01*
X134100000Y-117250000D01*
X135124722Y-117250000D01*
X135076375Y-117333740D01*
X135046190Y-117465992D01*
X135056327Y-117601265D01*
X135105887Y-117727541D01*
X135123797Y-117750000D01*
X134100000Y-117750000D01*
X134100000Y-118146346D01*
X134080315Y-118213385D01*
X134027511Y-118259140D01*
X133958353Y-118269084D01*
X133927100Y-118260297D01*
X133871681Y-118236515D01*
X133867424Y-118234493D01*
X133813057Y-118206094D01*
X133813050Y-118206091D01*
X133813049Y-118206091D01*
X133802516Y-118203077D01*
X133780030Y-118196642D01*
X133772630Y-118194008D01*
X133741057Y-118180459D01*
X133741058Y-118180459D01*
X133680966Y-118168109D01*
X133676391Y-118166986D01*
X133617420Y-118150113D01*
X133617425Y-118150113D01*
X133583158Y-118147503D01*
X133575380Y-118146412D01*
X133541742Y-118139500D01*
X133541741Y-118139500D01*
X133480402Y-118139500D01*
X133475695Y-118139321D01*
X133470121Y-118138896D01*
X133414524Y-118134662D01*
X133394589Y-118137201D01*
X133380440Y-118139003D01*
X133372611Y-118139500D01*
X131460132Y-118139500D01*
X131395036Y-118121039D01*
X131369334Y-118105186D01*
X131202797Y-118050001D01*
X131202795Y-118050000D01*
X131100010Y-118039500D01*
X129299998Y-118039500D01*
X129299981Y-118039501D01*
X129197203Y-118050000D01*
X129197200Y-118050001D01*
X129030668Y-118105185D01*
X129030663Y-118105187D01*
X128881342Y-118197289D01*
X128757289Y-118321342D01*
X128665187Y-118470663D01*
X128665185Y-118470666D01*
X128665186Y-118470666D01*
X128610001Y-118637203D01*
X128610001Y-118637204D01*
X128610000Y-118637204D01*
X128599500Y-118739983D01*
X128599500Y-119540001D01*
X128599501Y-119540019D01*
X128610000Y-119642796D01*
X128610001Y-119642799D01*
X128665185Y-119809331D01*
X128665186Y-119809334D01*
X128757288Y-119958656D01*
X128881344Y-120082712D01*
X129030666Y-120174814D01*
X129197203Y-120229999D01*
X129299991Y-120240500D01*
X131100008Y-120240499D01*
X131202797Y-120229999D01*
X131369334Y-120174814D01*
X131395036Y-120158960D01*
X131460132Y-120140500D01*
X132974217Y-120140500D01*
X133041256Y-120160185D01*
X133061898Y-120176819D01*
X134763181Y-121878101D01*
X134796666Y-121939424D01*
X134799500Y-121965782D01*
X134799500Y-127075500D01*
X134779815Y-127142539D01*
X134727011Y-127188294D01*
X134675500Y-127199500D01*
X134249998Y-127199500D01*
X134249980Y-127199501D01*
X134147203Y-127210000D01*
X134147200Y-127210001D01*
X133980668Y-127265185D01*
X133980663Y-127265187D01*
X133831342Y-127357289D01*
X133707289Y-127481342D01*
X133615187Y-127630663D01*
X133615185Y-127630668D01*
X133615115Y-127630880D01*
X133560001Y-127797203D01*
X133560001Y-127797204D01*
X133560000Y-127797204D01*
X133549500Y-127899983D01*
X133549500Y-129100001D01*
X133549501Y-129100018D01*
X133560000Y-129202796D01*
X133560001Y-129202799D01*
X133591226Y-129297028D01*
X133615186Y-129369334D01*
X133707288Y-129518656D01*
X133831344Y-129642712D01*
X133980666Y-129734814D01*
X134147203Y-129789999D01*
X134249991Y-129800500D01*
X134675500Y-129800499D01*
X134742539Y-129820183D01*
X134788294Y-129872987D01*
X134799500Y-129924499D01*
X134799500Y-137086011D01*
X134779815Y-137153050D01*
X134727011Y-137198805D01*
X134657853Y-137208749D01*
X134594297Y-137179724D01*
X134557794Y-137125016D01*
X134544869Y-137086011D01*
X134534814Y-137055666D01*
X134442712Y-136906344D01*
X134318656Y-136782288D01*
X134214078Y-136717784D01*
X134169336Y-136690187D01*
X134169331Y-136690185D01*
X134101228Y-136667618D01*
X134002797Y-136635001D01*
X134002794Y-136635000D01*
X133911897Y-136625714D01*
X133847205Y-136599317D01*
X133807054Y-136542136D01*
X133800500Y-136502356D01*
X133800500Y-134366594D01*
X133801762Y-134348947D01*
X133801968Y-134347512D01*
X133805642Y-134321962D01*
X133805642Y-134265603D01*
X133805646Y-134265585D01*
X133805646Y-134214236D01*
X133805647Y-134214236D01*
X133805647Y-133785764D01*
X133805646Y-133785764D01*
X133805646Y-133734476D01*
X133805642Y-133734396D01*
X133805642Y-133678039D01*
X133805642Y-133678038D01*
X133785180Y-133535723D01*
X133785180Y-133535722D01*
X133785180Y-133535720D01*
X133744632Y-133397631D01*
X133744627Y-133397618D01*
X133684910Y-133266856D01*
X133684897Y-133266833D01*
X133607103Y-133145783D01*
X133607088Y-133145762D01*
X133512943Y-133037113D01*
X133512940Y-133037110D01*
X133404170Y-132942861D01*
X133404164Y-132942857D01*
X133283221Y-132865131D01*
X133283217Y-132865129D01*
X133283216Y-132865129D01*
X133152300Y-132805342D01*
X133054158Y-132776525D01*
X133014342Y-132764834D01*
X132871889Y-132744353D01*
X132300000Y-132744353D01*
X132228040Y-132749499D01*
X132190728Y-132760455D01*
X132138149Y-132764215D01*
X132000000Y-132744353D01*
X131428111Y-132744353D01*
X131428110Y-132744353D01*
X131285658Y-132764834D01*
X131285656Y-132764834D01*
X131147700Y-132805342D01*
X131016784Y-132865129D01*
X131016782Y-132865129D01*
X130895831Y-132942860D01*
X130787060Y-133037108D01*
X130787058Y-133037110D01*
X130692911Y-133145762D01*
X130692896Y-133145783D01*
X130615102Y-133266833D01*
X130615089Y-133266856D01*
X130555183Y-133398033D01*
X130554743Y-133399758D01*
X130514821Y-133535717D01*
X130514818Y-133535727D01*
X130494358Y-133678038D01*
X130494358Y-133734397D01*
X130494353Y-133734414D01*
X130494353Y-134265556D01*
X130494358Y-134265603D01*
X130494358Y-134321966D01*
X130497469Y-134343605D01*
X130498031Y-134347516D01*
X130498237Y-134348945D01*
X130499499Y-134366589D01*
X130499499Y-135652483D01*
X130499500Y-136875500D01*
X130479815Y-136942539D01*
X130427012Y-136988294D01*
X130375500Y-136999500D01*
X126569378Y-136999500D01*
X126502339Y-136979815D01*
X126463839Y-136940597D01*
X126442712Y-136906344D01*
X126318656Y-136782288D01*
X126214078Y-136717784D01*
X126169336Y-136690187D01*
X126169331Y-136690185D01*
X126101228Y-136667618D01*
X126002797Y-136635001D01*
X126002794Y-136635000D01*
X125911897Y-136625714D01*
X125847205Y-136599317D01*
X125807054Y-136542136D01*
X125800500Y-136502356D01*
X125800500Y-134366594D01*
X125801762Y-134348947D01*
X125801968Y-134347512D01*
X125805642Y-134321962D01*
X125805642Y-134265603D01*
X125805646Y-134265585D01*
X125805646Y-134214236D01*
X125805647Y-134214236D01*
X125805647Y-133785764D01*
X125805647Y-133734443D01*
X125805642Y-133734397D01*
X125805642Y-133678039D01*
X125805642Y-133678038D01*
X125785180Y-133535723D01*
X125785180Y-133535722D01*
X125785180Y-133535720D01*
X125744632Y-133397631D01*
X125744627Y-133397618D01*
X125684910Y-133266856D01*
X125684897Y-133266833D01*
X125607103Y-133145783D01*
X125607088Y-133145762D01*
X125512943Y-133037113D01*
X125512940Y-133037110D01*
X125404170Y-132942861D01*
X125404164Y-132942857D01*
X125283221Y-132865131D01*
X125283217Y-132865129D01*
X125283216Y-132865129D01*
X125152300Y-132805342D01*
X125054158Y-132776525D01*
X125014342Y-132764834D01*
X124871889Y-132744353D01*
X124300000Y-132744353D01*
X124228039Y-132749499D01*
X124228034Y-132749500D01*
X124089949Y-132790045D01*
X123968873Y-132867856D01*
X123874623Y-132976626D01*
X123874622Y-132976628D01*
X123814834Y-133107543D01*
X123794353Y-133250001D01*
X123794353Y-133734402D01*
X123794352Y-134234396D01*
X123794353Y-134234401D01*
X123794353Y-134750001D01*
X123799341Y-134819752D01*
X123799499Y-134824176D01*
X123799500Y-136550110D01*
X123779815Y-136617149D01*
X123756703Y-136643823D01*
X123750000Y-136649631D01*
X123750000Y-137719382D01*
X123680948Y-137665637D01*
X123562576Y-137625000D01*
X123468927Y-137625000D01*
X123376554Y-137640414D01*
X123266486Y-137699981D01*
X123249999Y-137717890D01*
X123250000Y-136653740D01*
X123249999Y-136653740D01*
X123138594Y-136680768D01*
X123138582Y-136680772D01*
X122947497Y-136768037D01*
X122947496Y-136768038D01*
X122776380Y-136889889D01*
X122776374Y-136889895D01*
X122631407Y-137041932D01*
X122517833Y-137218657D01*
X122439755Y-137413685D01*
X122400000Y-137619962D01*
X122400000Y-137750000D01*
X123220440Y-137750000D01*
X123181722Y-137792059D01*
X123131449Y-137906670D01*
X123121114Y-138031395D01*
X123151837Y-138152719D01*
X123215394Y-138250000D01*
X122400000Y-138250000D01*
X122400000Y-138327398D01*
X122414965Y-138484122D01*
X122414966Y-138484126D01*
X122474149Y-138685686D01*
X122570413Y-138872414D01*
X122700268Y-139037537D01*
X122700271Y-139037540D01*
X122859030Y-139175105D01*
X122859041Y-139175114D01*
X123040960Y-139280144D01*
X123040967Y-139280147D01*
X123239487Y-139348856D01*
X123250000Y-139350367D01*
X123250000Y-138280617D01*
X123319052Y-138334363D01*
X123437424Y-138375000D01*
X123531073Y-138375000D01*
X123623446Y-138359586D01*
X123733514Y-138300019D01*
X123750000Y-138282110D01*
X123750000Y-139346257D01*
X123861409Y-139319229D01*
X124052507Y-139231959D01*
X124223619Y-139110110D01*
X124223625Y-139110104D01*
X124321478Y-139007478D01*
X124381987Y-138972543D01*
X124451777Y-138975867D01*
X124508692Y-139016394D01*
X124516761Y-139027951D01*
X124536160Y-139059403D01*
X124557288Y-139093656D01*
X124681344Y-139217712D01*
X124830666Y-139309814D01*
X124997203Y-139364999D01*
X125099991Y-139375500D01*
X125900008Y-139375499D01*
X125900016Y-139375498D01*
X125900019Y-139375498D01*
X125961143Y-139369254D01*
X126002797Y-139364999D01*
X126169334Y-139309814D01*
X126318656Y-139217712D01*
X126442712Y-139093656D01*
X126463839Y-139059402D01*
X126515787Y-139012679D01*
X126569378Y-139000500D01*
X130611160Y-139000500D01*
X130678199Y-139020185D01*
X130695239Y-139034253D01*
X130695444Y-139034018D01*
X130858746Y-139175521D01*
X131040750Y-139280601D01*
X131040752Y-139280601D01*
X131040756Y-139280604D01*
X131239367Y-139349344D01*
X131447398Y-139379254D01*
X131657330Y-139369254D01*
X131861576Y-139319704D01*
X131979610Y-139265799D01*
X132048770Y-139255855D01*
X132112325Y-139284880D01*
X132150100Y-139343658D01*
X132150100Y-139413527D01*
X132118804Y-139466274D01*
X130801531Y-140783547D01*
X130736946Y-140844942D01*
X130701899Y-140895294D01*
X130699062Y-140899056D01*
X130660302Y-140946592D01*
X130660299Y-140946597D01*
X130644392Y-140977047D01*
X130640324Y-140983761D01*
X130620702Y-141011954D01*
X130596509Y-141068330D01*
X130594488Y-141072584D01*
X130566091Y-141126951D01*
X130566090Y-141126952D01*
X130556640Y-141159975D01*
X130554007Y-141167371D01*
X130540459Y-141198943D01*
X130528113Y-141259019D01*
X130526990Y-141263595D01*
X130510113Y-141322577D01*
X130510113Y-141322579D01*
X130507503Y-141356841D01*
X130506414Y-141364608D01*
X130503752Y-141377561D01*
X130499499Y-141398258D01*
X130499500Y-141459597D01*
X130499321Y-141464306D01*
X130494662Y-141525474D01*
X130495149Y-141529295D01*
X130499003Y-141559560D01*
X130499500Y-141567388D01*
X130499500Y-144239207D01*
X130490618Y-144285292D01*
X130439276Y-144413540D01*
X130433270Y-144444699D01*
X130401252Y-144506801D01*
X130340742Y-144541734D01*
X130270952Y-144538408D01*
X130223830Y-144508910D01*
X125666452Y-139951532D01*
X125605061Y-139886949D01*
X125605060Y-139886948D01*
X125605059Y-139886947D01*
X125577204Y-139867559D01*
X125554709Y-139851902D01*
X125550946Y-139849064D01*
X125503413Y-139810305D01*
X125503406Y-139810300D01*
X125472959Y-139794397D01*
X125466251Y-139790334D01*
X125438049Y-139770705D01*
X125438046Y-139770703D01*
X125438045Y-139770703D01*
X125438041Y-139770701D01*
X125381680Y-139746514D01*
X125377424Y-139744493D01*
X125323057Y-139716094D01*
X125323050Y-139716091D01*
X125323049Y-139716091D01*
X125317008Y-139714362D01*
X125290030Y-139706642D01*
X125282630Y-139704008D01*
X125251057Y-139690459D01*
X125251058Y-139690459D01*
X125190966Y-139678109D01*
X125186391Y-139676986D01*
X125127420Y-139660113D01*
X125127425Y-139660113D01*
X125093158Y-139657503D01*
X125085380Y-139656412D01*
X125051742Y-139649500D01*
X125051741Y-139649500D01*
X124990402Y-139649500D01*
X124985695Y-139649321D01*
X124980121Y-139648896D01*
X124924524Y-139644662D01*
X124904589Y-139647201D01*
X124890440Y-139649003D01*
X124882611Y-139649500D01*
X118777463Y-139649500D01*
X118710424Y-139629815D01*
X118664669Y-139577011D01*
X118654142Y-139512539D01*
X118655460Y-139500000D01*
X118635674Y-139311744D01*
X118577179Y-139131716D01*
X118482533Y-138967784D01*
X118432350Y-138912050D01*
X118402120Y-138849058D01*
X118400500Y-138829078D01*
X118400500Y-138335503D01*
X118402268Y-138319491D01*
X118402026Y-138319469D01*
X118402760Y-138311706D01*
X118402726Y-138310638D01*
X118400500Y-138239782D01*
X118400500Y-138209075D01*
X118399579Y-138201792D01*
X118399123Y-138195987D01*
X118398046Y-138161706D01*
X118397598Y-138147431D01*
X118391676Y-138127050D01*
X118387731Y-138107995D01*
X118385072Y-138086949D01*
X118385071Y-138086948D01*
X118385071Y-138086942D01*
X118367189Y-138041779D01*
X118365300Y-138036259D01*
X118363044Y-138028494D01*
X118351745Y-137989602D01*
X118351142Y-137988583D01*
X118340936Y-137971324D01*
X118332378Y-137953855D01*
X118324568Y-137934129D01*
X118296006Y-137894818D01*
X118292818Y-137889964D01*
X118268081Y-137848135D01*
X118253075Y-137833129D01*
X118240435Y-137818330D01*
X118227961Y-137801160D01*
X118190528Y-137770194D01*
X118186206Y-137766260D01*
X117270434Y-136850488D01*
X117260361Y-136837914D01*
X117260174Y-136838070D01*
X117255201Y-136832059D01*
X117202756Y-136782810D01*
X117181035Y-136761089D01*
X117175240Y-136756594D01*
X117170798Y-136752799D01*
X117135396Y-136719554D01*
X117135388Y-136719548D01*
X117116792Y-136709325D01*
X117100531Y-136698644D01*
X117083763Y-136685637D01*
X117060180Y-136675432D01*
X117039178Y-136666343D01*
X117033956Y-136663786D01*
X116991368Y-136640373D01*
X116991365Y-136640372D01*
X116970801Y-136635092D01*
X116952396Y-136628790D01*
X116932927Y-136620365D01*
X116932921Y-136620363D01*
X116884951Y-136612766D01*
X116879236Y-136611582D01*
X116862772Y-136607355D01*
X116832180Y-136599500D01*
X116832177Y-136599500D01*
X116810955Y-136599500D01*
X116791555Y-136597973D01*
X116770596Y-136594653D01*
X116770595Y-136594653D01*
X116746786Y-136596903D01*
X116722230Y-136599225D01*
X116716392Y-136599500D01*
X114835504Y-136599500D01*
X114819493Y-136597732D01*
X114819471Y-136597974D01*
X114811704Y-136597240D01*
X114811703Y-136597240D01*
X114739796Y-136599500D01*
X114709075Y-136599500D01*
X114709071Y-136599500D01*
X114709061Y-136599501D01*
X114701793Y-136600419D01*
X114695976Y-136600876D01*
X114647435Y-136602402D01*
X114647424Y-136602404D01*
X114627048Y-136608323D01*
X114608008Y-136612266D01*
X114586947Y-136614927D01*
X114586939Y-136614929D01*
X114541775Y-136632811D01*
X114536247Y-136634703D01*
X114489602Y-136648255D01*
X114471332Y-136659060D01*
X114453863Y-136667618D01*
X114434128Y-136675432D01*
X114434126Y-136675433D01*
X114394839Y-136703977D01*
X114389956Y-136707184D01*
X114348132Y-136731919D01*
X114333126Y-136746926D01*
X114318336Y-136759558D01*
X114301167Y-136772032D01*
X114301165Y-136772034D01*
X114270194Y-136809470D01*
X114266262Y-136813791D01*
X113735483Y-137344569D01*
X113722910Y-137354643D01*
X113723065Y-137354830D01*
X113711047Y-137364772D01*
X113708949Y-137362236D01*
X113661551Y-137389965D01*
X113591743Y-137387039D01*
X113534598Y-137346837D01*
X113508260Y-137282121D01*
X113508011Y-137259899D01*
X113508790Y-137250000D01*
X112980000Y-137250000D01*
X112980000Y-137510000D01*
X112991000Y-137510000D01*
X113058039Y-137529685D01*
X113103794Y-137582489D01*
X113115000Y-137634000D01*
X113115000Y-139001000D01*
X113095315Y-139068039D01*
X113042511Y-139113794D01*
X112991000Y-139125000D01*
X112739000Y-139125000D01*
X112671961Y-139105315D01*
X112626206Y-139052511D01*
X112615000Y-139001000D01*
X112615000Y-137836017D01*
X112598334Y-137805496D01*
X112595500Y-137779138D01*
X112595500Y-136874000D01*
X112615185Y-136806961D01*
X112667989Y-136761206D01*
X112719500Y-136750000D01*
X113508790Y-136750000D01*
X113507145Y-136729089D01*
X113462031Y-136573804D01*
X113379721Y-136434625D01*
X113379714Y-136434616D01*
X113265383Y-136320285D01*
X113265374Y-136320278D01*
X113126196Y-136237969D01*
X113067922Y-136221039D01*
X113009037Y-136183432D01*
X112979830Y-136119960D01*
X112989576Y-136050773D01*
X112993686Y-136042533D01*
X112993794Y-136042333D01*
X112993796Y-136042331D01*
X113044091Y-135907483D01*
X113050500Y-135847873D01*
X113050500Y-135000002D01*
X113945034Y-135000002D01*
X113964858Y-135226599D01*
X113964860Y-135226610D01*
X114023730Y-135446317D01*
X114023734Y-135446326D01*
X114119865Y-135652481D01*
X114119866Y-135652483D01*
X114170973Y-135725471D01*
X114170974Y-135725472D01*
X114852046Y-135044399D01*
X114864835Y-135125148D01*
X114922359Y-135238045D01*
X115011955Y-135327641D01*
X115124852Y-135385165D01*
X115205599Y-135397953D01*
X114524526Y-136079025D01*
X114524526Y-136079026D01*
X114597512Y-136130131D01*
X114597516Y-136130133D01*
X114803673Y-136226265D01*
X114803682Y-136226269D01*
X115023389Y-136285139D01*
X115023400Y-136285141D01*
X115249998Y-136304966D01*
X115250002Y-136304966D01*
X115476599Y-136285141D01*
X115476610Y-136285139D01*
X115696317Y-136226269D01*
X115696331Y-136226264D01*
X115902478Y-136130136D01*
X115975472Y-136079025D01*
X115294401Y-135397953D01*
X115375148Y-135385165D01*
X115488045Y-135327641D01*
X115577641Y-135238045D01*
X115635165Y-135125148D01*
X115647953Y-135044400D01*
X116329025Y-135725472D01*
X116380136Y-135652478D01*
X116476264Y-135446331D01*
X116476269Y-135446317D01*
X116535139Y-135226610D01*
X116535141Y-135226599D01*
X116554966Y-135000002D01*
X116554966Y-134999997D01*
X116535141Y-134773400D01*
X116535139Y-134773389D01*
X116476269Y-134553682D01*
X116476265Y-134553673D01*
X116380133Y-134347516D01*
X116380131Y-134347512D01*
X116329026Y-134274526D01*
X116329025Y-134274526D01*
X115647953Y-134955598D01*
X115635165Y-134874852D01*
X115577641Y-134761955D01*
X115488045Y-134672359D01*
X115375148Y-134614835D01*
X115294400Y-134602046D01*
X115975472Y-133920974D01*
X115975471Y-133920973D01*
X115902483Y-133869866D01*
X115902481Y-133869865D01*
X115696326Y-133773734D01*
X115696317Y-133773730D01*
X115476610Y-133714860D01*
X115476599Y-133714858D01*
X115250002Y-133695034D01*
X115249998Y-133695034D01*
X115023400Y-133714858D01*
X115023389Y-133714860D01*
X114803682Y-133773730D01*
X114803673Y-133773734D01*
X114597513Y-133869868D01*
X114524527Y-133920972D01*
X114524526Y-133920973D01*
X115205600Y-134602046D01*
X115124852Y-134614835D01*
X115011955Y-134672359D01*
X114922359Y-134761955D01*
X114864835Y-134874852D01*
X114852046Y-134955599D01*
X114170973Y-134274526D01*
X114170972Y-134274527D01*
X114119868Y-134347513D01*
X114023734Y-134553673D01*
X114023730Y-134553682D01*
X113964860Y-134773389D01*
X113964858Y-134773400D01*
X113945034Y-134999997D01*
X113945034Y-135000002D01*
X113050500Y-135000002D01*
X113050499Y-134152128D01*
X113044091Y-134092517D01*
X112993796Y-133957669D01*
X112993795Y-133957668D01*
X112993793Y-133957664D01*
X112907547Y-133842455D01*
X112907544Y-133842452D01*
X112792335Y-133756206D01*
X112792328Y-133756202D01*
X112657482Y-133705908D01*
X112657483Y-133705908D01*
X112597883Y-133699501D01*
X112597881Y-133699500D01*
X112597873Y-133699500D01*
X112597864Y-133699500D01*
X110902129Y-133699500D01*
X110902123Y-133699501D01*
X110842516Y-133705908D01*
X110707671Y-133756202D01*
X110707664Y-133756206D01*
X110592455Y-133842452D01*
X110592452Y-133842455D01*
X110506206Y-133957664D01*
X110506202Y-133957671D01*
X110455908Y-134092517D01*
X110449501Y-134152116D01*
X110449501Y-134152123D01*
X110449500Y-134152135D01*
X110449500Y-135847870D01*
X110449501Y-135847876D01*
X110455908Y-135907483D01*
X110506202Y-136042328D01*
X110506204Y-136042331D01*
X110569766Y-136127239D01*
X110594184Y-136192702D01*
X110594500Y-136201550D01*
X110594500Y-139525500D01*
X110574815Y-139592539D01*
X110522011Y-139638294D01*
X110470500Y-139649500D01*
X108776929Y-139649500D01*
X108773789Y-139649420D01*
X108699064Y-139645631D01*
X108699060Y-139645631D01*
X108683143Y-139648070D01*
X108664367Y-139649500D01*
X107829500Y-139649500D01*
X107762461Y-139629815D01*
X107716706Y-139577011D01*
X107705500Y-139525500D01*
X107705500Y-138274500D01*
X107725185Y-138207461D01*
X107777989Y-138161706D01*
X107829500Y-138150500D01*
X107844644Y-138150500D01*
X107844646Y-138150500D01*
X108029803Y-138111144D01*
X108202730Y-138034151D01*
X108355871Y-137922888D01*
X108482533Y-137782216D01*
X108577179Y-137618284D01*
X108635674Y-137438256D01*
X108655460Y-137250000D01*
X108635674Y-137061744D01*
X108577179Y-136881716D01*
X108482533Y-136717784D01*
X108355871Y-136577112D01*
X108318706Y-136550110D01*
X108202734Y-136465851D01*
X108202729Y-136465848D01*
X108029807Y-136388857D01*
X108029802Y-136388855D01*
X107884000Y-136357865D01*
X107844646Y-136349500D01*
X107655354Y-136349500D01*
X107622897Y-136356398D01*
X107470197Y-136388855D01*
X107470192Y-136388857D01*
X107332117Y-136450333D01*
X107262867Y-136459618D01*
X107199590Y-136429990D01*
X107189531Y-136420026D01*
X107161466Y-136388857D01*
X107105871Y-136327112D01*
X107105870Y-136327111D01*
X107008634Y-136256465D01*
X106965968Y-136201135D01*
X106959989Y-136131522D01*
X106973044Y-136106779D01*
X106975472Y-136079025D01*
X106294401Y-135397953D01*
X106375148Y-135385165D01*
X106488045Y-135327641D01*
X106577641Y-135238045D01*
X106635165Y-135125148D01*
X106647953Y-135044400D01*
X107329025Y-135725472D01*
X107380136Y-135652478D01*
X107476264Y-135446331D01*
X107476269Y-135446317D01*
X107535139Y-135226610D01*
X107535141Y-135226599D01*
X107554966Y-135000002D01*
X107554966Y-134999997D01*
X107535141Y-134773400D01*
X107535139Y-134773389D01*
X107476269Y-134553682D01*
X107476265Y-134553673D01*
X107380133Y-134347516D01*
X107380131Y-134347512D01*
X107329026Y-134274526D01*
X107329025Y-134274526D01*
X106647953Y-134955598D01*
X106635165Y-134874852D01*
X106577641Y-134761955D01*
X106488045Y-134672359D01*
X106375148Y-134614835D01*
X106294400Y-134602046D01*
X106975472Y-133920974D01*
X106975471Y-133920973D01*
X106902483Y-133869866D01*
X106902481Y-133869865D01*
X106696326Y-133773734D01*
X106696317Y-133773730D01*
X106476610Y-133714860D01*
X106476599Y-133714858D01*
X106250002Y-133695034D01*
X106249998Y-133695034D01*
X106023400Y-133714858D01*
X106023389Y-133714860D01*
X105803682Y-133773730D01*
X105803673Y-133773734D01*
X105597513Y-133869868D01*
X105524527Y-133920972D01*
X105524526Y-133920973D01*
X106205600Y-134602046D01*
X106124852Y-134614835D01*
X106011955Y-134672359D01*
X105922359Y-134761955D01*
X105864835Y-134874852D01*
X105852046Y-134955599D01*
X105170973Y-134274526D01*
X105170972Y-134274527D01*
X105119868Y-134347513D01*
X105023734Y-134553673D01*
X105023730Y-134553682D01*
X104964860Y-134773389D01*
X104964858Y-134773400D01*
X104945034Y-134999997D01*
X104945034Y-135000002D01*
X104964858Y-135226599D01*
X104964860Y-135226610D01*
X105023730Y-135446317D01*
X105023734Y-135446326D01*
X105119865Y-135652481D01*
X105119866Y-135652483D01*
X105170973Y-135725471D01*
X105170974Y-135725472D01*
X105852046Y-135044399D01*
X105864835Y-135125148D01*
X105922359Y-135238045D01*
X106011955Y-135327641D01*
X106124852Y-135385165D01*
X106205599Y-135397953D01*
X105524526Y-136079025D01*
X105524526Y-136079026D01*
X105597512Y-136130131D01*
X105597516Y-136130133D01*
X105779456Y-136214973D01*
X105831895Y-136261145D01*
X105851047Y-136328339D01*
X105830831Y-136395220D01*
X105819201Y-136410327D01*
X105767466Y-136467784D01*
X105672821Y-136631715D01*
X105672818Y-136631722D01*
X105614327Y-136811739D01*
X105614326Y-136811741D01*
X105600831Y-136940142D01*
X105574246Y-137004757D01*
X105565191Y-137014861D01*
X105235483Y-137344569D01*
X105222910Y-137354643D01*
X105223065Y-137354830D01*
X105211047Y-137364772D01*
X105208949Y-137362236D01*
X105161551Y-137389965D01*
X105091743Y-137387039D01*
X105034598Y-137346837D01*
X105008260Y-137282121D01*
X105008011Y-137259899D01*
X105008790Y-137250000D01*
X104480000Y-137250000D01*
X104480000Y-137510000D01*
X104491000Y-137510000D01*
X104558039Y-137529685D01*
X104603794Y-137582489D01*
X104615000Y-137634000D01*
X104615000Y-139001000D01*
X104595315Y-139068039D01*
X104542511Y-139113794D01*
X104491000Y-139125000D01*
X104239000Y-139125000D01*
X104171961Y-139105315D01*
X104126206Y-139052511D01*
X104115000Y-139001000D01*
X104115000Y-137836018D01*
X104098333Y-137805495D01*
X104095499Y-137779142D01*
X104095499Y-136749999D01*
X104479999Y-136749999D01*
X104480000Y-136750000D01*
X105008790Y-136750000D01*
X105007145Y-136729089D01*
X104962031Y-136573804D01*
X104879721Y-136434625D01*
X104879714Y-136434616D01*
X104765383Y-136320285D01*
X104765374Y-136320278D01*
X104626193Y-136237967D01*
X104626190Y-136237965D01*
X104480001Y-136195493D01*
X104480000Y-136195494D01*
X104479999Y-136749999D01*
X104095499Y-136749999D01*
X104095499Y-135357715D01*
X104097757Y-135268637D01*
X104086933Y-135208253D01*
X104086280Y-135203587D01*
X104083034Y-135171674D01*
X104080074Y-135142562D01*
X104069788Y-135109780D01*
X104067918Y-135102166D01*
X104061858Y-135068348D01*
X104059345Y-135062056D01*
X104050499Y-135016061D01*
X104050499Y-134152129D01*
X104050498Y-134152123D01*
X104050497Y-134152116D01*
X104044091Y-134092517D01*
X103993796Y-133957669D01*
X103993795Y-133957668D01*
X103993793Y-133957664D01*
X103907547Y-133842455D01*
X103907544Y-133842452D01*
X103792335Y-133756206D01*
X103792328Y-133756202D01*
X103657482Y-133705908D01*
X103657483Y-133705908D01*
X103597883Y-133699501D01*
X103597881Y-133699500D01*
X103597873Y-133699500D01*
X103597864Y-133699500D01*
X101902129Y-133699500D01*
X101902123Y-133699501D01*
X101842516Y-133705908D01*
X101707671Y-133756202D01*
X101707664Y-133756206D01*
X101592455Y-133842452D01*
X101592452Y-133842455D01*
X101506206Y-133957664D01*
X101506202Y-133957671D01*
X101455908Y-134092517D01*
X101449501Y-134152116D01*
X101449501Y-134152123D01*
X101449500Y-134152135D01*
X101449500Y-135847870D01*
X101449501Y-135847876D01*
X101455908Y-135907483D01*
X101506202Y-136042328D01*
X101506206Y-136042335D01*
X101592452Y-136157544D01*
X101592455Y-136157547D01*
X101707664Y-136243793D01*
X101707671Y-136243797D01*
X101741636Y-136256465D01*
X101842517Y-136294091D01*
X101902127Y-136300500D01*
X101970500Y-136300499D01*
X102037538Y-136320183D01*
X102083294Y-136372986D01*
X102094500Y-136424499D01*
X102094500Y-139632283D01*
X102092243Y-139721362D01*
X102092243Y-139721370D01*
X102103064Y-139781739D01*
X102103718Y-139786404D01*
X102109925Y-139847430D01*
X102109927Y-139847444D01*
X102120208Y-139880213D01*
X102122079Y-139887837D01*
X102128142Y-139921652D01*
X102128142Y-139921655D01*
X102150894Y-139978612D01*
X102152474Y-139983051D01*
X102170841Y-140041588D01*
X102170844Y-140041595D01*
X102187509Y-140071619D01*
X102190879Y-140078714D01*
X102203622Y-140110614D01*
X102203627Y-140110624D01*
X102225808Y-140144280D01*
X102232912Y-140155059D01*
X102237377Y-140161833D01*
X102239818Y-140165863D01*
X102269588Y-140219498D01*
X102269589Y-140219499D01*
X102269591Y-140219502D01*
X102291968Y-140245567D01*
X102296693Y-140251835D01*
X102309263Y-140270906D01*
X102315598Y-140280519D01*
X102358978Y-140323899D01*
X102362169Y-140327343D01*
X102402131Y-140373892D01*
X102402134Y-140373895D01*
X102429294Y-140394918D01*
X102435190Y-140400111D01*
X103383566Y-141348487D01*
X103444938Y-141413050D01*
X103444941Y-141413053D01*
X103495281Y-141448092D01*
X103499043Y-141450928D01*
X103546587Y-141489694D01*
X103546590Y-141489695D01*
X103546593Y-141489698D01*
X103577045Y-141505604D01*
X103583758Y-141509672D01*
X103611951Y-141529295D01*
X103668329Y-141553489D01*
X103672578Y-141555507D01*
X103726951Y-141583909D01*
X103754489Y-141591788D01*
X103759974Y-141593358D01*
X103767368Y-141595990D01*
X103798942Y-141609540D01*
X103798945Y-141609540D01*
X103798946Y-141609541D01*
X103859022Y-141621887D01*
X103863600Y-141623010D01*
X103877501Y-141626987D01*
X103922582Y-141639887D01*
X103956839Y-141642495D01*
X103964614Y-141643586D01*
X103998255Y-141650500D01*
X103998259Y-141650500D01*
X104059599Y-141650500D01*
X104064305Y-141650678D01*
X104099063Y-141653325D01*
X104125476Y-141655337D01*
X104125476Y-141655336D01*
X104125477Y-141655337D01*
X104159560Y-141650996D01*
X104167390Y-141650500D01*
X107625500Y-141650500D01*
X107692539Y-141670185D01*
X107738294Y-141722989D01*
X107749500Y-141774500D01*
X107749500Y-142925191D01*
X107729815Y-142992230D01*
X107677011Y-143037985D01*
X107607853Y-143047929D01*
X107544297Y-143018904D01*
X107537819Y-143012872D01*
X107456870Y-142931923D01*
X107456862Y-142931917D01*
X107315396Y-142848255D01*
X107315393Y-142848254D01*
X107157573Y-142802402D01*
X107157567Y-142802401D01*
X107120696Y-142799500D01*
X107120694Y-142799500D01*
X106689306Y-142799500D01*
X106689304Y-142799500D01*
X106652432Y-142802401D01*
X106652426Y-142802402D01*
X106494606Y-142848254D01*
X106494603Y-142848255D01*
X106353137Y-142931917D01*
X106346969Y-142936702D01*
X106345078Y-142934265D01*
X106296295Y-142960871D01*
X106226606Y-142955850D01*
X106194300Y-142935065D01*
X106193031Y-142936702D01*
X106186862Y-142931917D01*
X106045396Y-142848255D01*
X106045393Y-142848254D01*
X105887573Y-142802402D01*
X105887567Y-142802401D01*
X105850696Y-142799500D01*
X105850694Y-142799500D01*
X105419306Y-142799500D01*
X105419304Y-142799500D01*
X105382432Y-142802401D01*
X105382426Y-142802402D01*
X105224606Y-142848254D01*
X105224603Y-142848255D01*
X105083137Y-142931917D01*
X105076969Y-142936702D01*
X105075072Y-142934256D01*
X105026358Y-142960857D01*
X104956666Y-142955873D01*
X104924296Y-142935069D01*
X104923031Y-142936702D01*
X104916862Y-142931917D01*
X104775396Y-142848255D01*
X104775393Y-142848254D01*
X104617573Y-142802402D01*
X104617567Y-142802401D01*
X104580696Y-142799500D01*
X104580694Y-142799500D01*
X104149306Y-142799500D01*
X104149304Y-142799500D01*
X104112432Y-142802401D01*
X104112426Y-142802402D01*
X103954606Y-142848254D01*
X103954603Y-142848255D01*
X103813137Y-142931917D01*
X103806969Y-142936702D01*
X103805072Y-142934256D01*
X103756358Y-142960857D01*
X103686666Y-142955873D01*
X103654296Y-142935069D01*
X103653031Y-142936702D01*
X103646862Y-142931917D01*
X103505396Y-142848255D01*
X103505393Y-142848254D01*
X103347573Y-142802402D01*
X103347567Y-142802401D01*
X103310696Y-142799500D01*
X103310694Y-142799500D01*
X102879306Y-142799500D01*
X102879304Y-142799500D01*
X102842432Y-142802401D01*
X102842426Y-142802402D01*
X102684606Y-142848254D01*
X102684603Y-142848255D01*
X102543137Y-142931917D01*
X102543129Y-142931923D01*
X102426923Y-143048129D01*
X102426917Y-143048137D01*
X102343255Y-143189603D01*
X102343254Y-143189606D01*
X102297402Y-143347426D01*
X102297401Y-143347432D01*
X102294500Y-143384304D01*
X102294499Y-143482255D01*
X102274814Y-143549295D01*
X102268556Y-143558154D01*
X102241555Y-143593036D01*
X102151940Y-143775728D01*
X102100937Y-143972714D01*
X102090631Y-144175936D01*
X102121442Y-144377063D01*
X102121445Y-144377075D01*
X102192112Y-144567882D01*
X102192116Y-144567891D01*
X102275732Y-144702040D01*
X102294500Y-144767631D01*
X102294500Y-144865696D01*
X102297401Y-144902567D01*
X102297402Y-144902573D01*
X102343254Y-145060393D01*
X102343255Y-145060396D01*
X102426917Y-145201862D01*
X102426923Y-145201870D01*
X102543129Y-145318076D01*
X102543133Y-145318079D01*
X102543135Y-145318081D01*
X102684602Y-145401744D01*
X102709498Y-145408977D01*
X102842426Y-145447597D01*
X102842429Y-145447597D01*
X102842431Y-145447598D01*
X102851649Y-145448323D01*
X102879300Y-145450500D01*
X102880357Y-145450541D01*
X102946574Y-145472836D01*
X102990225Y-145527392D01*
X102999500Y-145574446D01*
X102999500Y-155875500D01*
X102979815Y-155942539D01*
X102927011Y-155988294D01*
X102875500Y-155999500D01*
X102452129Y-155999500D01*
X102452123Y-155999501D01*
X102392516Y-156005908D01*
X102257671Y-156056202D01*
X102257664Y-156056206D01*
X102142455Y-156142452D01*
X102142452Y-156142455D01*
X102056206Y-156257664D01*
X102056202Y-156257671D01*
X102005908Y-156392517D01*
X101999501Y-156452116D01*
X101999500Y-156452135D01*
X101999500Y-159547870D01*
X101999501Y-159547876D01*
X102005908Y-159607483D01*
X102056202Y-159742328D01*
X102056206Y-159742335D01*
X102142452Y-159857544D01*
X102142455Y-159857547D01*
X102257664Y-159943793D01*
X102257671Y-159943797D01*
X102392517Y-159994091D01*
X102392516Y-159994091D01*
X102399444Y-159994835D01*
X102452127Y-160000500D01*
X105547872Y-160000499D01*
X105607483Y-159994091D01*
X105742331Y-159943796D01*
X105857546Y-159857546D01*
X105943796Y-159742331D01*
X105994091Y-159607483D01*
X106000500Y-159547873D01*
X106000499Y-156634781D01*
X106020184Y-156567743D01*
X106072987Y-156521988D01*
X106142146Y-156512044D01*
X106205702Y-156541069D01*
X106212180Y-156547101D01*
X107097819Y-157432740D01*
X107131304Y-157494063D01*
X107131304Y-157546779D01*
X107094805Y-157714564D01*
X107094804Y-157714571D01*
X107074390Y-157999998D01*
X107074390Y-158000001D01*
X107094804Y-158285433D01*
X107155628Y-158565037D01*
X107155630Y-158565043D01*
X107155631Y-158565046D01*
X107255633Y-158833161D01*
X107255635Y-158833166D01*
X107392770Y-159084309D01*
X107392775Y-159084317D01*
X107564254Y-159313387D01*
X107564270Y-159313405D01*
X107766594Y-159515729D01*
X107766612Y-159515745D01*
X107995682Y-159687224D01*
X107995690Y-159687229D01*
X108246833Y-159824364D01*
X108246832Y-159824364D01*
X108246836Y-159824365D01*
X108246839Y-159824367D01*
X108514954Y-159924369D01*
X108514960Y-159924370D01*
X108514962Y-159924371D01*
X108794566Y-159985195D01*
X108794568Y-159985195D01*
X108794572Y-159985196D01*
X109048220Y-160003337D01*
X109079999Y-160005610D01*
X109080000Y-160005610D01*
X109080001Y-160005610D01*
X109108595Y-160003564D01*
X109365428Y-159985196D01*
X109555742Y-159943796D01*
X109645037Y-159924371D01*
X109645037Y-159924370D01*
X109645046Y-159924369D01*
X109913161Y-159824367D01*
X110164315Y-159687226D01*
X110393395Y-159515739D01*
X110595739Y-159313395D01*
X110767226Y-159084315D01*
X110904367Y-158833161D01*
X111004369Y-158565046D01*
X111060870Y-158305315D01*
X111065195Y-158285433D01*
X111065195Y-158285432D01*
X111065196Y-158285428D01*
X111085610Y-158000000D01*
X111065196Y-157714572D01*
X111065194Y-157714564D01*
X111004371Y-157434962D01*
X111004370Y-157434960D01*
X111004369Y-157434954D01*
X110911141Y-157185000D01*
X114612500Y-157185000D01*
X115775000Y-157185000D01*
X115775000Y-156669000D01*
X115794685Y-156601961D01*
X115847489Y-156556206D01*
X115868327Y-156551672D01*
X115875000Y-156545000D01*
X115875000Y-156385000D01*
X114625000Y-156385000D01*
X114625000Y-156936148D01*
X114624306Y-156936148D01*
X114619172Y-156969721D01*
X114620685Y-156970079D01*
X114618901Y-156977624D01*
X114612500Y-157037171D01*
X114612500Y-157185000D01*
X110911141Y-157185000D01*
X110904367Y-157166839D01*
X110883214Y-157128101D01*
X110767229Y-156915690D01*
X110767224Y-156915682D01*
X110595745Y-156686612D01*
X110595729Y-156686594D01*
X110393405Y-156484270D01*
X110393387Y-156484254D01*
X110164317Y-156312775D01*
X110164309Y-156312770D01*
X109913166Y-156175635D01*
X109913167Y-156175635D01*
X109805914Y-156135632D01*
X109645046Y-156075631D01*
X109645043Y-156075630D01*
X109645037Y-156075628D01*
X109365433Y-156014804D01*
X109080001Y-155994390D01*
X109079999Y-155994390D01*
X108794571Y-156014804D01*
X108794564Y-156014805D01*
X108626778Y-156051304D01*
X108557086Y-156046320D01*
X108512739Y-156017819D01*
X108379920Y-155885000D01*
X114625000Y-155885000D01*
X115875000Y-155885000D01*
X115875000Y-154885000D01*
X115077155Y-154885000D01*
X115017627Y-154891401D01*
X115017620Y-154891403D01*
X114882913Y-154941645D01*
X114882906Y-154941649D01*
X114767812Y-155027809D01*
X114767809Y-155027812D01*
X114681649Y-155142906D01*
X114681645Y-155142913D01*
X114631403Y-155277620D01*
X114631401Y-155277627D01*
X114625000Y-155337155D01*
X114625000Y-155885000D01*
X108379920Y-155885000D01*
X107903889Y-155408969D01*
X107286819Y-154791898D01*
X107253334Y-154730575D01*
X107250500Y-154704217D01*
X107250500Y-145510852D01*
X107270185Y-145443813D01*
X107311380Y-145404120D01*
X107456859Y-145318085D01*
X107456863Y-145318082D01*
X107456865Y-145318081D01*
X107537820Y-145237125D01*
X107599141Y-145203642D01*
X107668833Y-145208626D01*
X107724767Y-145250497D01*
X107749184Y-145315961D01*
X107749500Y-145324808D01*
X107749500Y-145737283D01*
X107747243Y-145826362D01*
X107747243Y-145826370D01*
X107756380Y-145877345D01*
X107757997Y-145886369D01*
X107758064Y-145886739D01*
X107758718Y-145891404D01*
X107764925Y-145952430D01*
X107764927Y-145952444D01*
X107775208Y-145985213D01*
X107777079Y-145992837D01*
X107783142Y-146026652D01*
X107783142Y-146026655D01*
X107793262Y-146051988D01*
X107804567Y-146080292D01*
X107805894Y-146083612D01*
X107807474Y-146088051D01*
X107825841Y-146146588D01*
X107825844Y-146146595D01*
X107842509Y-146176619D01*
X107845879Y-146183714D01*
X107858622Y-146215614D01*
X107858627Y-146215624D01*
X107892377Y-146266833D01*
X107894818Y-146270863D01*
X107924588Y-146324498D01*
X107924589Y-146324499D01*
X107924591Y-146324502D01*
X107946968Y-146350567D01*
X107951693Y-146356835D01*
X107959239Y-146368284D01*
X107970598Y-146385519D01*
X108013978Y-146428899D01*
X108017169Y-146432343D01*
X108053965Y-146475204D01*
X108057134Y-146478895D01*
X108078204Y-146495204D01*
X108084294Y-146499918D01*
X108090190Y-146505111D01*
X110783566Y-149198487D01*
X110844941Y-149263053D01*
X110844944Y-149263055D01*
X110844947Y-149263058D01*
X110869024Y-149279815D01*
X110895295Y-149298100D01*
X110899050Y-149300932D01*
X110946593Y-149339698D01*
X110977045Y-149355604D01*
X110983756Y-149359671D01*
X111011951Y-149379295D01*
X111068332Y-149403490D01*
X111072567Y-149405501D01*
X111126951Y-149433909D01*
X111159973Y-149443356D01*
X111167365Y-149445989D01*
X111198940Y-149459539D01*
X111198941Y-149459540D01*
X111212054Y-149462234D01*
X111259055Y-149471892D01*
X111263595Y-149473006D01*
X111322582Y-149489886D01*
X111356841Y-149492494D01*
X111364609Y-149493585D01*
X111398255Y-149500500D01*
X111398259Y-149500500D01*
X111459601Y-149500500D01*
X111464308Y-149500678D01*
X111500651Y-149503446D01*
X111525475Y-149505337D01*
X111525475Y-149505336D01*
X111525476Y-149505337D01*
X111559559Y-149500996D01*
X111567389Y-149500500D01*
X112482465Y-149500500D01*
X112549504Y-149520185D01*
X112595259Y-149572989D01*
X112605823Y-149611898D01*
X112610001Y-149652797D01*
X112610001Y-149652799D01*
X112665185Y-149819331D01*
X112665187Y-149819336D01*
X112672823Y-149831716D01*
X112757288Y-149968656D01*
X112881344Y-150092712D01*
X113030666Y-150184814D01*
X113197203Y-150239999D01*
X113299991Y-150250500D01*
X114700008Y-150250499D01*
X114802797Y-150239999D01*
X114969334Y-150184814D01*
X115118656Y-150092712D01*
X115242712Y-149968656D01*
X115334814Y-149819334D01*
X115389999Y-149652797D01*
X115400500Y-149550009D01*
X115400500Y-149230000D01*
X116695496Y-149230000D01*
X116737968Y-149376195D01*
X116820278Y-149515374D01*
X116820285Y-149515383D01*
X116934616Y-149629714D01*
X116934625Y-149629721D01*
X117073804Y-149712031D01*
X117229089Y-149757145D01*
X117250000Y-149758789D01*
X117250000Y-149230000D01*
X117750000Y-149230000D01*
X117750000Y-149758789D01*
X117770910Y-149757145D01*
X117926195Y-149712031D01*
X118065374Y-149629721D01*
X118065383Y-149629714D01*
X118179714Y-149515383D01*
X118179721Y-149515374D01*
X118262031Y-149376195D01*
X118304504Y-149230000D01*
X117750000Y-149230000D01*
X117250000Y-149230000D01*
X116695496Y-149230000D01*
X115400500Y-149230000D01*
X115400499Y-147449992D01*
X115389999Y-147347203D01*
X115334814Y-147180666D01*
X115242712Y-147031344D01*
X115173549Y-146962181D01*
X115140064Y-146900858D01*
X115145048Y-146831166D01*
X115186920Y-146775233D01*
X115252384Y-146750816D01*
X115261230Y-146750500D01*
X115987284Y-146750500D01*
X116076358Y-146752757D01*
X116076358Y-146752756D01*
X116076363Y-146752757D01*
X116136753Y-146741932D01*
X116141412Y-146741280D01*
X116183607Y-146736988D01*
X116202438Y-146735074D01*
X116235227Y-146724786D01*
X116242840Y-146722918D01*
X116276653Y-146716858D01*
X116333621Y-146694101D01*
X116338053Y-146692524D01*
X116396588Y-146674159D01*
X116426627Y-146657484D01*
X116433708Y-146654122D01*
X116465617Y-146641377D01*
X116516854Y-146607608D01*
X116520851Y-146605187D01*
X116574502Y-146575409D01*
X116600568Y-146553030D01*
X116606843Y-146548300D01*
X116607159Y-146548092D01*
X116635519Y-146529402D01*
X116678917Y-146486002D01*
X116682336Y-146482834D01*
X116728895Y-146442866D01*
X116749931Y-146415688D01*
X116755101Y-146409818D01*
X117068602Y-146096318D01*
X117129924Y-146062834D01*
X117156282Y-146060000D01*
X117742026Y-146060000D01*
X117746891Y-146060191D01*
X117750816Y-146060500D01*
X117750817Y-146060500D01*
X117750818Y-146060499D01*
X117750819Y-146060500D01*
X118126000Y-146060499D01*
X118193039Y-146080183D01*
X118238794Y-146132987D01*
X118250000Y-146184499D01*
X118250000Y-146436000D01*
X118230315Y-146503039D01*
X118177511Y-146548794D01*
X118126000Y-146560000D01*
X117187156Y-146560000D01*
X117227595Y-146699194D01*
X117309261Y-146837285D01*
X117309268Y-146837294D01*
X117422705Y-146950731D01*
X117422713Y-146950737D01*
X117520838Y-147008768D01*
X117568521Y-147059837D01*
X117581025Y-147128579D01*
X117554380Y-147193168D01*
X117497044Y-147233098D01*
X117457717Y-147239500D01*
X117265308Y-147239500D01*
X117229008Y-147242356D01*
X117229002Y-147242357D01*
X117073609Y-147287504D01*
X117073606Y-147287505D01*
X116934315Y-147369881D01*
X116934307Y-147369887D01*
X116819887Y-147484307D01*
X116819881Y-147484315D01*
X116737505Y-147623606D01*
X116737504Y-147623609D01*
X116692357Y-147779002D01*
X116692356Y-147779008D01*
X116689500Y-147815308D01*
X116689500Y-148224692D01*
X116692356Y-148260991D01*
X116692357Y-148260997D01*
X116737504Y-148416390D01*
X116737507Y-148416397D01*
X116749910Y-148437370D01*
X116767093Y-148505094D01*
X116749912Y-148563608D01*
X116737968Y-148583804D01*
X116695496Y-148730000D01*
X117001648Y-148730000D01*
X117064766Y-148747267D01*
X117073605Y-148752494D01*
X117073608Y-148752494D01*
X117073610Y-148752496D01*
X117229002Y-148797642D01*
X117229005Y-148797642D01*
X117229007Y-148797643D01*
X117241108Y-148798595D01*
X117265308Y-148800500D01*
X117265310Y-148800500D01*
X117734692Y-148800500D01*
X117752841Y-148799071D01*
X117770993Y-148797643D01*
X117770995Y-148797642D01*
X117770997Y-148797642D01*
X117926389Y-148752496D01*
X117926389Y-148752495D01*
X117926395Y-148752494D01*
X117935233Y-148747267D01*
X117998352Y-148730000D01*
X118316679Y-148730000D01*
X118344978Y-148708879D01*
X118414677Y-148703993D01*
X118475952Y-148737566D01*
X118487413Y-148750812D01*
X118492454Y-148757546D01*
X118492455Y-148757547D01*
X118607664Y-148843793D01*
X118607671Y-148843797D01*
X118652618Y-148860561D01*
X118742517Y-148894091D01*
X118802127Y-148900500D01*
X119197872Y-148900499D01*
X119197873Y-148900498D01*
X119197885Y-148900498D01*
X119236744Y-148896320D01*
X119263252Y-148896320D01*
X119302127Y-148900500D01*
X119697872Y-148900499D01*
X119697873Y-148900498D01*
X119697885Y-148900498D01*
X119736744Y-148896320D01*
X119763252Y-148896320D01*
X119802127Y-148900500D01*
X119851081Y-148900499D01*
X119918119Y-148920182D01*
X119951440Y-148951669D01*
X119951894Y-148952294D01*
X119954012Y-148955213D01*
X119957196Y-148960062D01*
X119981919Y-149001865D01*
X119981923Y-149001869D01*
X119996925Y-149016871D01*
X120009563Y-149031669D01*
X120022033Y-149048833D01*
X120022036Y-149048836D01*
X120022037Y-149048837D01*
X120059476Y-149079809D01*
X120063776Y-149083722D01*
X120632849Y-149652795D01*
X121165191Y-150185137D01*
X121198676Y-150246460D01*
X121200830Y-150259851D01*
X121214326Y-150388256D01*
X121214327Y-150388259D01*
X121272818Y-150568277D01*
X121272821Y-150568284D01*
X121359623Y-150718630D01*
X121376096Y-150786531D01*
X121353243Y-150852557D01*
X121298322Y-150895748D01*
X121238983Y-150903920D01*
X121197873Y-150899500D01*
X121197866Y-150899500D01*
X120802130Y-150899500D01*
X120802119Y-150899501D01*
X120763253Y-150903679D01*
X120736748Y-150903679D01*
X120697874Y-150899500D01*
X120302132Y-150899500D01*
X120302117Y-150899501D01*
X120260904Y-150903931D01*
X120234402Y-150903931D01*
X120197834Y-150900000D01*
X120149280Y-150900000D01*
X120082241Y-150880315D01*
X120048969Y-150848895D01*
X120046018Y-150844834D01*
X120042812Y-150839954D01*
X120018081Y-150798135D01*
X120003075Y-150783129D01*
X119990435Y-150768330D01*
X119977961Y-150751160D01*
X119940528Y-150720194D01*
X119936206Y-150716260D01*
X119820434Y-150600488D01*
X119810361Y-150587914D01*
X119810174Y-150588070D01*
X119805201Y-150582059D01*
X119752756Y-150532810D01*
X119731035Y-150511089D01*
X119725240Y-150506594D01*
X119720798Y-150502799D01*
X119685396Y-150469554D01*
X119685388Y-150469548D01*
X119666792Y-150459325D01*
X119650531Y-150448644D01*
X119633763Y-150435637D01*
X119610177Y-150425431D01*
X119589178Y-150416343D01*
X119583956Y-150413786D01*
X119541368Y-150390373D01*
X119541365Y-150390372D01*
X119520801Y-150385092D01*
X119502396Y-150378790D01*
X119482927Y-150370365D01*
X119482921Y-150370363D01*
X119434951Y-150362766D01*
X119429236Y-150361582D01*
X119412772Y-150357355D01*
X119382180Y-150349500D01*
X119382177Y-150349500D01*
X119360955Y-150349500D01*
X119341555Y-150347973D01*
X119320596Y-150344653D01*
X119320595Y-150344653D01*
X119296786Y-150346903D01*
X119272230Y-150349225D01*
X119266392Y-150349500D01*
X118785504Y-150349500D01*
X118769493Y-150347732D01*
X118769471Y-150347974D01*
X118761704Y-150347240D01*
X118761703Y-150347240D01*
X118689796Y-150349500D01*
X118659075Y-150349500D01*
X118659071Y-150349500D01*
X118659061Y-150349501D01*
X118651793Y-150350419D01*
X118645976Y-150350876D01*
X118597435Y-150352402D01*
X118597424Y-150352404D01*
X118577048Y-150358323D01*
X118558008Y-150362266D01*
X118536947Y-150364927D01*
X118536939Y-150364929D01*
X118491775Y-150382811D01*
X118486247Y-150384703D01*
X118439602Y-150398255D01*
X118421332Y-150409060D01*
X118403863Y-150417618D01*
X118384129Y-150425431D01*
X118370082Y-150435637D01*
X118359755Y-150443139D01*
X118293951Y-150466618D01*
X118225897Y-150450792D01*
X118194723Y-150425792D01*
X118179657Y-150409060D01*
X118105871Y-150327112D01*
X118105870Y-150327111D01*
X117952734Y-150215851D01*
X117952729Y-150215848D01*
X117779807Y-150138857D01*
X117779802Y-150138855D01*
X117634000Y-150107865D01*
X117594646Y-150099500D01*
X117405354Y-150099500D01*
X117372897Y-150106398D01*
X117220197Y-150138855D01*
X117220192Y-150138857D01*
X117047270Y-150215848D01*
X117047265Y-150215851D01*
X116894129Y-150327111D01*
X116767466Y-150467785D01*
X116672821Y-150631715D01*
X116672818Y-150631722D01*
X116622518Y-150786531D01*
X116614326Y-150811744D01*
X116610204Y-150850963D01*
X116583621Y-150915576D01*
X116526323Y-150955561D01*
X116486884Y-150962000D01*
X115224730Y-150962000D01*
X115157691Y-150942315D01*
X115137049Y-150925681D01*
X115118657Y-150907289D01*
X115118656Y-150907288D01*
X115017401Y-150844834D01*
X114969336Y-150815187D01*
X114969331Y-150815185D01*
X114958935Y-150811740D01*
X114802797Y-150760001D01*
X114802795Y-150760000D01*
X114700010Y-150749500D01*
X113299998Y-150749500D01*
X113299981Y-150749501D01*
X113197203Y-150760000D01*
X113197200Y-150760001D01*
X113030668Y-150815185D01*
X113030663Y-150815187D01*
X112881342Y-150907289D01*
X112757289Y-151031342D01*
X112665187Y-151180663D01*
X112665185Y-151180668D01*
X112652738Y-151218230D01*
X112610001Y-151347203D01*
X112610001Y-151347204D01*
X112610000Y-151347204D01*
X112599500Y-151449983D01*
X112599500Y-153550001D01*
X112599501Y-153550018D01*
X112610000Y-153652796D01*
X112610001Y-153652799D01*
X112665185Y-153819331D01*
X112665187Y-153819336D01*
X112668809Y-153825208D01*
X112757288Y-153968656D01*
X112881344Y-154092712D01*
X113030666Y-154184814D01*
X113197203Y-154239999D01*
X113299991Y-154250500D01*
X114700008Y-154250499D01*
X114802797Y-154239999D01*
X114969334Y-154184814D01*
X115118656Y-154092712D01*
X115242712Y-153968656D01*
X115334814Y-153819334D01*
X115389999Y-153652797D01*
X115396721Y-153587000D01*
X115398009Y-153574397D01*
X115424406Y-153509705D01*
X115481587Y-153469554D01*
X115521367Y-153463000D01*
X115900500Y-153463000D01*
X115967539Y-153482685D01*
X116013294Y-153535489D01*
X116024500Y-153587000D01*
X116024500Y-154054181D01*
X116034563Y-154152683D01*
X116087450Y-154312284D01*
X116087455Y-154312295D01*
X116175716Y-154455387D01*
X116175719Y-154455391D01*
X116294608Y-154574280D01*
X116294612Y-154574283D01*
X116417014Y-154649782D01*
X116463739Y-154701730D01*
X116474960Y-154770692D01*
X116447117Y-154834774D01*
X116389048Y-154873630D01*
X116376280Y-154876233D01*
X116375000Y-154877646D01*
X116375000Y-155641779D01*
X116302195Y-155702871D01*
X116244888Y-155802129D01*
X116230000Y-155886564D01*
X116230000Y-156343436D01*
X116244888Y-156427871D01*
X116302195Y-156527129D01*
X116375000Y-156588220D01*
X116375000Y-156645000D01*
X116376662Y-156646662D01*
X116438039Y-156664685D01*
X116483794Y-156717489D01*
X116495000Y-156769000D01*
X116495000Y-158619418D01*
X116439079Y-158567940D01*
X116332108Y-158521018D01*
X116215698Y-158511372D01*
X116102462Y-158540047D01*
X116004673Y-158603936D01*
X115995000Y-158616364D01*
X115995000Y-158325000D01*
X115899000Y-158325000D01*
X115831961Y-158305315D01*
X115786206Y-158252511D01*
X115775000Y-158201000D01*
X115775000Y-157685000D01*
X114612500Y-157685000D01*
X114612500Y-157832844D01*
X114618901Y-157892372D01*
X114618903Y-157892379D01*
X114669145Y-158027086D01*
X114669149Y-158027093D01*
X114755309Y-158142187D01*
X114755312Y-158142190D01*
X114870406Y-158228350D01*
X114870413Y-158228354D01*
X114989333Y-158272708D01*
X115045267Y-158314579D01*
X115069684Y-158380043D01*
X115070000Y-158388890D01*
X115070000Y-158865000D01*
X115895000Y-158865000D01*
X115895000Y-159365000D01*
X115071916Y-159365000D01*
X115085058Y-159506830D01*
X115144650Y-159716274D01*
X115144655Y-159716287D01*
X115241715Y-159911208D01*
X115372945Y-160084985D01*
X115533868Y-160231685D01*
X115719012Y-160346322D01*
X115719023Y-160346327D01*
X115922060Y-160424984D01*
X115995000Y-160438619D01*
X115995000Y-159610581D01*
X116050921Y-159662060D01*
X116157892Y-159708982D01*
X116274302Y-159718628D01*
X116387538Y-159689953D01*
X116485327Y-159626064D01*
X116495000Y-159613635D01*
X116495000Y-160438619D01*
X116567937Y-160424985D01*
X116631205Y-160400475D01*
X116700829Y-160394612D01*
X116762569Y-160427321D01*
X116796824Y-160488218D01*
X116800000Y-160516101D01*
X116800000Y-160682844D01*
X116806401Y-160742372D01*
X116806403Y-160742379D01*
X116856645Y-160877086D01*
X116856649Y-160877093D01*
X116942809Y-160992187D01*
X116942812Y-160992190D01*
X117057906Y-161078350D01*
X117057913Y-161078354D01*
X117192620Y-161128596D01*
X117192627Y-161128598D01*
X117252155Y-161134999D01*
X117252172Y-161135000D01*
X117765000Y-161135000D01*
X117765000Y-159635000D01*
X118265000Y-159635000D01*
X118265000Y-161135000D01*
X118777828Y-161135000D01*
X118777844Y-161134999D01*
X118837372Y-161128598D01*
X118837376Y-161128597D01*
X118931666Y-161093429D01*
X119001358Y-161088445D01*
X119018334Y-161093429D01*
X119112623Y-161128597D01*
X119112627Y-161128598D01*
X119172155Y-161134999D01*
X119172172Y-161135000D01*
X119685000Y-161135000D01*
X119685000Y-159635000D01*
X118265000Y-159635000D01*
X117765000Y-159635000D01*
X117765000Y-159259000D01*
X117784685Y-159191961D01*
X117837489Y-159146206D01*
X117889000Y-159135000D01*
X120061000Y-159135000D01*
X120128039Y-159154685D01*
X120173794Y-159207489D01*
X120185000Y-159259000D01*
X120185000Y-161135000D01*
X120697828Y-161135000D01*
X120697844Y-161134999D01*
X120757372Y-161128598D01*
X120757379Y-161128596D01*
X120892086Y-161078354D01*
X120892093Y-161078350D01*
X121007187Y-160992190D01*
X121007190Y-160992187D01*
X121093350Y-160877093D01*
X121093354Y-160877086D01*
X121143596Y-160742379D01*
X121143598Y-160742372D01*
X121149999Y-160682844D01*
X121150000Y-160682827D01*
X121150000Y-160516101D01*
X121169685Y-160449062D01*
X121222489Y-160403307D01*
X121291647Y-160393363D01*
X121318795Y-160400475D01*
X121382062Y-160424985D01*
X121454999Y-160438619D01*
X121454999Y-159610580D01*
X121510921Y-159662060D01*
X121617892Y-159708982D01*
X121734302Y-159718628D01*
X121847538Y-159689953D01*
X121945327Y-159626064D01*
X121955000Y-159613635D01*
X121955000Y-160438619D01*
X122027939Y-160424984D01*
X122230976Y-160346327D01*
X122230987Y-160346322D01*
X122416130Y-160231685D01*
X122416131Y-160231685D01*
X122577054Y-160084985D01*
X122708284Y-159911208D01*
X122805344Y-159716287D01*
X122805349Y-159716274D01*
X122864941Y-159506830D01*
X122878084Y-159365000D01*
X122055000Y-159365000D01*
X122055000Y-158865000D01*
X122900000Y-158865000D01*
X122900000Y-158399130D01*
X122919685Y-158332091D01*
X122972489Y-158286336D01*
X122992706Y-158279407D01*
X123129586Y-158228354D01*
X123129593Y-158228350D01*
X123244687Y-158142190D01*
X123244690Y-158142187D01*
X123330850Y-158027093D01*
X123330854Y-158027086D01*
X123381096Y-157892379D01*
X123381098Y-157892372D01*
X123387499Y-157832844D01*
X123387500Y-157832827D01*
X123387500Y-157685000D01*
X121975000Y-157685000D01*
X121975000Y-158311000D01*
X121955315Y-158378039D01*
X121902511Y-158423794D01*
X121851000Y-158435000D01*
X121599000Y-158435000D01*
X121531961Y-158415315D01*
X121486206Y-158362511D01*
X121475000Y-158311000D01*
X121475000Y-156769000D01*
X121494685Y-156701961D01*
X121547489Y-156656206D01*
X121599000Y-156645000D01*
X121625000Y-156645000D01*
X121625000Y-156546264D01*
X121647805Y-156527129D01*
X121705112Y-156427871D01*
X121716198Y-156365000D01*
X122125000Y-156365000D01*
X122125000Y-156545000D01*
X122134976Y-156554976D01*
X122168039Y-156564685D01*
X122213794Y-156617489D01*
X122225000Y-156669000D01*
X122225000Y-157185000D01*
X123387500Y-157185000D01*
X123387500Y-157037172D01*
X123387499Y-157037155D01*
X123381098Y-156977627D01*
X123379313Y-156970071D01*
X123380189Y-156969863D01*
X123374089Y-156921294D01*
X123374999Y-156912826D01*
X123375000Y-156912820D01*
X123375000Y-156365000D01*
X122125000Y-156365000D01*
X121716198Y-156365000D01*
X121720000Y-156343436D01*
X121720000Y-155886564D01*
X121705112Y-155802129D01*
X121647805Y-155702871D01*
X121560007Y-155629199D01*
X121452306Y-155590000D01*
X121337694Y-155590000D01*
X121229993Y-155629199D01*
X121144999Y-155700518D01*
X121145000Y-154865000D01*
X122125000Y-154865000D01*
X122125000Y-155865000D01*
X123375000Y-155865000D01*
X123375000Y-155317172D01*
X123374999Y-155317155D01*
X123368598Y-155257627D01*
X123368596Y-155257620D01*
X123318354Y-155122913D01*
X123318350Y-155122906D01*
X123232190Y-155007812D01*
X123232187Y-155007809D01*
X123117093Y-154921649D01*
X123117086Y-154921645D01*
X122982379Y-154871403D01*
X122982372Y-154871401D01*
X122922844Y-154865000D01*
X122125000Y-154865000D01*
X121145000Y-154865000D01*
X120827155Y-154865000D01*
X120767627Y-154871401D01*
X120767619Y-154871403D01*
X120657162Y-154912601D01*
X120587470Y-154917585D01*
X120585322Y-154917098D01*
X120582374Y-154916401D01*
X120522844Y-154910000D01*
X120475000Y-154910000D01*
X120475000Y-155070565D01*
X120455315Y-155137604D01*
X120402511Y-155183359D01*
X120333353Y-155193303D01*
X120269797Y-155164278D01*
X120251734Y-155144876D01*
X120182548Y-155052457D01*
X120182546Y-155052454D01*
X120149625Y-155027809D01*
X120148510Y-155026974D01*
X120106640Y-154971040D01*
X120101656Y-154901349D01*
X120103746Y-154893112D01*
X120106103Y-154885000D01*
X120117665Y-154845204D01*
X120120500Y-154809181D01*
X120120499Y-154410820D01*
X120117665Y-154374796D01*
X120072869Y-154220607D01*
X120038870Y-154163118D01*
X120021688Y-154095396D01*
X120038870Y-154036880D01*
X120072869Y-153979393D01*
X120117665Y-153825204D01*
X120117665Y-153825201D01*
X120118804Y-153818968D01*
X120120396Y-153819258D01*
X120142425Y-153761456D01*
X120198654Y-153719983D01*
X120268380Y-153715493D01*
X120328843Y-153748788D01*
X120479564Y-153899509D01*
X120489637Y-153912082D01*
X120489824Y-153911928D01*
X120494795Y-153917937D01*
X120547259Y-153967205D01*
X120568967Y-153988912D01*
X120574749Y-153993397D01*
X120579195Y-153997194D01*
X120614606Y-154030447D01*
X120614605Y-154030447D01*
X120633207Y-154040674D01*
X120649468Y-154051355D01*
X120666237Y-154064363D01*
X120710827Y-154083658D01*
X120716056Y-154086220D01*
X120758632Y-154109627D01*
X120779193Y-154114905D01*
X120797597Y-154121207D01*
X120817074Y-154129636D01*
X120854927Y-154135630D01*
X120865054Y-154137235D01*
X120870764Y-154138417D01*
X120917823Y-154150500D01*
X120939045Y-154150500D01*
X120958442Y-154152026D01*
X120979405Y-154155347D01*
X121024104Y-154151121D01*
X121027770Y-154150775D01*
X121033608Y-154150500D01*
X122323025Y-154150500D01*
X122390064Y-154170185D01*
X122395910Y-154174182D01*
X122547265Y-154284148D01*
X122547270Y-154284151D01*
X122720192Y-154361142D01*
X122720197Y-154361144D01*
X122905354Y-154400500D01*
X122905355Y-154400500D01*
X123094644Y-154400500D01*
X123094646Y-154400500D01*
X123279803Y-154361144D01*
X123452730Y-154284151D01*
X123605871Y-154172888D01*
X123732533Y-154032216D01*
X123827179Y-153868284D01*
X123885674Y-153688256D01*
X123905460Y-153500000D01*
X123885674Y-153311744D01*
X123880453Y-153295675D01*
X123869777Y-153262816D01*
X123867782Y-153192975D01*
X123903863Y-153133143D01*
X123966564Y-153102315D01*
X123987708Y-153100499D01*
X124125500Y-153100499D01*
X124192539Y-153120184D01*
X124238294Y-153172988D01*
X124249499Y-153224498D01*
X124249499Y-153652794D01*
X124249499Y-153987284D01*
X124247243Y-154076359D01*
X124247243Y-154076367D01*
X124258064Y-154136739D01*
X124258718Y-154141404D01*
X124264925Y-154202430D01*
X124264927Y-154202444D01*
X124275208Y-154235213D01*
X124277079Y-154242837D01*
X124283142Y-154276652D01*
X124283142Y-154276655D01*
X124305894Y-154333612D01*
X124307474Y-154338051D01*
X124325841Y-154396588D01*
X124325844Y-154396595D01*
X124342509Y-154426619D01*
X124345879Y-154433714D01*
X124358622Y-154465614D01*
X124358627Y-154465624D01*
X124367980Y-154479815D01*
X124386031Y-154507205D01*
X124392377Y-154516833D01*
X124394818Y-154520863D01*
X124424588Y-154574498D01*
X124424589Y-154574499D01*
X124424591Y-154574502D01*
X124446968Y-154600567D01*
X124451693Y-154606835D01*
X124460832Y-154620701D01*
X124470598Y-154635519D01*
X124513978Y-154678899D01*
X124517169Y-154682343D01*
X124557131Y-154728892D01*
X124557130Y-154728892D01*
X124584299Y-154749923D01*
X124590186Y-154755107D01*
X125814895Y-155979815D01*
X126963181Y-157128101D01*
X126996666Y-157189424D01*
X126999500Y-157215782D01*
X126999500Y-159547870D01*
X126999501Y-159547876D01*
X127005908Y-159607483D01*
X127056202Y-159742328D01*
X127056206Y-159742335D01*
X127142452Y-159857544D01*
X127142455Y-159857547D01*
X127257664Y-159943793D01*
X127257671Y-159943797D01*
X127392517Y-159994091D01*
X127392516Y-159994091D01*
X127399444Y-159994835D01*
X127452127Y-160000500D01*
X130547872Y-160000499D01*
X130607483Y-159994091D01*
X130742331Y-159943796D01*
X130857546Y-159857546D01*
X130943796Y-159742331D01*
X130994091Y-159607483D01*
X131000500Y-159547873D01*
X131000499Y-156634780D01*
X131020184Y-156567742D01*
X131072987Y-156521987D01*
X131142146Y-156512043D01*
X131205702Y-156541068D01*
X131212166Y-156547087D01*
X131702235Y-157037155D01*
X132097819Y-157432739D01*
X132131304Y-157494062D01*
X132131304Y-157546778D01*
X132094805Y-157714564D01*
X132094804Y-157714571D01*
X132074390Y-157999998D01*
X132074390Y-158000001D01*
X132094804Y-158285433D01*
X132155628Y-158565037D01*
X132155630Y-158565043D01*
X132155631Y-158565046D01*
X132255633Y-158833161D01*
X132255635Y-158833166D01*
X132392770Y-159084309D01*
X132392775Y-159084317D01*
X132564254Y-159313387D01*
X132564270Y-159313405D01*
X132766594Y-159515729D01*
X132766612Y-159515745D01*
X132995682Y-159687224D01*
X132995690Y-159687229D01*
X133246833Y-159824364D01*
X133246832Y-159824364D01*
X133246836Y-159824365D01*
X133246839Y-159824367D01*
X133514954Y-159924369D01*
X133514960Y-159924370D01*
X133514962Y-159924371D01*
X133794566Y-159985195D01*
X133794568Y-159985195D01*
X133794572Y-159985196D01*
X134048220Y-160003337D01*
X134079999Y-160005610D01*
X134080000Y-160005610D01*
X134080001Y-160005610D01*
X134108595Y-160003564D01*
X134365428Y-159985196D01*
X134555742Y-159943796D01*
X134645037Y-159924371D01*
X134645037Y-159924370D01*
X134645046Y-159924369D01*
X134913161Y-159824367D01*
X135164315Y-159687226D01*
X135393395Y-159515739D01*
X135595739Y-159313395D01*
X135767226Y-159084315D01*
X135904367Y-158833161D01*
X136004369Y-158565046D01*
X136060870Y-158305315D01*
X136065195Y-158285433D01*
X136065195Y-158285432D01*
X136065196Y-158285428D01*
X136085610Y-158000000D01*
X136065196Y-157714572D01*
X136065194Y-157714564D01*
X136004371Y-157434962D01*
X136004370Y-157434960D01*
X136004369Y-157434954D01*
X135904367Y-157166839D01*
X135883214Y-157128101D01*
X135767229Y-156915690D01*
X135767224Y-156915682D01*
X135595745Y-156686612D01*
X135595729Y-156686594D01*
X135393405Y-156484270D01*
X135393387Y-156484254D01*
X135164317Y-156312775D01*
X135164309Y-156312770D01*
X134913166Y-156175635D01*
X134913167Y-156175635D01*
X134805914Y-156135632D01*
X134645046Y-156075631D01*
X134645043Y-156075630D01*
X134645037Y-156075628D01*
X134365433Y-156014804D01*
X134080001Y-155994390D01*
X134079999Y-155994390D01*
X133794571Y-156014804D01*
X133794564Y-156014805D01*
X133626778Y-156051304D01*
X133557086Y-156046320D01*
X133512739Y-156017819D01*
X132907757Y-155412837D01*
X132296452Y-154801531D01*
X132267137Y-154770692D01*
X132235064Y-154736951D01*
X132235060Y-154736948D01*
X132235059Y-154736947D01*
X132204153Y-154715436D01*
X132184709Y-154701902D01*
X132180946Y-154699064D01*
X132133413Y-154660305D01*
X132133406Y-154660300D01*
X132102959Y-154644397D01*
X132096251Y-154640334D01*
X132068049Y-154620705D01*
X132068046Y-154620703D01*
X132068045Y-154620703D01*
X132068041Y-154620701D01*
X132011680Y-154596514D01*
X132007424Y-154594493D01*
X131953057Y-154566094D01*
X131953050Y-154566091D01*
X131953049Y-154566091D01*
X131947008Y-154564362D01*
X131920030Y-154556642D01*
X131912630Y-154554008D01*
X131881057Y-154540459D01*
X131881058Y-154540459D01*
X131820966Y-154528109D01*
X131816391Y-154526986D01*
X131757420Y-154510113D01*
X131757425Y-154510113D01*
X131723158Y-154507503D01*
X131715380Y-154506412D01*
X131681742Y-154499500D01*
X131681741Y-154499500D01*
X131620402Y-154499500D01*
X131615695Y-154499321D01*
X131610121Y-154498896D01*
X131554524Y-154494662D01*
X131534589Y-154497201D01*
X131520440Y-154499003D01*
X131512611Y-154499500D01*
X128965783Y-154499500D01*
X128898744Y-154479815D01*
X128878102Y-154463181D01*
X127727101Y-153312180D01*
X127693616Y-153250857D01*
X127698600Y-153181165D01*
X127740472Y-153125232D01*
X127805936Y-153100815D01*
X127814782Y-153100499D01*
X128297871Y-153100499D01*
X128297872Y-153100499D01*
X128357483Y-153094091D01*
X128492331Y-153043796D01*
X128607546Y-152957546D01*
X128693796Y-152842331D01*
X128744091Y-152707483D01*
X128750500Y-152647873D01*
X128750499Y-151552128D01*
X128744091Y-151492517D01*
X128693796Y-151357669D01*
X128607546Y-151242454D01*
X128575187Y-151218230D01*
X128533317Y-151162296D01*
X128525499Y-151118964D01*
X128525499Y-147081035D01*
X128545184Y-147013996D01*
X128575190Y-146981767D01*
X128607545Y-146957547D01*
X128611602Y-146952128D01*
X128693796Y-146842331D01*
X128744091Y-146707483D01*
X128750500Y-146647873D01*
X128750499Y-146164780D01*
X128770183Y-146097743D01*
X128822987Y-146051988D01*
X128892146Y-146042044D01*
X128955702Y-146071069D01*
X128962180Y-146077101D01*
X130333566Y-147448487D01*
X130394938Y-147513050D01*
X130394941Y-147513053D01*
X130445281Y-147548092D01*
X130449043Y-147550928D01*
X130496587Y-147589694D01*
X130496590Y-147589695D01*
X130496593Y-147589698D01*
X130527045Y-147605604D01*
X130533758Y-147609672D01*
X130561951Y-147629295D01*
X130618329Y-147653489D01*
X130622578Y-147655507D01*
X130676951Y-147683909D01*
X130704489Y-147691788D01*
X130709974Y-147693358D01*
X130717368Y-147695990D01*
X130748942Y-147709540D01*
X130748945Y-147709540D01*
X130748946Y-147709541D01*
X130809022Y-147721887D01*
X130813600Y-147723010D01*
X130815704Y-147723612D01*
X130872582Y-147739887D01*
X130906839Y-147742495D01*
X130914614Y-147743586D01*
X130948255Y-147750500D01*
X130948259Y-147750500D01*
X131009599Y-147750500D01*
X131014305Y-147750678D01*
X131041596Y-147752757D01*
X131075476Y-147755337D01*
X131075476Y-147755336D01*
X131075477Y-147755337D01*
X131109560Y-147750996D01*
X131117390Y-147750500D01*
X132487284Y-147750500D01*
X132576358Y-147752757D01*
X132576358Y-147752756D01*
X132576363Y-147752757D01*
X132636753Y-147741932D01*
X132641412Y-147741280D01*
X132683607Y-147736988D01*
X132702438Y-147735074D01*
X132735227Y-147724786D01*
X132742840Y-147722918D01*
X132776653Y-147716858D01*
X132833621Y-147694101D01*
X132838053Y-147692524D01*
X132896588Y-147674159D01*
X132926627Y-147657484D01*
X132933708Y-147654122D01*
X132965617Y-147641377D01*
X133016854Y-147607608D01*
X133020851Y-147605187D01*
X133074502Y-147575409D01*
X133100568Y-147553030D01*
X133106843Y-147548300D01*
X133107159Y-147548092D01*
X133135519Y-147529402D01*
X133178917Y-147486002D01*
X133182336Y-147482834D01*
X133228895Y-147442866D01*
X133249931Y-147415688D01*
X133255101Y-147409818D01*
X134198487Y-146466433D01*
X134263053Y-146405059D01*
X134298112Y-146354686D01*
X134300925Y-146350957D01*
X134339698Y-146303407D01*
X134355607Y-146272948D01*
X134359667Y-146266248D01*
X134379295Y-146238049D01*
X134403492Y-146181660D01*
X134405498Y-146177435D01*
X134433909Y-146123049D01*
X134437277Y-146111275D01*
X134450951Y-146080297D01*
X134534814Y-145944334D01*
X134589999Y-145777797D01*
X134600500Y-145675009D01*
X134600499Y-145365781D01*
X134620183Y-145298743D01*
X134636813Y-145278106D01*
X136498468Y-143416451D01*
X136563053Y-143355059D01*
X136598099Y-143304706D01*
X136600938Y-143300941D01*
X136604612Y-143296435D01*
X136639698Y-143253407D01*
X136655601Y-143222960D01*
X136659674Y-143216239D01*
X136664489Y-143209320D01*
X136679295Y-143188049D01*
X136703492Y-143131660D01*
X136705498Y-143127435D01*
X136733909Y-143073049D01*
X136743357Y-143040022D01*
X136745988Y-143032633D01*
X136759540Y-143001058D01*
X136771895Y-142940930D01*
X136772999Y-142936429D01*
X136789886Y-142877418D01*
X136792494Y-142843157D01*
X136793585Y-142835389D01*
X136800500Y-142801743D01*
X136800500Y-142740398D01*
X136800679Y-142735688D01*
X136805337Y-142674524D01*
X136800997Y-142640442D01*
X136800500Y-142632603D01*
X136800500Y-129924499D01*
X136820185Y-129857460D01*
X136872989Y-129811705D01*
X136924500Y-129800499D01*
X137350002Y-129800499D01*
X137350008Y-129800499D01*
X137354913Y-129799998D01*
X137459533Y-129789311D01*
X137459737Y-129791316D01*
X137519707Y-129795799D01*
X137575505Y-129837850D01*
X137599712Y-129903392D01*
X137600000Y-129911841D01*
X137600000Y-162476000D01*
X137580315Y-162543039D01*
X137527511Y-162588794D01*
X137476000Y-162600000D01*
X100524000Y-162600000D01*
X100456961Y-162580315D01*
X100411206Y-162527511D01*
X100400000Y-162476000D01*
X100400000Y-146266237D01*
X100400000Y-130023996D01*
X100419684Y-129956961D01*
X100472488Y-129911206D01*
X100523999Y-129900000D01*
X101225000Y-129900000D01*
X101225000Y-128874189D01*
X101277547Y-128910016D01*
X101407173Y-128950000D01*
X101508724Y-128950000D01*
X101609138Y-128934865D01*
X101725000Y-128879068D01*
X101725000Y-129900000D01*
X102422828Y-129900000D01*
X102422844Y-129899999D01*
X102482372Y-129893598D01*
X102482379Y-129893596D01*
X102617086Y-129843354D01*
X102617093Y-129843350D01*
X102732187Y-129757190D01*
X102732190Y-129757187D01*
X102818350Y-129642093D01*
X102818355Y-129642084D01*
X102847075Y-129565081D01*
X102888945Y-129509147D01*
X102954409Y-129484729D01*
X103022682Y-129499580D01*
X103054484Y-129524428D01*
X103063216Y-129533913D01*
X103063219Y-129533915D01*
X103063222Y-129533918D01*
X103246365Y-129676464D01*
X103246371Y-129676468D01*
X103246374Y-129676470D01*
X103450497Y-129786936D01*
X103490005Y-129800499D01*
X103670015Y-129862297D01*
X103670017Y-129862297D01*
X103670019Y-129862298D01*
X103898951Y-129900500D01*
X103898952Y-129900500D01*
X104131048Y-129900500D01*
X104131049Y-129900500D01*
X104359981Y-129862298D01*
X104579503Y-129786936D01*
X104783626Y-129676470D01*
X104826999Y-129642712D01*
X104926739Y-129565081D01*
X104966784Y-129533913D01*
X105123979Y-129363153D01*
X105226209Y-129206678D01*
X105279354Y-129161322D01*
X105330017Y-129150500D01*
X105404315Y-129150500D01*
X105467435Y-129167767D01*
X105560607Y-129222869D01*
X105600149Y-129234357D01*
X105714791Y-129267664D01*
X105714794Y-129267664D01*
X105714796Y-129267665D01*
X105726803Y-129268609D01*
X105750817Y-129270500D01*
X105750818Y-129270499D01*
X105750819Y-129270500D01*
X106082304Y-129270499D01*
X106249181Y-129270499D01*
X106252014Y-129270275D01*
X106285204Y-129267665D01*
X106439393Y-129222869D01*
X106577598Y-129141135D01*
X106691135Y-129027598D01*
X106772869Y-128889393D01*
X106817665Y-128735204D01*
X106820500Y-128699181D01*
X106820499Y-128300820D01*
X106817665Y-128264796D01*
X106772869Y-128110607D01*
X106738870Y-128053119D01*
X106721688Y-127985396D01*
X106738870Y-127926881D01*
X106772869Y-127869393D01*
X106817665Y-127715204D01*
X106820500Y-127679181D01*
X106820499Y-127280820D01*
X106817665Y-127244796D01*
X106772869Y-127090607D01*
X106743069Y-127040217D01*
X106725887Y-126972496D01*
X106742415Y-126915099D01*
X106742416Y-126915098D01*
X106827179Y-126768284D01*
X106885674Y-126588256D01*
X106905460Y-126400000D01*
X106885674Y-126211744D01*
X106827179Y-126031716D01*
X106732533Y-125867784D01*
X106605871Y-125727112D01*
X106599610Y-125722563D01*
X106452734Y-125615851D01*
X106452729Y-125615848D01*
X106279807Y-125538857D01*
X106279802Y-125538855D01*
X106134001Y-125507865D01*
X106094646Y-125499500D01*
X105905354Y-125499500D01*
X105872897Y-125506398D01*
X105720197Y-125538855D01*
X105720192Y-125538857D01*
X105547270Y-125615848D01*
X105547265Y-125615851D01*
X105394129Y-125727111D01*
X105267466Y-125867785D01*
X105172821Y-126031715D01*
X105172818Y-126031722D01*
X105114327Y-126211740D01*
X105114326Y-126211744D01*
X105094540Y-126400000D01*
X105114326Y-126588256D01*
X105114327Y-126588259D01*
X105172818Y-126768277D01*
X105172821Y-126768284D01*
X105257584Y-126915098D01*
X105274057Y-126982998D01*
X105256930Y-127040217D01*
X105227133Y-127090601D01*
X105227129Y-127090611D01*
X105182335Y-127244791D01*
X105182334Y-127244797D01*
X105179500Y-127280817D01*
X105179500Y-127379374D01*
X105159815Y-127446413D01*
X105107011Y-127492168D01*
X105037853Y-127502112D01*
X104974297Y-127473087D01*
X104970604Y-127469503D01*
X104970554Y-127469558D01*
X104966777Y-127466081D01*
X104783634Y-127323535D01*
X104783628Y-127323531D01*
X104579504Y-127213064D01*
X104579495Y-127213061D01*
X104359984Y-127137702D01*
X104172404Y-127106401D01*
X104131049Y-127099500D01*
X103898951Y-127099500D01*
X103857596Y-127106401D01*
X103670015Y-127137702D01*
X103450504Y-127213061D01*
X103450495Y-127213064D01*
X103246371Y-127323531D01*
X103246365Y-127323535D01*
X103063222Y-127466081D01*
X103063215Y-127466087D01*
X103054484Y-127475572D01*
X102994595Y-127511561D01*
X102924757Y-127509458D01*
X102867143Y-127469932D01*
X102847075Y-127434918D01*
X102818355Y-127357915D01*
X102818350Y-127357906D01*
X102732190Y-127242812D01*
X102732187Y-127242809D01*
X102617093Y-127156649D01*
X102617086Y-127156645D01*
X102482379Y-127106403D01*
X102482372Y-127106401D01*
X102422844Y-127100000D01*
X101725000Y-127100000D01*
X101725000Y-128125810D01*
X101672453Y-128089984D01*
X101542827Y-128050000D01*
X101441276Y-128050000D01*
X101340862Y-128065135D01*
X101225000Y-128120931D01*
X101225000Y-127100000D01*
X100523999Y-127100000D01*
X100456960Y-127080315D01*
X100411205Y-127027511D01*
X100400000Y-126976004D01*
X100400000Y-124023996D01*
X100419684Y-123956961D01*
X100472488Y-123911206D01*
X100523999Y-123900000D01*
X101225000Y-123900000D01*
X101225000Y-122874189D01*
X101277547Y-122910016D01*
X101407173Y-122950000D01*
X101508724Y-122950000D01*
X101609138Y-122934865D01*
X101725000Y-122879068D01*
X101725000Y-123900000D01*
X102422828Y-123900000D01*
X102422844Y-123899999D01*
X102482372Y-123893598D01*
X102482379Y-123893596D01*
X102617086Y-123843354D01*
X102617093Y-123843350D01*
X102732187Y-123757190D01*
X102732190Y-123757187D01*
X102818350Y-123642093D01*
X102818355Y-123642084D01*
X102847075Y-123565081D01*
X102888945Y-123509147D01*
X102954409Y-123484729D01*
X103022682Y-123499580D01*
X103054484Y-123524428D01*
X103063216Y-123533913D01*
X103063219Y-123533915D01*
X103063222Y-123533918D01*
X103246365Y-123676464D01*
X103246371Y-123676468D01*
X103246374Y-123676470D01*
X103450497Y-123786936D01*
X103564487Y-123826068D01*
X103670015Y-123862297D01*
X103670017Y-123862297D01*
X103670019Y-123862298D01*
X103898951Y-123900500D01*
X103898952Y-123900500D01*
X104131048Y-123900500D01*
X104131049Y-123900500D01*
X104359981Y-123862298D01*
X104579503Y-123786936D01*
X104783626Y-123676470D01*
X104966784Y-123533913D01*
X105123979Y-123363153D01*
X105226209Y-123206678D01*
X105279354Y-123161322D01*
X105330017Y-123150500D01*
X105404315Y-123150500D01*
X105467435Y-123167767D01*
X105560607Y-123222869D01*
X105601268Y-123234682D01*
X105714791Y-123267664D01*
X105714794Y-123267664D01*
X105714796Y-123267665D01*
X105726803Y-123268609D01*
X105750817Y-123270500D01*
X105750818Y-123270499D01*
X105750819Y-123270500D01*
X106083669Y-123270499D01*
X106249181Y-123270499D01*
X106252014Y-123270275D01*
X106285204Y-123267665D01*
X106439393Y-123222869D01*
X106577598Y-123141135D01*
X106691135Y-123027598D01*
X106772869Y-122889393D01*
X106817665Y-122735204D01*
X106820500Y-122699181D01*
X106820499Y-122300820D01*
X106817665Y-122264796D01*
X106772869Y-122110607D01*
X106738870Y-122053119D01*
X106721688Y-121985396D01*
X106738870Y-121926881D01*
X106772869Y-121869393D01*
X106817665Y-121715204D01*
X106820500Y-121679181D01*
X106820499Y-121280820D01*
X106817665Y-121244796D01*
X106772869Y-121090607D01*
X106693164Y-120955834D01*
X106675982Y-120888111D01*
X106698142Y-120821849D01*
X106707741Y-120809749D01*
X106732533Y-120782216D01*
X106827179Y-120618284D01*
X106885674Y-120438256D01*
X106905460Y-120250000D01*
X106885674Y-120061744D01*
X106827179Y-119881716D01*
X106732533Y-119717784D01*
X106605871Y-119577112D01*
X106554802Y-119540008D01*
X106452734Y-119465851D01*
X106452729Y-119465848D01*
X106279807Y-119388857D01*
X106279802Y-119388855D01*
X106134001Y-119357865D01*
X106094646Y-119349500D01*
X105905354Y-119349500D01*
X105872897Y-119356398D01*
X105720197Y-119388855D01*
X105720192Y-119388857D01*
X105547270Y-119465848D01*
X105547265Y-119465851D01*
X105394129Y-119577111D01*
X105267466Y-119717785D01*
X105172821Y-119881715D01*
X105172818Y-119881722D01*
X105114327Y-120061740D01*
X105114326Y-120061744D01*
X105094540Y-120250000D01*
X105114326Y-120438256D01*
X105114327Y-120438259D01*
X105172818Y-120618277D01*
X105172821Y-120618284D01*
X105267466Y-120782215D01*
X105292251Y-120809741D01*
X105322481Y-120872732D01*
X105313857Y-120942068D01*
X105306834Y-120955834D01*
X105227133Y-121090602D01*
X105227129Y-121090611D01*
X105182335Y-121244791D01*
X105182334Y-121244797D01*
X105179500Y-121280817D01*
X105179500Y-121379374D01*
X105159815Y-121446413D01*
X105107011Y-121492168D01*
X105037853Y-121502112D01*
X104974297Y-121473087D01*
X104970604Y-121469503D01*
X104970554Y-121469558D01*
X104966777Y-121466081D01*
X104783634Y-121323535D01*
X104783628Y-121323531D01*
X104579504Y-121213064D01*
X104579495Y-121213061D01*
X104359984Y-121137702D01*
X104154462Y-121103407D01*
X104131049Y-121099500D01*
X103898951Y-121099500D01*
X103875538Y-121103407D01*
X103670015Y-121137702D01*
X103450504Y-121213061D01*
X103450495Y-121213064D01*
X103246371Y-121323531D01*
X103246365Y-121323535D01*
X103063222Y-121466081D01*
X103063215Y-121466087D01*
X103054484Y-121475572D01*
X102994595Y-121511561D01*
X102924757Y-121509458D01*
X102867143Y-121469932D01*
X102847075Y-121434918D01*
X102818355Y-121357915D01*
X102818350Y-121357906D01*
X102732190Y-121242812D01*
X102732187Y-121242809D01*
X102617093Y-121156649D01*
X102617086Y-121156645D01*
X102482379Y-121106403D01*
X102482372Y-121106401D01*
X102422844Y-121100000D01*
X101725000Y-121100000D01*
X101725000Y-122125810D01*
X101672453Y-122089984D01*
X101542827Y-122050000D01*
X101441276Y-122050000D01*
X101340862Y-122065135D01*
X101225000Y-122120931D01*
X101225000Y-121100000D01*
X100523999Y-121100000D01*
X100456960Y-121080315D01*
X100411205Y-121027511D01*
X100400000Y-120976004D01*
X100400000Y-118023996D01*
X100419684Y-117956961D01*
X100472488Y-117911206D01*
X100523999Y-117900000D01*
X101225000Y-117900000D01*
X101225000Y-116874189D01*
X101277547Y-116910016D01*
X101407173Y-116950000D01*
X101508724Y-116950000D01*
X101609138Y-116934865D01*
X101725000Y-116879068D01*
X101725000Y-117900000D01*
X102422828Y-117900000D01*
X102422844Y-117899999D01*
X102482372Y-117893598D01*
X102482379Y-117893596D01*
X102617086Y-117843354D01*
X102617093Y-117843350D01*
X102732187Y-117757190D01*
X102732190Y-117757187D01*
X102818350Y-117642093D01*
X102818355Y-117642084D01*
X102847075Y-117565081D01*
X102888945Y-117509147D01*
X102954409Y-117484729D01*
X103022682Y-117499580D01*
X103054484Y-117524428D01*
X103063216Y-117533913D01*
X103063219Y-117533915D01*
X103063222Y-117533918D01*
X103246365Y-117676464D01*
X103246371Y-117676468D01*
X103246374Y-117676470D01*
X103450497Y-117786936D01*
X103564487Y-117826068D01*
X103670015Y-117862297D01*
X103670017Y-117862297D01*
X103670019Y-117862298D01*
X103898951Y-117900500D01*
X103898952Y-117900500D01*
X104131048Y-117900500D01*
X104131049Y-117900500D01*
X104359981Y-117862298D01*
X104579503Y-117786936D01*
X104783626Y-117676470D01*
X104966784Y-117533913D01*
X105123979Y-117363153D01*
X105226209Y-117206678D01*
X105279354Y-117161322D01*
X105330017Y-117150500D01*
X105404315Y-117150500D01*
X105467435Y-117167767D01*
X105560607Y-117222869D01*
X105601268Y-117234682D01*
X105714791Y-117267664D01*
X105714794Y-117267664D01*
X105714796Y-117267665D01*
X105726803Y-117268609D01*
X105750817Y-117270500D01*
X105750818Y-117270499D01*
X105750819Y-117270500D01*
X106083669Y-117270499D01*
X106249181Y-117270499D01*
X106252014Y-117270275D01*
X106285204Y-117267665D01*
X106439393Y-117222869D01*
X106577598Y-117141135D01*
X106691135Y-117027598D01*
X106772869Y-116889393D01*
X106811280Y-116757180D01*
X106817664Y-116735208D01*
X106817665Y-116735202D01*
X106820500Y-116699183D01*
X106820499Y-116300819D01*
X106817665Y-116264799D01*
X106817665Y-116264796D01*
X106772869Y-116110607D01*
X106738869Y-116053117D01*
X106721688Y-115985398D01*
X106738869Y-115926882D01*
X106772869Y-115869393D01*
X106783980Y-115831151D01*
X106817664Y-115715208D01*
X106817665Y-115715202D01*
X106820500Y-115679183D01*
X106820499Y-115280821D01*
X106820499Y-115280817D01*
X106819500Y-115268127D01*
X106833864Y-115199753D01*
X106882915Y-115149996D01*
X106951080Y-115134657D01*
X107016718Y-115158606D01*
X107030799Y-115170720D01*
X118163181Y-126303101D01*
X118196666Y-126364424D01*
X118199500Y-126390782D01*
X118199500Y-127075500D01*
X118179815Y-127142539D01*
X118127011Y-127188294D01*
X118075500Y-127199500D01*
X117649998Y-127199500D01*
X117649980Y-127199501D01*
X117547203Y-127210000D01*
X117547200Y-127210001D01*
X117380668Y-127265185D01*
X117380663Y-127265187D01*
X117231342Y-127357289D01*
X117107289Y-127481342D01*
X117015187Y-127630663D01*
X117015185Y-127630668D01*
X117015115Y-127630880D01*
X116960001Y-127797203D01*
X116960001Y-127797204D01*
X116960000Y-127797204D01*
X116949500Y-127899983D01*
X116949500Y-129100001D01*
X116949501Y-129100018D01*
X116960000Y-129202796D01*
X116960001Y-129202799D01*
X116991226Y-129297028D01*
X117015186Y-129369334D01*
X117107288Y-129518656D01*
X117231344Y-129642712D01*
X117380666Y-129734814D01*
X117547203Y-129789999D01*
X117649991Y-129800500D01*
X120750008Y-129800499D01*
X120852797Y-129789999D01*
X121019334Y-129734814D01*
X121168656Y-129642712D01*
X121292712Y-129518656D01*
X121384814Y-129369334D01*
X121395514Y-129337039D01*
X121431721Y-129284503D01*
X121431070Y-129283852D01*
X121434611Y-129280310D01*
X121434877Y-129279925D01*
X121435513Y-129279405D01*
X121435519Y-129279402D01*
X121478917Y-129236002D01*
X121482336Y-129232834D01*
X121528895Y-129192866D01*
X121549931Y-129165688D01*
X121555101Y-129159818D01*
X121964919Y-128750000D01*
X122550001Y-128750000D01*
X122550001Y-129099986D01*
X122560494Y-129202697D01*
X122615641Y-129369119D01*
X122615643Y-129369124D01*
X122707684Y-129518345D01*
X122831654Y-129642315D01*
X122980875Y-129734356D01*
X122980880Y-129734358D01*
X123147302Y-129789505D01*
X123147309Y-129789506D01*
X123250019Y-129799999D01*
X124549999Y-129799999D01*
X124550000Y-128750000D01*
X125050000Y-128750000D01*
X125050000Y-129799999D01*
X126349972Y-129799999D01*
X126349986Y-129799998D01*
X126452697Y-129789505D01*
X126619119Y-129734358D01*
X126619124Y-129734356D01*
X126768345Y-129642315D01*
X126892315Y-129518345D01*
X126984356Y-129369124D01*
X126984358Y-129369119D01*
X127039505Y-129202697D01*
X127039506Y-129202690D01*
X127049999Y-129099986D01*
X127050000Y-129099973D01*
X127050000Y-128750000D01*
X127950001Y-128750000D01*
X127950001Y-129099986D01*
X127960494Y-129202697D01*
X128015641Y-129369119D01*
X128015643Y-129369124D01*
X128107684Y-129518345D01*
X128231654Y-129642315D01*
X128380875Y-129734356D01*
X128380880Y-129734358D01*
X128547302Y-129789505D01*
X128547309Y-129789506D01*
X128650019Y-129799999D01*
X129949999Y-129799999D01*
X129950000Y-129799998D01*
X129950000Y-128750000D01*
X130450000Y-128750000D01*
X130450000Y-129799999D01*
X131749972Y-129799999D01*
X131749986Y-129799998D01*
X131852697Y-129789505D01*
X132019119Y-129734358D01*
X132019124Y-129734356D01*
X132168345Y-129642315D01*
X132292315Y-129518345D01*
X132384356Y-129369124D01*
X132384358Y-129369119D01*
X132439505Y-129202697D01*
X132439506Y-129202690D01*
X132449999Y-129099986D01*
X132450000Y-129099973D01*
X132450000Y-128750000D01*
X130450000Y-128750000D01*
X129950000Y-128750000D01*
X127950001Y-128750000D01*
X127050000Y-128750000D01*
X125050000Y-128750000D01*
X124550000Y-128750000D01*
X122550001Y-128750000D01*
X121964919Y-128750000D01*
X122428602Y-128286317D01*
X122489923Y-128252834D01*
X122516281Y-128250000D01*
X124549999Y-128250000D01*
X124549999Y-127200000D01*
X125050000Y-127200000D01*
X125050000Y-128250000D01*
X127049999Y-128250000D01*
X127950000Y-128250000D01*
X129950000Y-128250000D01*
X130449999Y-128250000D01*
X132449999Y-128250000D01*
X132449999Y-127900028D01*
X132449998Y-127900013D01*
X132439505Y-127797302D01*
X132384358Y-127630880D01*
X132384356Y-127630875D01*
X132292315Y-127481654D01*
X132168345Y-127357684D01*
X132019124Y-127265643D01*
X132019119Y-127265641D01*
X131852697Y-127210494D01*
X131852690Y-127210493D01*
X131749986Y-127200000D01*
X130450000Y-127200000D01*
X130449999Y-128250000D01*
X129950000Y-128250000D01*
X129950000Y-127200000D01*
X128650028Y-127200000D01*
X128650012Y-127200001D01*
X128547302Y-127210494D01*
X128380880Y-127265641D01*
X128380875Y-127265643D01*
X128231654Y-127357684D01*
X128107684Y-127481654D01*
X128015643Y-127630875D01*
X128015641Y-127630880D01*
X127960494Y-127797302D01*
X127960493Y-127797309D01*
X127950000Y-127900013D01*
X127950000Y-128250000D01*
X127049999Y-128250000D01*
X127049999Y-127900028D01*
X127049998Y-127900013D01*
X127039505Y-127797302D01*
X126984358Y-127630880D01*
X126984356Y-127630875D01*
X126892315Y-127481654D01*
X126768345Y-127357684D01*
X126619124Y-127265643D01*
X126619119Y-127265641D01*
X126452697Y-127210494D01*
X126452690Y-127210493D01*
X126349986Y-127200000D01*
X125050000Y-127200000D01*
X124549999Y-127200000D01*
X123352679Y-127200000D01*
X123285640Y-127180315D01*
X123239885Y-127127511D01*
X123229037Y-127066585D01*
X123230337Y-127049524D01*
X123225997Y-127015442D01*
X123225500Y-127007603D01*
X123225500Y-124944500D01*
X123245185Y-124877461D01*
X123297989Y-124831706D01*
X123349500Y-124820500D01*
X126900007Y-124820500D01*
X126900012Y-124820500D01*
X127002800Y-124809999D01*
X127169336Y-124754815D01*
X127318657Y-124662712D01*
X127442712Y-124538657D01*
X127534815Y-124389336D01*
X127589999Y-124222800D01*
X127600500Y-124120012D01*
X127600500Y-123950000D01*
X128600001Y-123950000D01*
X128600001Y-124099986D01*
X128610494Y-124202697D01*
X128665641Y-124369119D01*
X128665643Y-124369124D01*
X128757684Y-124518345D01*
X128881654Y-124642315D01*
X129030875Y-124734356D01*
X129030880Y-124734358D01*
X129197302Y-124789505D01*
X129197309Y-124789506D01*
X129300019Y-124799999D01*
X129949999Y-124799999D01*
X129950000Y-124799998D01*
X129950000Y-123950000D01*
X130450000Y-123950000D01*
X130450000Y-124799999D01*
X131099972Y-124799999D01*
X131099986Y-124799998D01*
X131202697Y-124789505D01*
X131369119Y-124734358D01*
X131369124Y-124734356D01*
X131518345Y-124642315D01*
X131642315Y-124518345D01*
X131734356Y-124369124D01*
X131734358Y-124369119D01*
X131789505Y-124202697D01*
X131789506Y-124202690D01*
X131799999Y-124099986D01*
X131800000Y-124099973D01*
X131800000Y-123950000D01*
X130450000Y-123950000D01*
X129950000Y-123950000D01*
X128600001Y-123950000D01*
X127600500Y-123950000D01*
X127600500Y-123450000D01*
X128600000Y-123450000D01*
X129950000Y-123450000D01*
X129950000Y-122600000D01*
X130450000Y-122600000D01*
X130450000Y-123450000D01*
X131799999Y-123450000D01*
X131799999Y-123300028D01*
X131799998Y-123300013D01*
X131789505Y-123197302D01*
X131734358Y-123030880D01*
X131734356Y-123030875D01*
X131642315Y-122881654D01*
X131518345Y-122757684D01*
X131369124Y-122665643D01*
X131369119Y-122665641D01*
X131202697Y-122610494D01*
X131202690Y-122610493D01*
X131099986Y-122600000D01*
X130450000Y-122600000D01*
X129950000Y-122600000D01*
X129300028Y-122600000D01*
X129300012Y-122600001D01*
X129197302Y-122610494D01*
X129030880Y-122665641D01*
X129030875Y-122665643D01*
X128881654Y-122757684D01*
X128757684Y-122881654D01*
X128665643Y-123030875D01*
X128665641Y-123030880D01*
X128610494Y-123197302D01*
X128610493Y-123197309D01*
X128600000Y-123300013D01*
X128600000Y-123450000D01*
X127600500Y-123450000D01*
X127600500Y-118719988D01*
X127589999Y-118617200D01*
X127555005Y-118511596D01*
X127552604Y-118441772D01*
X127588335Y-118381730D01*
X127650856Y-118350537D01*
X127668814Y-118348657D01*
X127702569Y-118347597D01*
X127722956Y-118341673D01*
X127741996Y-118337731D01*
X127763058Y-118335071D01*
X127808235Y-118317183D01*
X127813735Y-118315300D01*
X127860398Y-118301744D01*
X127878665Y-118290939D01*
X127896136Y-118282380D01*
X127915871Y-118274568D01*
X127955177Y-118246010D01*
X127960043Y-118242813D01*
X128001865Y-118218081D01*
X128016870Y-118203075D01*
X128031668Y-118190436D01*
X128048837Y-118177963D01*
X128079809Y-118140522D01*
X128083713Y-118136231D01*
X128833126Y-117386819D01*
X128894450Y-117353334D01*
X128920808Y-117350500D01*
X128923025Y-117350500D01*
X128990064Y-117370185D01*
X128995910Y-117374182D01*
X129147265Y-117484148D01*
X129147270Y-117484151D01*
X129320192Y-117561142D01*
X129320197Y-117561144D01*
X129505354Y-117600500D01*
X129505355Y-117600500D01*
X129694644Y-117600500D01*
X129694646Y-117600500D01*
X129879803Y-117561144D01*
X130052730Y-117484151D01*
X130204089Y-117374182D01*
X130269896Y-117350702D01*
X130276975Y-117350500D01*
X130520405Y-117350500D01*
X130587444Y-117370185D01*
X130608081Y-117386814D01*
X130662402Y-117441135D01*
X130800607Y-117522869D01*
X130805980Y-117524430D01*
X130954791Y-117567664D01*
X130954794Y-117567664D01*
X130954796Y-117567665D01*
X130966803Y-117568609D01*
X130990817Y-117570500D01*
X130990818Y-117570499D01*
X130990819Y-117570500D01*
X131257685Y-117570499D01*
X131389181Y-117570499D01*
X131396384Y-117569932D01*
X131425204Y-117567665D01*
X131579393Y-117522869D01*
X131637369Y-117488581D01*
X131705093Y-117471398D01*
X131763612Y-117488581D01*
X131820805Y-117522404D01*
X131960000Y-117562844D01*
X131960000Y-117007973D01*
X131960191Y-117003106D01*
X131960436Y-117000000D01*
X132459999Y-117000000D01*
X132459999Y-117562843D01*
X132599193Y-117522405D01*
X132737285Y-117440738D01*
X132737294Y-117440731D01*
X132850731Y-117327294D01*
X132850738Y-117327285D01*
X132932406Y-117189191D01*
X132932407Y-117189188D01*
X132977166Y-117035128D01*
X132977167Y-117035122D01*
X132979931Y-117000000D01*
X132459999Y-117000000D01*
X131960436Y-117000000D01*
X131960500Y-116999183D01*
X131960499Y-116500820D01*
X131960434Y-116499999D01*
X132459999Y-116499999D01*
X132460000Y-116500000D01*
X132979931Y-116500000D01*
X132977167Y-116464877D01*
X132977166Y-116464871D01*
X132932407Y-116310811D01*
X132932406Y-116310808D01*
X132882818Y-116226958D01*
X132865635Y-116159234D01*
X132887795Y-116092971D01*
X132898380Y-116080325D01*
X132900738Y-116077285D01*
X132982406Y-115939191D01*
X132982407Y-115939188D01*
X133027166Y-115785128D01*
X133027167Y-115785122D01*
X133029931Y-115750000D01*
X132510000Y-115750000D01*
X132510000Y-116258637D01*
X132490315Y-116325676D01*
X132473682Y-116346317D01*
X132460000Y-116359999D01*
X132459999Y-116499999D01*
X131960434Y-116499999D01*
X131960191Y-116496906D01*
X131960000Y-116492041D01*
X131960000Y-115991361D01*
X131979685Y-115924322D01*
X131996320Y-115903679D01*
X132010000Y-115889999D01*
X132010000Y-115757973D01*
X132010191Y-115753106D01*
X132010500Y-115749183D01*
X132010499Y-115250820D01*
X132010191Y-115246906D01*
X132010000Y-115242041D01*
X132010000Y-114507973D01*
X132010191Y-114503106D01*
X132010436Y-114500000D01*
X132510000Y-114500000D01*
X132510000Y-115250000D01*
X133029931Y-115250000D01*
X133027167Y-115214877D01*
X133027166Y-115214871D01*
X132982407Y-115060811D01*
X132982406Y-115060808D01*
X132909849Y-114938121D01*
X132892666Y-114870398D01*
X132909849Y-114811879D01*
X132982406Y-114689191D01*
X132982407Y-114689188D01*
X133027166Y-114535128D01*
X133027167Y-114535122D01*
X133029931Y-114500000D01*
X132510000Y-114500000D01*
X132010436Y-114500000D01*
X132010500Y-114499183D01*
X132010499Y-114000820D01*
X132010434Y-114000000D01*
X132510000Y-114000000D01*
X133029931Y-114000000D01*
X133027167Y-113964877D01*
X133027166Y-113964871D01*
X132982407Y-113810811D01*
X132982406Y-113810808D01*
X132900738Y-113672714D01*
X132900731Y-113672705D01*
X132787294Y-113559268D01*
X132787285Y-113559261D01*
X132649191Y-113477593D01*
X132649188Y-113477591D01*
X132510001Y-113437153D01*
X132510000Y-113437154D01*
X132510000Y-114000000D01*
X132010434Y-114000000D01*
X132010191Y-113996906D01*
X132010000Y-113992041D01*
X132010000Y-113437154D01*
X132009998Y-113437153D01*
X131870811Y-113477591D01*
X131870810Y-113477592D01*
X131813611Y-113511419D01*
X131745886Y-113528600D01*
X131687371Y-113511419D01*
X131669515Y-113500859D01*
X131629393Y-113477131D01*
X131629392Y-113477130D01*
X131629391Y-113477130D01*
X131629388Y-113477129D01*
X131475208Y-113432335D01*
X131475202Y-113432334D01*
X131439183Y-113429500D01*
X131439181Y-113429500D01*
X131173717Y-113429500D01*
X131040819Y-113429501D01*
X131004794Y-113432335D01*
X130850611Y-113477129D01*
X130850606Y-113477131D01*
X130712404Y-113558863D01*
X130712396Y-113558869D01*
X130708085Y-113563181D01*
X130646762Y-113596666D01*
X130620404Y-113599500D01*
X130276975Y-113599500D01*
X130209936Y-113579815D01*
X130204090Y-113575818D01*
X130052734Y-113465851D01*
X130052729Y-113465848D01*
X129879807Y-113388857D01*
X129879802Y-113388855D01*
X129734001Y-113357865D01*
X129694646Y-113349500D01*
X129505354Y-113349500D01*
X129472897Y-113356398D01*
X129320197Y-113388855D01*
X129320192Y-113388857D01*
X129147270Y-113465848D01*
X129147265Y-113465851D01*
X128994129Y-113577111D01*
X128867466Y-113717785D01*
X128772821Y-113881715D01*
X128772818Y-113881722D01*
X128714327Y-114061740D01*
X128714326Y-114061744D01*
X128694540Y-114250000D01*
X128714326Y-114438256D01*
X128714327Y-114438259D01*
X128772818Y-114618277D01*
X128772821Y-114618284D01*
X128867467Y-114782216D01*
X128873096Y-114788467D01*
X128876304Y-114792031D01*
X128906531Y-114855023D01*
X128897904Y-114924358D01*
X128876304Y-114957969D01*
X128867466Y-114967785D01*
X128772821Y-115131715D01*
X128772818Y-115131722D01*
X128721370Y-115290065D01*
X128714326Y-115311744D01*
X128694540Y-115500000D01*
X128714326Y-115688256D01*
X128714327Y-115688259D01*
X128772820Y-115868282D01*
X128774808Y-115872747D01*
X128784094Y-115941997D01*
X128754466Y-116005274D01*
X128695331Y-116042488D01*
X128665424Y-116047123D01*
X128589783Y-116049500D01*
X128559075Y-116049500D01*
X128559071Y-116049500D01*
X128559060Y-116049501D01*
X128551804Y-116050417D01*
X128545986Y-116050875D01*
X128497433Y-116052401D01*
X128482873Y-116056630D01*
X128477040Y-116058325D01*
X128457996Y-116062269D01*
X128436942Y-116064929D01*
X128436940Y-116064929D01*
X128391781Y-116082808D01*
X128386255Y-116084700D01*
X128339601Y-116098254D01*
X128321325Y-116109063D01*
X128303860Y-116117619D01*
X128284124Y-116125433D01*
X128244824Y-116153986D01*
X128239942Y-116157193D01*
X128198136Y-116181917D01*
X128183124Y-116196929D01*
X128168336Y-116209558D01*
X128151167Y-116222032D01*
X128151165Y-116222034D01*
X128120194Y-116259470D01*
X128116261Y-116263791D01*
X127735119Y-116644935D01*
X127366873Y-117013181D01*
X127305550Y-117046666D01*
X127279192Y-117049500D01*
X121350319Y-117049500D01*
X121283280Y-117029815D01*
X121237525Y-116977011D01*
X121227099Y-116911618D01*
X121232180Y-116866518D01*
X121259246Y-116802104D01*
X121316840Y-116762548D01*
X121341518Y-116757180D01*
X121384138Y-116752378D01*
X121554307Y-116692833D01*
X121568107Y-116684161D01*
X121568107Y-116684160D01*
X121205000Y-116321053D01*
X120530181Y-116995872D01*
X120468858Y-117029357D01*
X120399166Y-117024373D01*
X120354819Y-116995872D01*
X120121439Y-116762492D01*
X120342500Y-116762492D01*
X120380697Y-116815065D01*
X120426662Y-116830000D01*
X120458338Y-116830000D01*
X120504303Y-116815065D01*
X120542500Y-116762492D01*
X120542500Y-116697508D01*
X120504303Y-116644935D01*
X120458338Y-116630000D01*
X120426662Y-116630000D01*
X120380697Y-116644935D01*
X120342500Y-116697508D01*
X120342500Y-116762492D01*
X120121439Y-116762492D01*
X119680000Y-116321053D01*
X119005181Y-116995872D01*
X118943858Y-117029357D01*
X118874166Y-117024373D01*
X118829819Y-116995872D01*
X118596439Y-116762492D01*
X118817500Y-116762492D01*
X118855697Y-116815065D01*
X118901662Y-116830000D01*
X118933338Y-116830000D01*
X118979303Y-116815065D01*
X119017500Y-116762492D01*
X119017500Y-116697508D01*
X118979303Y-116644935D01*
X118933338Y-116630000D01*
X118901662Y-116630000D01*
X118855697Y-116644935D01*
X118817500Y-116697508D01*
X118817500Y-116762492D01*
X118596439Y-116762492D01*
X118572193Y-116738246D01*
X118155001Y-116321053D01*
X118155000Y-116321053D01*
X117791891Y-116684160D01*
X117805697Y-116692835D01*
X117805701Y-116692837D01*
X117975859Y-116752377D01*
X118018482Y-116757180D01*
X118082896Y-116784246D01*
X118122451Y-116841840D01*
X118127819Y-116866515D01*
X118132901Y-116911615D01*
X118120847Y-116980437D01*
X118073499Y-117031817D01*
X118009681Y-117049500D01*
X113145808Y-117049500D01*
X113078769Y-117029815D01*
X113058127Y-117013181D01*
X112012448Y-115967502D01*
X117349938Y-115967502D01*
X117370121Y-116146638D01*
X117370122Y-116146641D01*
X117429662Y-116316798D01*
X117429667Y-116316808D01*
X117438338Y-116330608D01*
X117768955Y-115999992D01*
X118055000Y-115999992D01*
X118093197Y-116052565D01*
X118139162Y-116067500D01*
X118170838Y-116067500D01*
X118216803Y-116052565D01*
X118255000Y-115999992D01*
X118255000Y-115967500D01*
X118508553Y-115967500D01*
X118917500Y-116376446D01*
X119293954Y-115999992D01*
X119580000Y-115999992D01*
X119618197Y-116052565D01*
X119664162Y-116067500D01*
X119695838Y-116067500D01*
X119741803Y-116052565D01*
X119780000Y-115999992D01*
X119780000Y-115967500D01*
X120033553Y-115967500D01*
X120442500Y-116376446D01*
X120818955Y-115999992D01*
X121105000Y-115999992D01*
X121143197Y-116052565D01*
X121189162Y-116067500D01*
X121220838Y-116067500D01*
X121266803Y-116052565D01*
X121305000Y-115999992D01*
X121305000Y-115967499D01*
X121558552Y-115967499D01*
X121921660Y-116330607D01*
X121921661Y-116330607D01*
X121930333Y-116316807D01*
X121989878Y-116146638D01*
X122010062Y-115967502D01*
X122010062Y-115967497D01*
X121989878Y-115788361D01*
X121989877Y-115788358D01*
X121930337Y-115618201D01*
X121930335Y-115618197D01*
X121921660Y-115604391D01*
X121558553Y-115967499D01*
X121558552Y-115967499D01*
X121305000Y-115967499D01*
X121305000Y-115935008D01*
X121266803Y-115882435D01*
X121220838Y-115867500D01*
X121189162Y-115867500D01*
X121143197Y-115882435D01*
X121105000Y-115935008D01*
X121105000Y-115999992D01*
X120818955Y-115999992D01*
X120851447Y-115967500D01*
X120442500Y-115558553D01*
X120033553Y-115967500D01*
X119780000Y-115967500D01*
X119780000Y-115935008D01*
X119741803Y-115882435D01*
X119695838Y-115867500D01*
X119664162Y-115867500D01*
X119618197Y-115882435D01*
X119580000Y-115935008D01*
X119580000Y-115999992D01*
X119293954Y-115999992D01*
X119326446Y-115967500D01*
X118917500Y-115558553D01*
X118508553Y-115967499D01*
X118508553Y-115967500D01*
X118255000Y-115967500D01*
X118255000Y-115935008D01*
X118216803Y-115882435D01*
X118170838Y-115867500D01*
X118139162Y-115867500D01*
X118093197Y-115882435D01*
X118055000Y-115935008D01*
X118055000Y-115999992D01*
X117768955Y-115999992D01*
X117801447Y-115967500D01*
X117801447Y-115967499D01*
X117438338Y-115604390D01*
X117438338Y-115604391D01*
X117429664Y-115618196D01*
X117370122Y-115788358D01*
X117370121Y-115788361D01*
X117349938Y-115967497D01*
X117349938Y-115967502D01*
X112012448Y-115967502D01*
X111295784Y-115250838D01*
X117791890Y-115250838D01*
X118154999Y-115613947D01*
X118531455Y-115237492D01*
X118817500Y-115237492D01*
X118855697Y-115290065D01*
X118901662Y-115305000D01*
X118933338Y-115305000D01*
X118979303Y-115290065D01*
X119017500Y-115237492D01*
X119017500Y-115204999D01*
X119271053Y-115204999D01*
X119680000Y-115613946D01*
X120056455Y-115237492D01*
X120342500Y-115237492D01*
X120380697Y-115290065D01*
X120426662Y-115305000D01*
X120458338Y-115305000D01*
X120504303Y-115290065D01*
X120542500Y-115237492D01*
X120542500Y-115204999D01*
X120796053Y-115204999D01*
X121205000Y-115613946D01*
X121568108Y-115250838D01*
X121564508Y-115218884D01*
X121564507Y-115191119D01*
X121568107Y-115159160D01*
X121205001Y-114796053D01*
X121205000Y-114796053D01*
X120796053Y-115204998D01*
X120796053Y-115204999D01*
X120542500Y-115204999D01*
X120542500Y-115172508D01*
X120504303Y-115119935D01*
X120458338Y-115105000D01*
X120426662Y-115105000D01*
X120380697Y-115119935D01*
X120342500Y-115172508D01*
X120342500Y-115237492D01*
X120056455Y-115237492D01*
X120088947Y-115205000D01*
X119680000Y-114796053D01*
X119271053Y-115204999D01*
X119017500Y-115204999D01*
X119017500Y-115172508D01*
X118979303Y-115119935D01*
X118933338Y-115105000D01*
X118901662Y-115105000D01*
X118855697Y-115119935D01*
X118817500Y-115172508D01*
X118817500Y-115237492D01*
X118531455Y-115237492D01*
X118563947Y-115205000D01*
X118563947Y-115204999D01*
X118155001Y-114796053D01*
X118155000Y-114796053D01*
X117791890Y-115159161D01*
X117795491Y-115191123D01*
X117795491Y-115218892D01*
X117791890Y-115250838D01*
X111295784Y-115250838D01*
X110487448Y-114442502D01*
X117349938Y-114442502D01*
X117370121Y-114621638D01*
X117370122Y-114621641D01*
X117429662Y-114791798D01*
X117429667Y-114791808D01*
X117438338Y-114805608D01*
X117768955Y-114474992D01*
X118055000Y-114474992D01*
X118093197Y-114527565D01*
X118139162Y-114542500D01*
X118170838Y-114542500D01*
X118216803Y-114527565D01*
X118255000Y-114474992D01*
X118255000Y-114442500D01*
X118508553Y-114442500D01*
X118917500Y-114851446D01*
X119293954Y-114474992D01*
X119580000Y-114474992D01*
X119618197Y-114527565D01*
X119664162Y-114542500D01*
X119695838Y-114542500D01*
X119741803Y-114527565D01*
X119780000Y-114474992D01*
X119780000Y-114442500D01*
X120033553Y-114442500D01*
X120442500Y-114851446D01*
X120818954Y-114474992D01*
X121105000Y-114474992D01*
X121143197Y-114527565D01*
X121189162Y-114542500D01*
X121220838Y-114542500D01*
X121266803Y-114527565D01*
X121305000Y-114474992D01*
X121305000Y-114442500D01*
X121558552Y-114442500D01*
X121921660Y-114805607D01*
X121921661Y-114805607D01*
X121930333Y-114791807D01*
X121989878Y-114621638D01*
X122010062Y-114442502D01*
X122010062Y-114442497D01*
X121989878Y-114263361D01*
X121989877Y-114263358D01*
X121930337Y-114093201D01*
X121930335Y-114093197D01*
X121921660Y-114079391D01*
X121558552Y-114442500D01*
X121305000Y-114442500D01*
X121305000Y-114410008D01*
X121266803Y-114357435D01*
X121220838Y-114342500D01*
X121189162Y-114342500D01*
X121143197Y-114357435D01*
X121105000Y-114410008D01*
X121105000Y-114474992D01*
X120818954Y-114474992D01*
X120851446Y-114442500D01*
X120442500Y-114033553D01*
X120033553Y-114442499D01*
X120033553Y-114442500D01*
X119780000Y-114442500D01*
X119780000Y-114410008D01*
X119741803Y-114357435D01*
X119695838Y-114342500D01*
X119664162Y-114342500D01*
X119618197Y-114357435D01*
X119580000Y-114410008D01*
X119580000Y-114474992D01*
X119293954Y-114474992D01*
X119326446Y-114442500D01*
X118917500Y-114033553D01*
X118508553Y-114442500D01*
X118255000Y-114442500D01*
X118255000Y-114410008D01*
X118216803Y-114357435D01*
X118170838Y-114342500D01*
X118139162Y-114342500D01*
X118093197Y-114357435D01*
X118055000Y-114410008D01*
X118055000Y-114474992D01*
X117768955Y-114474992D01*
X117801447Y-114442500D01*
X117801447Y-114442499D01*
X117438338Y-114079390D01*
X117438338Y-114079391D01*
X117429664Y-114093196D01*
X117370122Y-114263358D01*
X117370121Y-114263361D01*
X117349938Y-114442497D01*
X117349938Y-114442502D01*
X110487448Y-114442502D01*
X109770784Y-113725838D01*
X117791890Y-113725838D01*
X118154999Y-114088947D01*
X118531454Y-113712492D01*
X118817500Y-113712492D01*
X118855697Y-113765065D01*
X118901662Y-113780000D01*
X118933338Y-113780000D01*
X118979303Y-113765065D01*
X119017500Y-113712492D01*
X119017500Y-113680000D01*
X119271053Y-113680000D01*
X119679999Y-114088947D01*
X120056455Y-113712492D01*
X120342500Y-113712492D01*
X120380697Y-113765065D01*
X120426662Y-113780000D01*
X120458338Y-113780000D01*
X120504303Y-113765065D01*
X120542500Y-113712492D01*
X120542500Y-113679999D01*
X120796052Y-113679999D01*
X121205000Y-114088947D01*
X121205001Y-114088947D01*
X121568108Y-113725838D01*
X121568108Y-113725837D01*
X121554308Y-113717167D01*
X121554298Y-113717162D01*
X121384141Y-113657622D01*
X121384138Y-113657621D01*
X121341515Y-113652819D01*
X121277102Y-113625752D01*
X121237547Y-113568157D01*
X121232180Y-113543482D01*
X121227377Y-113500859D01*
X121167837Y-113330701D01*
X121167835Y-113330697D01*
X121159160Y-113316891D01*
X120796052Y-113679999D01*
X120542500Y-113679999D01*
X120542500Y-113647508D01*
X120504303Y-113594935D01*
X120458338Y-113580000D01*
X120426662Y-113580000D01*
X120380697Y-113594935D01*
X120342500Y-113647508D01*
X120342500Y-113712492D01*
X120056455Y-113712492D01*
X120088947Y-113680000D01*
X120088947Y-113679999D01*
X119725838Y-113316890D01*
X119693892Y-113320491D01*
X119666123Y-113320491D01*
X119634161Y-113316890D01*
X119271053Y-113679999D01*
X119271053Y-113680000D01*
X119017500Y-113680000D01*
X119017500Y-113647508D01*
X118979303Y-113594935D01*
X118933338Y-113580000D01*
X118901662Y-113580000D01*
X118855697Y-113594935D01*
X118817500Y-113647508D01*
X118817500Y-113712492D01*
X118531454Y-113712492D01*
X118563947Y-113679999D01*
X118200838Y-113316890D01*
X118200838Y-113316891D01*
X118192165Y-113330695D01*
X118132622Y-113500859D01*
X118127819Y-113543484D01*
X118100752Y-113607898D01*
X118043156Y-113647452D01*
X118018484Y-113652819D01*
X117975859Y-113657622D01*
X117805695Y-113717165D01*
X117791891Y-113725838D01*
X117791890Y-113725838D01*
X109770784Y-113725838D01*
X108034808Y-111989862D01*
X108001323Y-111928539D01*
X107999168Y-111915141D01*
X107985674Y-111786745D01*
X107975292Y-111754794D01*
X107973734Y-111750000D01*
X117205000Y-111750000D01*
X117205000Y-112188873D01*
X117211386Y-112259152D01*
X117261776Y-112420862D01*
X117261778Y-112420866D01*
X117349404Y-112565818D01*
X117349407Y-112565822D01*
X117469177Y-112685592D01*
X117469181Y-112685595D01*
X117614133Y-112773221D01*
X117614137Y-112773223D01*
X117775848Y-112823613D01*
X117775846Y-112823613D01*
X117846127Y-112830000D01*
X117849999Y-112830000D01*
X117850000Y-111750000D01*
X117205000Y-111750000D01*
X107973734Y-111750000D01*
X107927179Y-111606716D01*
X107832533Y-111442784D01*
X107740514Y-111340587D01*
X107710285Y-111277597D01*
X107718910Y-111208261D01*
X107744981Y-111169938D01*
X108128101Y-110786819D01*
X108189425Y-110753334D01*
X108215783Y-110750500D01*
X116148259Y-110750500D01*
X117081000Y-110750500D01*
X117148039Y-110770185D01*
G37*
%TD.AperFunction*%
%TA.AperFunction,Conductor*%
G36*
X121070000Y-155886564D02*
G01*
X121070000Y-156343436D01*
X121073802Y-156365000D01*
X121015000Y-156365000D01*
X120981319Y-156398681D01*
X120919996Y-156432166D01*
X120893638Y-156435000D01*
X120449500Y-156435000D01*
X120382461Y-156415315D01*
X120336706Y-156362511D01*
X120325500Y-156311000D01*
X120325500Y-155989000D01*
X120345185Y-155921961D01*
X120397989Y-155876206D01*
X120449500Y-155865000D01*
X121073802Y-155865000D01*
X121070000Y-155886564D01*
G37*
%TD.AperFunction*%
%TA.AperFunction,Conductor*%
G36*
X137543039Y-106619685D02*
G01*
X137588794Y-106672489D01*
X137600000Y-106724000D01*
X137600000Y-127088158D01*
X137580315Y-127155197D01*
X137527511Y-127200952D01*
X137458353Y-127210896D01*
X137454070Y-127210131D01*
X137350016Y-127199500D01*
X137350009Y-127199500D01*
X136924500Y-127199500D01*
X136857461Y-127179815D01*
X136811706Y-127127011D01*
X136800500Y-127075500D01*
X136800500Y-121512715D01*
X136802757Y-121423641D01*
X136802756Y-121423640D01*
X136802757Y-121423637D01*
X136791933Y-121363249D01*
X136791280Y-121358587D01*
X136785074Y-121297563D01*
X136785074Y-121297562D01*
X136774784Y-121264768D01*
X136772917Y-121257155D01*
X136770702Y-121244797D01*
X136766858Y-121223347D01*
X136744100Y-121166374D01*
X136742521Y-121161938D01*
X136740860Y-121156645D01*
X136724159Y-121103412D01*
X136724158Y-121103410D01*
X136724157Y-121103407D01*
X136707488Y-121073378D01*
X136704117Y-121066278D01*
X136691378Y-121034386D01*
X136691377Y-121034383D01*
X136657620Y-120983163D01*
X136655180Y-120979134D01*
X136634606Y-120942068D01*
X136625409Y-120925498D01*
X136625407Y-120925495D01*
X136603033Y-120899434D01*
X136598302Y-120893159D01*
X136594975Y-120888111D01*
X136579402Y-120864481D01*
X136536012Y-120821091D01*
X136532822Y-120817648D01*
X136492867Y-120771106D01*
X136492863Y-120771102D01*
X136465698Y-120750074D01*
X136459811Y-120744890D01*
X134826600Y-119111680D01*
X134793116Y-119050358D01*
X134798100Y-118980666D01*
X134839972Y-118924733D01*
X134905436Y-118900316D01*
X134914282Y-118900000D01*
X135250000Y-118900000D01*
X135250000Y-117874189D01*
X135302547Y-117910016D01*
X135432173Y-117950000D01*
X135533724Y-117950000D01*
X135634138Y-117934865D01*
X135750000Y-117879068D01*
X135750000Y-118900000D01*
X136447828Y-118900000D01*
X136447844Y-118899999D01*
X136507372Y-118893598D01*
X136507379Y-118893596D01*
X136642086Y-118843354D01*
X136642093Y-118843350D01*
X136757187Y-118757190D01*
X136757190Y-118757187D01*
X136843350Y-118642093D01*
X136843354Y-118642086D01*
X136893596Y-118507379D01*
X136893598Y-118507372D01*
X136899999Y-118447844D01*
X136900000Y-118447827D01*
X136900000Y-117750000D01*
X135875278Y-117750000D01*
X135923625Y-117666260D01*
X135953810Y-117534008D01*
X135943673Y-117398735D01*
X135894113Y-117272459D01*
X135876203Y-117250000D01*
X136900000Y-117250000D01*
X136900000Y-116552172D01*
X136899999Y-116552155D01*
X136893598Y-116492627D01*
X136893596Y-116492620D01*
X136843354Y-116357913D01*
X136843350Y-116357906D01*
X136757190Y-116242812D01*
X136757187Y-116242809D01*
X136642093Y-116156649D01*
X136642086Y-116156645D01*
X136561729Y-116126674D01*
X136505795Y-116084803D01*
X136481378Y-116019338D01*
X136496230Y-115951065D01*
X136513826Y-115926516D01*
X136608979Y-115823153D01*
X136735924Y-115628849D01*
X136829157Y-115416300D01*
X136886134Y-115191305D01*
X136886149Y-115191123D01*
X136905300Y-114960006D01*
X136905300Y-114959993D01*
X136886135Y-114728702D01*
X136886133Y-114728691D01*
X136855968Y-114609572D01*
X136858593Y-114539752D01*
X136888491Y-114491453D01*
X136899513Y-114480431D01*
X136912079Y-114470365D01*
X136911925Y-114470178D01*
X136917937Y-114465204D01*
X136917937Y-114465203D01*
X136917940Y-114465202D01*
X136967190Y-114412755D01*
X136988912Y-114391034D01*
X136993402Y-114385244D01*
X136997184Y-114380814D01*
X137030448Y-114345393D01*
X137040674Y-114326789D01*
X137051347Y-114310541D01*
X137064363Y-114293763D01*
X137083651Y-114249187D01*
X137086224Y-114243936D01*
X137086561Y-114243321D01*
X137109627Y-114201368D01*
X137114904Y-114180808D01*
X137121206Y-114162403D01*
X137129636Y-114142926D01*
X137137235Y-114094945D01*
X137138417Y-114089234D01*
X137150500Y-114042177D01*
X137150500Y-114020954D01*
X137152027Y-114001555D01*
X137155347Y-113980595D01*
X137150775Y-113932227D01*
X137150500Y-113926389D01*
X137150500Y-113629595D01*
X137170185Y-113562556D01*
X137186819Y-113541913D01*
X137191135Y-113537598D01*
X137272869Y-113399393D01*
X137317665Y-113245204D01*
X137320500Y-113209181D01*
X137320499Y-112810820D01*
X137317665Y-112774796D01*
X137272869Y-112620607D01*
X137238870Y-112563119D01*
X137221688Y-112495396D01*
X137238870Y-112436881D01*
X137272869Y-112379393D01*
X137317665Y-112225204D01*
X137320500Y-112189181D01*
X137320499Y-111790820D01*
X137317665Y-111754796D01*
X137272869Y-111600607D01*
X137191135Y-111462402D01*
X137191133Y-111462400D01*
X137191130Y-111462396D01*
X137077603Y-111348869D01*
X137077595Y-111348863D01*
X136939393Y-111267131D01*
X136939388Y-111267129D01*
X136785208Y-111222335D01*
X136785202Y-111222334D01*
X136749183Y-111219500D01*
X136749181Y-111219500D01*
X136690808Y-111219500D01*
X136623769Y-111199815D01*
X136603127Y-111183181D01*
X136520434Y-111100488D01*
X136510361Y-111087914D01*
X136510174Y-111088070D01*
X136505201Y-111082059D01*
X136452756Y-111032810D01*
X136431035Y-111011089D01*
X136425240Y-111006594D01*
X136420798Y-111002799D01*
X136385396Y-110969554D01*
X136385388Y-110969548D01*
X136366792Y-110959325D01*
X136350531Y-110948644D01*
X136333763Y-110935637D01*
X136310295Y-110925482D01*
X136289178Y-110916343D01*
X136283956Y-110913786D01*
X136241368Y-110890373D01*
X136241365Y-110890372D01*
X136220801Y-110885092D01*
X136202396Y-110878790D01*
X136182927Y-110870365D01*
X136182921Y-110870363D01*
X136134951Y-110862766D01*
X136129236Y-110861582D01*
X136112772Y-110857355D01*
X136082180Y-110849500D01*
X136082177Y-110849500D01*
X136060955Y-110849500D01*
X136041555Y-110847973D01*
X136012888Y-110843432D01*
X136013085Y-110842186D01*
X135954214Y-110822870D01*
X135910142Y-110768653D01*
X135900500Y-110720714D01*
X135900500Y-109788828D01*
X135920185Y-109721789D01*
X135972989Y-109676034D01*
X136042147Y-109666090D01*
X136050266Y-109667535D01*
X136205354Y-109700500D01*
X136205355Y-109700500D01*
X136394644Y-109700500D01*
X136394646Y-109700500D01*
X136579803Y-109661144D01*
X136752730Y-109584151D01*
X136905871Y-109472888D01*
X137032533Y-109332216D01*
X137127179Y-109168284D01*
X137185674Y-108988256D01*
X137205460Y-108800000D01*
X137185674Y-108611744D01*
X137127179Y-108431716D01*
X137032533Y-108267784D01*
X136983408Y-108213225D01*
X136953178Y-108150233D01*
X136952109Y-108118571D01*
X136952756Y-108111717D01*
X136952760Y-108111703D01*
X136950500Y-108039795D01*
X136950500Y-108009075D01*
X136949579Y-108001788D01*
X136949122Y-107995979D01*
X136948795Y-107985570D01*
X136947597Y-107947430D01*
X136941676Y-107927052D01*
X136937731Y-107908003D01*
X136935071Y-107886942D01*
X136917186Y-107841772D01*
X136915297Y-107836252D01*
X136901743Y-107789599D01*
X136890941Y-107771335D01*
X136882379Y-107753858D01*
X136881351Y-107751262D01*
X136874568Y-107734129D01*
X136846014Y-107694828D01*
X136842810Y-107689950D01*
X136818082Y-107648137D01*
X136818081Y-107648135D01*
X136803074Y-107633128D01*
X136790435Y-107618330D01*
X136777961Y-107601160D01*
X136740528Y-107570194D01*
X136736206Y-107566260D01*
X136270434Y-107100488D01*
X136260361Y-107087914D01*
X136260174Y-107088070D01*
X136255201Y-107082059D01*
X136202756Y-107032810D01*
X136181035Y-107011089D01*
X136175240Y-107006594D01*
X136170798Y-107002799D01*
X136135396Y-106969554D01*
X136135388Y-106969548D01*
X136116792Y-106959325D01*
X136100531Y-106948644D01*
X136083763Y-106935637D01*
X136060295Y-106925482D01*
X136039178Y-106916343D01*
X136033956Y-106913786D01*
X135991368Y-106890373D01*
X135991365Y-106890372D01*
X135970801Y-106885092D01*
X135952396Y-106878790D01*
X135932927Y-106870365D01*
X135932921Y-106870363D01*
X135894315Y-106864249D01*
X135831180Y-106834320D01*
X135794249Y-106775008D01*
X135790221Y-106752989D01*
X135788607Y-106735213D01*
X135802149Y-106666668D01*
X135850599Y-106616326D01*
X135912099Y-106600000D01*
X137476000Y-106600000D01*
X137543039Y-106619685D01*
G37*
%TD.AperFunction*%
%TA.AperFunction,Conductor*%
G36*
X100605202Y-109094382D02*
G01*
X100611680Y-109100414D01*
X100672396Y-109161130D01*
X100672400Y-109161133D01*
X100672402Y-109161135D01*
X100810607Y-109242869D01*
X100851268Y-109254682D01*
X100964791Y-109287664D01*
X100964794Y-109287664D01*
X100964796Y-109287665D01*
X100976803Y-109288609D01*
X101000817Y-109290500D01*
X101000818Y-109290499D01*
X101000819Y-109290500D01*
X101332309Y-109290499D01*
X101499181Y-109290499D01*
X101502014Y-109290275D01*
X101535204Y-109287665D01*
X101689393Y-109242869D01*
X101782564Y-109187767D01*
X101845685Y-109170500D01*
X101949192Y-109170500D01*
X102016231Y-109190185D01*
X102036873Y-109206819D01*
X102806614Y-109976560D01*
X102840099Y-110037883D01*
X102835115Y-110107575D01*
X102793243Y-110163508D01*
X102755823Y-110182626D01*
X102614137Y-110226776D01*
X102614133Y-110226778D01*
X102469181Y-110314404D01*
X102469177Y-110314407D01*
X102349407Y-110434177D01*
X102349404Y-110434181D01*
X102261778Y-110579133D01*
X102261776Y-110579137D01*
X102211386Y-110740847D01*
X102205000Y-110811126D01*
X102205000Y-111250000D01*
X103226000Y-111250000D01*
X103293039Y-111269685D01*
X103338794Y-111322489D01*
X103350000Y-111374000D01*
X103350000Y-112830000D01*
X103353873Y-112830000D01*
X103424152Y-112823613D01*
X103585862Y-112773223D01*
X103585866Y-112773221D01*
X103730818Y-112685595D01*
X103730822Y-112685592D01*
X103850593Y-112565821D01*
X103893589Y-112494695D01*
X103945116Y-112447506D01*
X104013975Y-112435667D01*
X104078304Y-112462934D01*
X104105824Y-112494693D01*
X104149010Y-112566132D01*
X104268867Y-112685989D01*
X104268871Y-112685992D01*
X104356731Y-112739105D01*
X104413928Y-112773681D01*
X104413930Y-112773681D01*
X104413931Y-112773682D01*
X104417506Y-112774796D01*
X104575758Y-112824110D01*
X104646079Y-112830500D01*
X104893897Y-112830499D01*
X104960935Y-112850183D01*
X105006690Y-112902987D01*
X105012745Y-112921535D01*
X105013045Y-112921442D01*
X105025208Y-112960213D01*
X105027079Y-112967837D01*
X105033142Y-113001652D01*
X105033142Y-113001655D01*
X105055894Y-113058612D01*
X105057474Y-113063051D01*
X105075841Y-113121588D01*
X105075844Y-113121595D01*
X105092509Y-113151619D01*
X105095879Y-113158714D01*
X105108622Y-113190614D01*
X105108627Y-113190624D01*
X105142377Y-113241833D01*
X105144818Y-113245863D01*
X105174588Y-113299498D01*
X105174589Y-113299499D01*
X105174591Y-113299502D01*
X105196968Y-113325567D01*
X105201693Y-113331835D01*
X105213336Y-113349500D01*
X105220598Y-113360519D01*
X105263978Y-113403899D01*
X105267169Y-113407343D01*
X105307131Y-113453892D01*
X105307130Y-113453892D01*
X105334299Y-113474923D01*
X105340186Y-113480107D01*
X105397674Y-113537595D01*
X105446727Y-113586648D01*
X105480212Y-113647971D01*
X105475228Y-113717663D01*
X105433356Y-113773596D01*
X105431931Y-113774647D01*
X105394129Y-113802111D01*
X105267466Y-113942785D01*
X105172821Y-114106715D01*
X105172818Y-114106722D01*
X105114327Y-114286740D01*
X105114326Y-114286744D01*
X105094540Y-114475000D01*
X105114326Y-114663256D01*
X105114327Y-114663259D01*
X105172818Y-114843277D01*
X105172820Y-114843281D01*
X105172821Y-114843284D01*
X105218141Y-114921780D01*
X105235674Y-114952149D01*
X105252146Y-115020049D01*
X105235020Y-115077266D01*
X105227132Y-115090603D01*
X105227129Y-115090611D01*
X105182335Y-115244791D01*
X105182334Y-115244797D01*
X105179500Y-115280817D01*
X105179500Y-115379374D01*
X105159815Y-115446413D01*
X105107011Y-115492168D01*
X105037853Y-115502112D01*
X104974297Y-115473087D01*
X104970604Y-115469503D01*
X104970554Y-115469558D01*
X104966777Y-115466081D01*
X104783634Y-115323535D01*
X104783628Y-115323531D01*
X104579504Y-115213064D01*
X104579495Y-115213061D01*
X104359984Y-115137702D01*
X104172404Y-115106401D01*
X104131049Y-115099500D01*
X103898951Y-115099500D01*
X103857596Y-115106401D01*
X103670015Y-115137702D01*
X103450504Y-115213061D01*
X103450495Y-115213064D01*
X103246371Y-115323531D01*
X103246365Y-115323535D01*
X103063222Y-115466081D01*
X103063215Y-115466087D01*
X103054484Y-115475572D01*
X102994595Y-115511561D01*
X102924757Y-115509458D01*
X102867143Y-115469932D01*
X102847075Y-115434918D01*
X102818355Y-115357915D01*
X102818350Y-115357906D01*
X102732190Y-115242812D01*
X102732187Y-115242809D01*
X102617093Y-115156649D01*
X102617086Y-115156645D01*
X102482379Y-115106403D01*
X102482372Y-115106401D01*
X102422844Y-115100000D01*
X101725000Y-115100000D01*
X101725000Y-116125810D01*
X101672453Y-116089984D01*
X101542827Y-116050000D01*
X101441276Y-116050000D01*
X101340862Y-116065135D01*
X101225000Y-116120931D01*
X101225000Y-115100000D01*
X100523999Y-115100000D01*
X100456960Y-115080315D01*
X100411205Y-115027511D01*
X100400000Y-114976004D01*
X100400000Y-111750000D01*
X102205000Y-111750000D01*
X102205000Y-112188873D01*
X102211386Y-112259152D01*
X102261776Y-112420862D01*
X102261778Y-112420866D01*
X102349404Y-112565818D01*
X102349407Y-112565822D01*
X102469177Y-112685592D01*
X102469181Y-112685595D01*
X102614133Y-112773221D01*
X102614137Y-112773223D01*
X102775848Y-112823613D01*
X102775846Y-112823613D01*
X102846127Y-112830000D01*
X102850000Y-112830000D01*
X102850000Y-111750000D01*
X102205000Y-111750000D01*
X100400000Y-111750000D01*
X100400000Y-109188091D01*
X100419684Y-109121056D01*
X100472488Y-109075301D01*
X100541646Y-109065357D01*
X100605202Y-109094382D01*
G37*
%TD.AperFunction*%
%TA.AperFunction,Conductor*%
G36*
X128670108Y-107452351D02*
G01*
X128726041Y-107494223D01*
X128750458Y-107559687D01*
X128740576Y-107617779D01*
X128737968Y-107623804D01*
X128695496Y-107770000D01*
X129626000Y-107770000D01*
X129693039Y-107789685D01*
X129738794Y-107842489D01*
X129750000Y-107894000D01*
X129750000Y-107985570D01*
X129730315Y-108052609D01*
X129677511Y-108098364D01*
X129608353Y-108108308D01*
X129602766Y-108107374D01*
X129593306Y-108105569D01*
X129541170Y-108095624D01*
X129541167Y-108095624D01*
X129377139Y-108105944D01*
X129220829Y-108156731D01*
X129095009Y-108236580D01*
X129077827Y-108245678D01*
X129073609Y-108247503D01*
X129068228Y-108250685D01*
X129064767Y-108252732D01*
X129001648Y-108270000D01*
X128695496Y-108270000D01*
X128737968Y-108416194D01*
X128749911Y-108436389D01*
X128767092Y-108504113D01*
X128749911Y-108562628D01*
X128737506Y-108583604D01*
X128737504Y-108583609D01*
X128715283Y-108660095D01*
X128677677Y-108718981D01*
X128614205Y-108748187D01*
X128596207Y-108749500D01*
X120759998Y-108749500D01*
X120692959Y-108729815D01*
X120647204Y-108677011D01*
X120637260Y-108607853D01*
X120653881Y-108561351D01*
X120710443Y-108467784D01*
X120738681Y-108421072D01*
X120789110Y-108259242D01*
X120789111Y-108259230D01*
X120790389Y-108252809D01*
X120792697Y-108253268D01*
X120814414Y-108198295D01*
X120871142Y-108157507D01*
X120912234Y-108150500D01*
X127514495Y-108150500D01*
X127530505Y-108152267D01*
X127530528Y-108152026D01*
X127538289Y-108152758D01*
X127538296Y-108152760D01*
X127610203Y-108150500D01*
X127640925Y-108150500D01*
X127648190Y-108149581D01*
X127654016Y-108149122D01*
X127702569Y-108147597D01*
X127722956Y-108141673D01*
X127741996Y-108137731D01*
X127763058Y-108135071D01*
X127808235Y-108117183D01*
X127813735Y-108115300D01*
X127860398Y-108101744D01*
X127878665Y-108090939D01*
X127896136Y-108082380D01*
X127915871Y-108074568D01*
X127955177Y-108046010D01*
X127960043Y-108042813D01*
X128001865Y-108018081D01*
X128016870Y-108003075D01*
X128031668Y-107990436D01*
X128048837Y-107977963D01*
X128079809Y-107940522D01*
X128083713Y-107936231D01*
X128539094Y-107480851D01*
X128600416Y-107447367D01*
X128670108Y-107452351D01*
G37*
%TD.AperFunction*%
%TD*%
M02*
