M48
; DRILL file {KiCad 7.0.6} date Tue Apr 22 02:23:43 2025
; FORMAT={-:-/ absolute / inch / decimal}
; #@! TF.CreationDate,2025-04-22T02:23:43+09:00
; #@! TF.GenerationSoftware,Kicad,Pcbnew,7.0.6
; #@! TF.FileFunction,Plated,1,2,PTH
FMAT,2
INCH
; #@! TA.AperFunction,Plated,PTH,ComponentDrill
T1C0.0079
; #@! TA.AperFunction,Plated,PTH,ViaDrill
T2C0.0157
; #@! TA.AperFunction,Plated,PTH,ComponentDrill
T3C0.0256
; #@! TA.AperFunction,Plated,PTH,ComponentDrill
T4C0.0276
; #@! TA.AperFunction,Plated,PTH,ComponentDrill
T5C0.0295
; #@! TA.AperFunction,Plated,PTH,ComponentDrill
T6C0.0315
; #@! TA.AperFunction,Plated,PTH,ComponentDrill
T7C0.0354
; #@! TA.AperFunction,Plated,PTH,ComponentDrill
T8C0.0598
%
G90
G05
T1
X4.6518Y-4.5056
X4.6518Y-4.5656
X4.6818Y-4.4756
X4.6818Y-4.5356
X4.6818Y-4.5957
X4.7118Y-4.5056
X4.7118Y-4.5656
X4.7418Y-4.4756
X4.7418Y-4.5356
X4.7418Y-4.5957
X4.7719Y-4.5056
X4.7719Y-4.5656
T2
X3.9764Y-5.1969
X3.9764Y-5.4331
X3.9764Y-5.4921
X3.9764Y-5.5512
X3.9764Y-5.6102
X3.9764Y-5.6693
X3.9764Y-5.7283
X3.9764Y-5.7874
X3.9764Y-5.8465
X3.9764Y-5.9055
X3.9764Y-5.9646
X3.9764Y-6.0236
X3.9764Y-6.3189
X3.9961Y-4.3307
X3.9961Y-4.3799
X3.9961Y-4.4291
X4.0157Y-6.3583
X4.0748Y-6.3583
X4.1339Y-6.3583
X4.1535Y-4.9213
X4.1732Y-4.5069
X4.1732Y-4.7343
X4.1732Y-4.9764
X4.1929Y-4.2913
X4.1929Y-5.3937
X4.1929Y-6.3583
X4.2165Y-4.4085
X4.2421Y-5.4035
X4.252Y-5.7874
X4.252Y-5.8465
X4.252Y-5.9055
X4.252Y-5.9646
X4.252Y-6.3583
X4.311Y-5.8465
X4.311Y-5.9055
X4.311Y-5.9646
X4.311Y-6.3583
X4.3425Y-5.5817
X4.3701Y-6.3583
X4.3898Y-5.1378
X4.4291Y-6.1811
X4.4291Y-6.2402
X4.4291Y-6.2992
X4.4291Y-6.3583
X4.4882Y-4.4094
X4.4882Y-4.4882
X4.4882Y-4.5669
X4.4882Y-5.0394
X4.4882Y-6.1811
X4.4882Y-6.2402
X4.4882Y-6.2992
X4.5669Y-4.4094
X4.5669Y-4.4882
X4.5669Y-4.5669
X4.5669Y-5.0394
X4.5669Y-5.1181
X4.5768Y-5.8465
X4.5768Y-5.9055
X4.5965Y-5.4921
X4.626Y-5.9449
X4.6358Y-5.4921
X4.6457Y-5.1969
X4.685Y-5.7126
X4.7047Y-5.748
X4.7638Y-5.315
X4.8071Y-5.9134
X4.8425Y-4.4094
X4.8425Y-4.4882
X4.8425Y-4.5669
X4.8425Y-6.0433
X4.8819Y-6.2402
X4.8819Y-6.2992
X4.9213Y-4.4094
X4.9213Y-4.4882
X4.9213Y-4.5669
X4.9409Y-6.2402
X4.9409Y-6.2992
X4.9409Y-6.3583
X5.0Y-6.3583
X5.0197Y-5.2165
X5.0591Y-5.3346
X5.0591Y-5.4921
X5.0591Y-5.5512
X5.0591Y-6.3583
X5.0787Y-4.2224
X5.0787Y-5.2165
X5.0984Y-4.3209
X5.0984Y-5.5906
X5.1024Y-4.498
X5.1024Y-4.5472
X5.1024Y-4.5945
X5.1181Y-4.7835
X5.1181Y-6.3583
X5.1378Y-5.2165
X5.1417Y-4.2165
X5.1575Y-5.9646
X5.1772Y-6.3583
X5.1969Y-4.3898
X5.2165Y-5.9646
X5.2362Y-4.8425
X5.2362Y-6.3583
X5.2756Y-4.8228
X5.2756Y-5.9646
X5.2756Y-6.0827
X5.2953Y-6.3583
X5.3346Y-5.9055
X5.3346Y-5.9646
X5.3346Y-6.0827
X5.3543Y-6.3583
X5.3661Y-4.2835
X5.3937Y-4.7244
X5.3937Y-5.2559
X5.3937Y-5.315
X5.3937Y-5.374
X5.3937Y-5.4331
X5.3937Y-5.4921
X5.3937Y-5.5512
X5.3937Y-5.6102
X5.3937Y-5.6693
X5.3937Y-5.7283
X5.3937Y-5.7874
X5.3937Y-5.8465
X5.3937Y-5.9055
X5.3937Y-5.9646
X5.3937Y-6.0236
X5.3937Y-6.0827
X5.3937Y-6.1417
X5.3937Y-6.2008
X5.3937Y-6.2598
X5.3937Y-6.3189
T5
X4.8622Y-5.4331
X4.9409Y-5.4331
X5.1772Y-5.4331
X5.1772Y-5.7087
X5.2559Y-5.4331
X5.2559Y-5.7087
T6
X4.0453Y-5.315
X4.1831Y-5.315
X4.3996Y-5.315
X4.5374Y-5.315
T7
X3.9951Y-4.5866
X3.9951Y-4.8228
X3.9951Y-5.0591
X4.0951Y-4.5866
X4.0951Y-4.8228
X4.0951Y-5.0591
X5.3346Y-4.526
X5.3346Y-4.626
T8
X4.0945Y-6.2205
X4.2945Y-6.2205
X5.0787Y-6.2205
X5.2787Y-6.2205
T3
G00X4.5888Y-6.1541
M15
G01X4.5888Y-6.1384
M16
G05
G00X4.7793Y-6.1541
M15
G01X4.7793Y-6.1384
M16
G05
T4
G00X4.5766Y-6.2742
M15
G01X4.5766Y-6.2545
M16
G05
G00X4.7915Y-6.2742
M15
G01X4.7915Y-6.2545
M16
G05
T0
M30
